<svg width="70" height="24" viewBox="0 0 70 24" fill="none" xmlns="http://www.w3.org/2000/svg">
<path d="M18.2047 4H21.3899V24H18.2047V4ZM32.5384 17.62C32.5384 20.6808 29.9767 20.9248 29.2146 20.9248C27.3106 20.9248 26.9642 19.1344 26.9642 18.0544V10.4H23.7789V18.0384C23.7789 19.9344 24.3714 21.4992 25.4098 22.5424C26.3271 23.4648 27.7016 23.9688 29.1907 23.9688C30.2466 23.9688 31.7421 23.6384 32.5384 22.908V24H35.7237V10.4H32.5384V17.62ZM42.0943 5.6H38.909V10.4H36.52V13.6H38.909V24H42.0943V13.6H44.4832V10.4H42.0943V5.6ZM54.5145 19.9336C53.8209 20.56 52.9051 20.9072 51.9002 20.9072C49.6848 20.9072 48.0579 19.2728 48.0579 17.0288C48.0579 14.7848 49.633 13.2192 51.9002 13.2192C52.8876 13.2192 53.8209 13.5496 54.532 14.176L55.0154 14.5936L57.1631 12.4368L56.6255 11.9496C55.3618 10.8032 53.6839 10.16 51.8994 10.16C47.9178 10.16 45.0263 13.0464 45.0263 17.012C45.0263 20.9608 47.9871 23.9504 51.8994 23.9504C53.7174 23.9504 55.4127 23.3072 56.6606 22.1424L57.1798 21.6552L54.9987 19.5L54.5145 19.9336ZM68.5321 11.5856C67.6148 10.664 66.5397 10.16 65.0506 10.16C63.9947 10.16 62.7986 10.4904 62.0023 11.22V4H58.817V24H62.0023V16.508C62.0023 13.4472 64.1667 13.204 64.9288 13.204C66.8328 13.204 66.7802 14.9952 66.7802 16.0736V24H69.9655V16.0904C69.9655 14.1944 69.5713 12.6296 68.5321 11.5856Z" fill="#17313B"/>
<path d="M51.7951 14.75C52.4059 14.75 52.9917 14.9938 53.4235 15.4276C53.8554 15.8615 54.0981 16.45 54.0981 17.0636C54.0981 17.6772 53.8554 18.2657 53.4235 18.6996C52.9917 19.1335 52.4059 19.3772 51.7951 19.3772C51.1843 19.3772 50.5985 19.1335 50.1666 18.6996C49.7348 18.2657 49.4921 17.6772 49.4921 17.0636C49.4921 16.45 49.7348 15.8615 50.1666 15.4276C50.5985 14.9938 51.1843 14.75 51.7951 14.75Z" fill="#FF3D2E"/>
<path d="M13.7453 18.9778C12.5341 20.2298 10.8889 20.9082 9.15768 20.9082C5.60928 20.9082 3.0292 18.1082 3.0292 14.265C3.0292 10.4042 5.60928 7.60424 9.15768 7.60424C10.8722 7.60424 12.499 8.28184 13.7286 9.51704L14.2127 10.0042L16.3421 7.86504L15.8746 7.37784C14.1092 5.55144 11.7202 4.56104 9.15768 4.56104C3.92984 4.56104 0 8.73464 0 14.2818C0 19.8122 3.94736 23.969 9.15768 23.969C11.7378 23.969 14.1267 22.961 15.8922 21.1346L16.3596 20.6474L14.2478 18.4738L13.7453 18.9778Z" fill="#17313B"/>
</svg>
