<svg width="112" height="24" viewBox="0 0 112 24" fill="none" xmlns="http://www.w3.org/2000/svg">
<path d="M14.789 21.7075C14.4023 21.9761 14.1165 22.1731 13.9148 22.2985C13.192 22.7642 12.5027 23.1224 11.8639 23.409C10.9393 23.803 10.1156 24 9.37596 24C6.83757 24 4.73626 23.194 3.03839 21.5642C1.34053 19.9343 0.5 17.8925 0.5 15.4209C0.5 13.0388 1.25647 10.9791 2.78623 9.22388C4.31599 7.46866 6.16515 6.60896 8.35052 6.60896C9.25829 6.60896 10.2333 6.77015 11.2419 7.11045C12.5532 7.5403 13.6122 8.18507 14.4527 9.02687L12.9902 10.7104C12.3682 10.0836 11.5613 9.61791 10.6199 9.33134C9.9139 9.11642 9.14062 9.00896 8.28328 9.00896C6.75352 9.00896 5.45911 9.65373 4.43367 10.9254C3.40822 12.2149 2.8871 13.7373 2.8871 15.5284C2.8871 17.3015 3.47547 18.7522 4.6522 19.9164C5.82894 21.0806 7.32508 21.6716 9.14062 21.6716C9.89709 21.6716 10.6704 21.4209 11.4605 20.9373C12.1161 20.4179 12.4523 20.1672 12.4691 20.1493V16.4776H7.56043L8.26647 14.1851H14.789V21.7075ZM29.6159 17.2298C29.6159 19.003 29.0107 20.5433 27.8003 21.8328C26.59 23.1224 25.0938 23.7851 23.3119 23.7851C21.6645 23.7851 20.2188 23.1403 18.9748 21.8687C17.7308 20.597 17.1256 19.0567 17.1256 17.2478C17.1256 15.4567 17.714 13.9164 18.8907 12.591C20.0675 11.2657 21.5132 10.6209 23.211 10.6209C25.0938 10.6209 26.6236 11.2478 27.8171 12.5194C29.0107 13.7552 29.6159 15.3313 29.6159 17.2298ZM27.3128 17.2657C27.3128 16.0657 26.9262 15.0448 26.1529 14.2209C25.3796 13.3791 24.4214 12.9672 23.2783 12.9672C22.2024 12.9672 21.2946 13.397 20.5382 14.2567C19.7817 15.1164 19.4119 16.1015 19.4119 17.2119C19.4119 18.3761 19.7985 19.3612 20.555 20.1851C21.3114 21.009 22.2528 21.4388 23.396 21.4388C24.455 21.4388 25.3628 21.0269 26.1361 20.203C26.9262 19.3791 27.3128 18.394 27.3128 17.2657ZM44.241 17.2298C44.241 19.003 43.6358 20.5433 42.4255 21.8328C41.2151 23.1224 39.719 23.7851 37.9371 23.7851C36.2896 23.7851 34.8439 23.1403 33.6 21.8687C32.356 20.597 31.7508 19.0567 31.7508 17.2478C31.7508 15.4567 32.3392 13.9164 33.5159 12.591C34.6926 11.2657 36.1383 10.6209 37.8362 10.6209C39.719 10.6209 41.2487 11.2478 42.4423 12.5194C43.6358 13.7552 44.241 15.3313 44.241 17.2298ZM41.938 17.2657C41.938 16.0657 41.5513 15.0448 40.7781 14.2209C40.0048 13.3791 39.0466 12.9672 37.9035 12.9672C36.8276 12.9672 35.9198 13.397 35.1633 14.2567C34.4069 15.1164 34.037 16.1015 34.037 17.2119C34.037 18.3761 34.4237 19.3612 35.1801 20.1851C35.9366 21.009 36.878 21.4388 38.0211 21.4388C39.0802 21.4388 39.988 21.0269 40.7612 20.203C41.5513 19.3791 41.938 18.394 41.938 17.2657ZM57.7735 23.4269L55.6554 23.7672V21.6358L55.2015 22.1731C54.798 22.5672 54.3442 22.8896 53.8567 23.1403C53.1506 23.4806 52.3773 23.6597 51.5536 23.6597C49.9062 23.6597 48.4941 23.0328 47.351 21.7612C46.2079 20.4896 45.6363 18.9851 45.6363 17.2298C45.6363 15.4209 46.2079 13.8627 47.3342 12.5731C48.4605 11.2836 49.8389 10.6388 51.4864 10.6388C52.4278 10.6388 53.2515 10.8 53.9407 11.1224C54.4282 11.3552 54.8485 11.6597 55.2015 12.0358C55.3192 12.197 55.4369 12.3761 55.5545 12.5373V6.94925L57.8071 6.60896L57.7735 23.4269ZM55.7899 17.391C55.7899 16.1373 55.3864 15.0806 54.5627 14.2209C53.739 13.3433 52.8144 12.9134 51.7553 12.9134C50.5786 12.9134 49.6372 13.3254 48.9144 14.1493C48.2419 14.9373 47.8889 15.9045 47.8889 17.0328C47.8889 18.3045 48.2419 19.3612 48.948 20.1851C49.654 21.009 50.545 21.4209 51.6377 21.4209C52.7135 21.4209 53.6549 21.0448 54.4955 20.2746C55.3528 19.4866 55.7899 18.5194 55.7899 17.391ZM69.6586 9.27761H63.3546V13.7373H68.2465V16.0299H63.3546V23.409L60.9003 23.7851V6.96716H69.1711L69.6586 9.27761ZM74.7185 7.97015L73.2056 9.95821L71.7599 7.97015L73.2896 6L74.7185 7.97015ZM74.2647 23.4269L72.012 23.7493V11.3015L74.2647 10.9433V23.4269ZM84.435 10.8179L83.376 13.3612C83.2583 13.3433 83.107 13.3254 82.9557 13.3254C82.7372 13.3254 82.5186 13.3433 82.3001 13.3791C82.0816 13.4149 81.8462 13.5045 81.594 13.6299C81.1234 13.8448 80.7199 14.3104 80.3669 15.009C79.9802 15.797 79.7785 16.6567 79.7785 17.5701V23.409L77.5259 23.7851V11.3015L79.6104 10.9075V13.5045C79.8794 13.0567 80.1652 12.609 80.4341 12.1433C80.8208 11.6776 81.2747 11.3373 81.779 11.1403C82.0479 11.0328 82.5354 10.9433 83.2751 10.8716C83.9811 10.8179 84.3846 10.7821 84.435 10.8179ZM101.212 23.4269L98.9593 23.7672V15.2239C98.9593 14.4358 98.7912 13.8627 98.455 13.5045C98.1188 13.1463 97.6145 12.9672 96.9589 12.9672C96.1688 12.9672 95.5636 13.3075 95.1602 13.9881C94.8912 14.4537 94.7399 14.9552 94.7399 15.4567V23.409L92.4873 23.8388V15.2776C92.4873 14.5254 92.3192 13.9522 91.9998 13.5582C91.6636 13.1642 91.2265 12.9672 90.6549 12.9672H90.4364C89.6463 12.9672 89.0747 13.3075 88.7217 14.006C88.4527 14.5254 88.3183 15.1881 88.3183 15.994V23.409L85.9816 23.8388V11.3015L88.0829 10.9254V12.5194C88.3183 12.1433 88.5536 11.8388 88.7721 11.6239C89.3773 11.0328 90.0834 10.7463 90.8735 10.7463C91.7644 10.7463 92.42 10.8896 92.8739 11.194C93.2606 11.4448 93.6304 11.9463 94.0002 12.6627C94.7735 11.391 95.8662 10.7463 97.3119 10.7463C98.6904 10.7463 99.7158 11.194 100.388 12.1075C100.943 12.8597 101.212 13.9701 101.212 15.4209V23.4269ZM111.5 19.6478C111.5 20.794 111.113 21.7433 110.34 22.4776C109.567 23.2299 108.592 23.5881 107.415 23.5881C106.524 23.5881 105.734 23.3731 105.011 22.9433C104.288 22.5134 103.75 22.0299 103.397 21.4567L104.978 19.9881C105.095 20.1672 105.196 20.3104 105.297 20.4179C105.885 21.0448 106.591 21.3672 107.415 21.3672C107.987 21.3672 108.44 21.206 108.76 20.9015C109.096 20.597 109.247 20.1672 109.247 19.6119C109.247 18.9851 108.861 18.5552 108.087 18.3224C106.558 17.8388 105.734 17.5701 105.616 17.5164C104.91 17.1403 104.406 16.7463 104.087 16.2985C103.734 15.7791 103.549 15.0985 103.549 14.2209C103.549 13.1463 103.935 12.2507 104.692 11.5343C105.448 10.8179 106.356 10.4776 107.398 10.4776C108.188 10.4776 108.928 10.6567 109.6 11.0328C110.273 11.409 110.76 11.803 111.046 12.2687L109.701 13.791C109.449 13.5403 109.231 13.3433 109.046 13.2179C108.508 12.8239 107.987 12.6269 107.499 12.6269C107.028 12.6269 106.642 12.7343 106.339 12.9493C105.986 13.2179 105.801 13.6119 105.801 14.1313C105.801 14.6328 105.969 15.009 106.322 15.2418C106.625 15.4388 107.264 15.6537 108.272 15.8866C109.281 16.1373 110.054 16.5672 110.609 17.1761C111.231 17.8209 111.5 18.6269 111.5 19.6478Z" fill="#4385F4"/>
</svg>
