<svg width="540" height="496" viewBox="0 0 540 496" fill="none" xmlns="http://www.w3.org/2000/svg">
<rect width="540" height="496" fill="white"/>
<path fill-rule="evenodd" clip-rule="evenodd" d="M432.578 144.252C482.642 197.308 532.845 247.431 539.278 303.838C545.711 360.244 508.373 423.073 458.309 457.978C408.105 492.884 345.176 499.865 287.84 494.28C230.504 488.695 178.762 470.544 123.245 435.639C67.8667 400.734 8.57322 349.075 0.881846 289.736C-6.80953 230.258 36.8215 163.101 92.3393 110.045C147.717 56.9892 214.982 18.0352 273.716 26.552C332.31 35.2085 382.514 91.1962 432.578 144.252Z" fill="#F6F6F6"/>
<path opacity="0.12" fill-rule="evenodd" clip-rule="evenodd" d="M292.774 57.6799H251.276V166.219H251.106V262.328H234.974V203.052H234.553L214.225 130.367L193.897 203.052H193.476V262.328H174.21V99.2157H143.087V129.602L125.302 146.119V161.57H62.1596V435.945H125.658H173.669H193.476H234.974H255.752H292.921H361.066H424.676H429.211H492.709H492.852H536.075V225.9L492.852 194.225V87.3477H424.676V249.928H415.784V173.384H384.661V249.928H361.066V223.575H358.028L361.066 222.801L333.189 197.223V166.219H292.774V57.6799ZM62.1595 204.973H14.1485V435.945H62.1595V204.973Z" fill="url(#paint0_radial)"/>
<path d="M253.69 115.506C267.977 108.584 275.916 117.265 288.399 116.038C301.814 116.297 300.191 107.785 310.64 109.913C316.017 111.008 343.93 160.244 347.681 198.513C351.89 241.461 315.18 268.717 299.258 315.216C289.165 344.698 303.884 386.504 306.592 398.063C301.392 398.573 277.063 397.337 259.109 387.748C236.667 375.761 187.584 334.441 143 328.197C102.271 322.492 66.2408 332.582 17.6129 350.759C48.1413 292.576 115.259 278.208 153.841 245.93C192.422 213.653 227.167 128.355 253.69 115.506Z" fill="url(#paint1_linear)"/>
<path d="M272.672 100.239C273.436 108.048 272.489 114.448 268.895 117.954C272.79 120.199 282.314 124.678 289.241 124.628C297.898 124.567 307.276 115.762 304.935 115.991C303.374 116.145 299.519 106.274 298.096 102.473C290.921 101.6 272.478 98.2642 272.672 100.239Z" fill="#E9A99C"/>
<path d="M307.613 104.478C307.732 100.185 305.365 88.4225 303.335 81.4858C300.645 71.717 294.298 64.9829 281.407 64.2421C268.516 63.5013 264.122 71.2761 263.197 78.0701C261.628 89.5945 270.212 101.461 275.28 104.977C280.348 108.493 307.465 109.844 307.613 104.478Z" fill="#F6B3A6"/>
<path d="M266.846 86.8613C269.358 85.5709 272.447 88.9801 273.503 92.8805L278.242 93.0815C275.225 89.8198 270.562 80.7595 271.216 76.4263C272.034 71.0086 277.05 67.1795 286.656 68.9044C293.3 70.0975 298.957 68.8606 301.818 65.4141C305.434 61.0566 302.18 55.3714 299.79 51.604C296.562 46.5169 294.505 48.1194 291.648 51.069C287.364 55.493 275.892 55.8399 269.337 57.2632C258.118 59.6997 257.281 71.7899 257.799 77.0763C258.447 83.684 264.286 95.1192 267.818 96.7744C266.827 93.5354 263.638 88.5116 266.846 86.8613Z" fill="#64331E"/>
<path fill-rule="evenodd" clip-rule="evenodd" d="M263.053 270.026C275.557 273.98 283.195 285.73 276.619 298.989C270.042 312.25 232.643 350.756 198.501 380.124C198.426 380.189 198.352 380.252 198.276 380.315C189.193 390.341 135.166 434.542 127.986 437.968C121.966 440.84 121.53 436.392 121.07 431.688L121.056 431.553C130.4 416.239 149.494 386.25 158.209 376.661C163.774 370.536 175.281 360.625 184.507 358.728C184.504 358.437 184.504 358.145 184.502 357.848C184.47 333.412 215.104 286.315 231.812 275.796C240.715 270.192 250.551 266.073 263.053 270.026Z" fill="url(#paint2_linear)"/>
<path d="M196.329 387.107C193.402 385.196 166.837 378.564 153.225 377.151C145.083 377.95 116.173 425.476 113.315 431.256C110.456 437.036 101.415 435.462 98.9674 438.453C97.8042 439.874 99.3356 450.241 97.3107 461.477C95.286 472.713 100.337 480.478 102.498 482.255C109.351 487.888 110.768 454.193 119.333 443.728C138.888 433.557 199.989 389.499 196.329 387.107Z" fill="#EC7F1A"/>
<path d="M206.217 257.959C208.529 255.839 217.782 248.414 228.846 240.757C237.016 251.781 264.995 264.012 283.948 264.515C284.071 265.765 281.564 288.4 279.361 298.076C262.467 293.429 253.487 298.253 243.025 304.011C233.736 265.505 219.157 261.417 206.217 257.959Z" fill="#2B1C3A"/>
<path fill-rule="evenodd" clip-rule="evenodd" d="M388.369 86.7657C388.475 86.6717 388.58 86.576 388.684 86.4804C393.823 81.7711 417.343 36.0133 423.441 24.1509C424.202 22.6683 424.693 21.7152 424.841 21.4378C425.905 19.4413 422.745 16.1252 419.548 15.6508C408.79 26.4304 373.143 62.9371 368.2 70.3601C367.479 71.4414 366.848 72.44 366.302 73.3705C350.172 81.2102 314.81 105.502 304.858 115.211C294.074 125.731 294.275 143.843 304.939 156.198C315.601 168.552 335.41 169.761 346.348 160.803C355.478 153.325 381.101 106.859 388.369 86.7657Z" fill="url(#paint3_linear)"/>
<path d="M290.478 121.18C283.613 121.854 275.366 119.684 271.235 117.724C262.256 122.548 248.199 134.176 241.837 155.299C232.05 187.794 224.74 238.006 223.791 244.407C230.004 259.564 264.239 263.297 282.733 259.116C286.724 251.629 306.44 219.735 324.489 202.984C339.534 189.022 353.261 167.048 343.637 141.188C337.626 125.037 314.146 116.228 303.204 114.412C301.874 116.907 297.342 120.506 290.478 121.18Z" fill="url(#paint4_linear)"/>
<path d="M323.226 145.73C314.622 150.195 294.291 154.905 280.595 153.536L270.359 169.02C277.442 179.786 291.625 192.269 299.65 209.579C320.351 199.402 334.377 167.257 333.938 162.776C333.499 158.295 332.796 151.125 323.226 145.73Z" fill="white"/>
<path fill-rule="evenodd" clip-rule="evenodd" d="M275.518 121.245C281.63 131.682 274.373 149.739 265.38 162.448C260.633 169.155 248.609 180.556 237.216 190.536C248.732 192.663 270.5 192.573 289.047 186.929C292.32 188.183 294.186 191.153 291.601 196.926C273.665 206.797 208.367 223.65 195.308 218.996C193.425 218.325 191.829 217.43 190.496 216.363C189.793 216.003 189.16 215.527 188.608 214.924C183.315 209.136 184.381 199.766 187.566 188.222C190.472 177.688 204.858 146.388 227.685 131.461C244.711 120.329 269.405 110.808 275.518 121.245Z" fill="url(#paint5_linear)"/>
<path fill-rule="evenodd" clip-rule="evenodd" d="M241.05 250.732C256.652 249.2 292.812 249.455 304.117 252.285C311.446 254.122 318.871 258.068 321.925 263.2C326.653 269.441 323.676 283.84 320.351 289.321C313.57 300.498 251.136 346.573 242.861 350.54C236.24 353.713 234.253 351.122 233.742 345.917C234.436 344.774 235.195 343.518 236.013 342.164C241.983 332.282 251.06 317.257 260.196 304.024C243.779 309.651 227.606 313.757 217.893 312.785C194.029 310.398 183.187 287.187 196.952 266.916C205.995 253.598 221.159 252.373 235.294 251.23C237.238 251.073 239.163 250.917 241.05 250.732Z" fill="url(#paint6_linear)"/>
<path d="M312.993 302.658C309.627 300.466 284.432 295.214 268.783 293.597C259.422 294.516 222.598 347.801 219.31 354.429C216.022 361.06 207.836 357.921 205.023 361.351C203.713 362.948 203.967 371.702 203.212 382.027C199.053 395.837 203.453 404.597 205.663 407.013C213.602 415.694 216.375 380.733 226.226 368.729C248.711 357.06 317.199 305.399 312.993 302.658Z" fill="#ED8322"/>
<path d="M425.268 1.68714C423.3 2.57324 418.759 12.5819 418.845 16.5084C420.267 16.3687 423.966 18.6168 424.764 20.6571C426.928 18.3258 429.902 16.1443 431.954 13.6444C432.657 12.7868 437.576 13.831 439.978 10.871C442.378 7.91104 441.398 3.45966 438.608 1.16547C436.361 -0.680479 429.468 -0.204523 425.268 1.68714Z" fill="#F6B3A6"/>
<path d="M308.35 196.263C306.565 198.192 295.315 198.623 290.822 197.002C291.534 195.415 289.741 189.271 287.699 187.559L287.74 187.496C290.576 183.134 291.568 181.608 295.227 180.214C298.904 178.815 300.29 181.368 301.924 181.208C306.539 180.756 309.428 177.03 310.991 181.143C312.248 184.452 312.157 192.147 308.35 196.263Z" fill="#F6B3A6"/>
<defs>
<radialGradient id="paint0_radial" cx="0" cy="0" r="1" gradientUnits="userSpaceOnUse" gradientTransform="translate(274.989 57.6799) rotate(90) scale(301.128 415.494)">
<stop stop-color="#485E80"/>
<stop offset="1" stop-color="#495F80" stop-opacity="0.01"/>
</radialGradient>
<linearGradient id="paint1_linear" x1="157.697" y1="87.0069" x2="33.9841" y2="289.16" gradientUnits="userSpaceOnUse">
<stop offset="0.0782682" stop-color="#FF7575"/>
<stop offset="1" stop-color="#DD315D"/>
</linearGradient>
<linearGradient id="paint2_linear" x1="187.207" y1="234.872" x2="136.082" y2="372.273" gradientUnits="userSpaceOnUse">
<stop stop-color="#624B76"/>
<stop offset="1" stop-color="#381C51"/>
</linearGradient>
<linearGradient id="paint3_linear" x1="358.403" y1="-25.3709" x2="262.215" y2="88.1729" gradientUnits="userSpaceOnUse">
<stop stop-color="#3290C4"/>
<stop offset="1" stop-color="#106CA0"/>
</linearGradient>
<linearGradient id="paint4_linear" x1="245.634" y1="142.55" x2="276.146" y2="256.33" gradientUnits="userSpaceOnUse">
<stop stop-color="#3290C4"/>
<stop offset="1" stop-color="#106CA0"/>
</linearGradient>
<linearGradient id="paint5_linear" x1="243.051" y1="105.171" x2="211.417" y2="175.867" gradientUnits="userSpaceOnUse">
<stop stop-color="#3290C4"/>
<stop offset="1" stop-color="#106CA0"/>
</linearGradient>
<linearGradient id="paint6_linear" x1="236.664" y1="245.196" x2="234.362" y2="312.673" gradientUnits="userSpaceOnUse">
<stop stop-color="#624B76"/>
<stop offset="1" stop-color="#381C51"/>
</linearGradient>
</defs>
</svg>
