<svg width="730" height="684" viewBox="0 0 730 684" fill="none" xmlns="http://www.w3.org/2000/svg">
<g clip-path="url(#clip0)">
<path d="M730 682.104C730 685.253 564.369 683.529 365 683.529C165.631 683.529 0 685.253 0 682.104C0 680.048 63.1937 673.112 165.804 670C180.505 669.554 196.549 665.593 213.5 665C259.411 663.393 311.973 665 362.493 665C561.862 665 730 678.955 730 682.104Z" fill="#0057FF" fill-opacity="0.1"/>
<path d="M192.895 94.8727H505.971V645.819H192.895V94.8727Z" fill="white"/>
<path d="M190.935 647.534H507.687V93.1578H190.935V647.534ZM504.012 643.859H194.61V96.8324H504.012V643.859Z" fill="#030047"/>
<path d="M211.514 258.27H436.4V491.975H211.514V258.27Z" fill="#5F5FFF"/>
<path d="M458.448 298.691C459.427 298.691 460.407 297.956 460.407 296.731V229.608H400.389C399.409 229.608 398.429 230.343 398.429 231.568C398.429 232.793 399.164 233.528 400.389 233.528H456.733V296.976C456.733 297.956 457.468 298.691 458.448 298.691Z" fill="#030047"/>
<path d="M396.714 521.127H463.837V461.108C463.837 460.129 463.102 459.149 461.877 459.149C460.652 459.149 459.917 459.884 459.917 461.108V517.452H396.469C395.489 517.452 394.509 518.187 394.509 519.412C394.509 520.637 395.734 521.127 396.714 521.127Z" fill="#030047"/>
<path d="M345.515 138.723H454.773V163.955H345.515V138.723Z" fill="white"/>
<path d="M343.8 165.915H456.733V137.008H343.8V165.915ZM453.058 162.24H347.474V140.683H453.058V162.24Z" fill="#030047"/>
<path d="M326.407 162.975C319.913 162.975 314.648 157.711 314.648 151.216C314.648 144.722 319.913 139.458 326.407 139.458C332.901 139.458 338.166 144.722 338.166 151.216C338.166 157.711 332.901 162.975 326.407 162.975Z" fill="#030047"/>
<path d="M516.017 177.674H527.041V307.51H516.017V177.674Z" fill="#5F5FFF"/>
<path d="M514.302 309.225H529V175.714H514.302V309.225ZM525.325 305.55H517.976V179.388H525.325V305.55Z" fill="#5F5FFF"/>
<path d="M404.062 347.93C404.552 347.93 405.042 347.685 405.532 347.195L412.882 338.866C413.617 338.131 413.616 336.906 412.637 336.172C411.902 335.437 410.677 335.437 409.942 336.417L402.593 344.746C401.858 345.481 401.858 346.705 402.838 347.44C403.083 347.685 403.573 347.93 404.062 347.93Z" fill="white"/>
<path d="M452.323 394.72C452.813 394.72 453.303 394.475 453.548 394.23C454.283 393.496 454.283 392.271 453.548 391.536L436.645 373.898C435.91 373.163 434.685 373.163 433.95 373.898C433.215 374.633 433.215 375.857 433.95 376.592L450.853 394.23C451.343 394.72 451.833 394.72 452.323 394.72Z" fill="#5F5FFF"/>
<path d="M388.384 456.944C389.119 456.944 389.854 456.454 390.099 455.964L394.264 446.9C394.754 445.92 394.264 444.94 393.284 444.45C392.304 443.96 391.324 444.45 390.834 445.43L386.67 454.494C386.18 455.474 386.67 456.454 387.649 456.944C387.894 456.699 388.139 456.944 388.384 456.944Z" fill="white"/>
<path d="M49.5867 540.725L9.90079 589.72L99.3164 672.276C99.3164 672.276 109.85 660.762 102.991 649.004C99.5614 642.879 96.3767 632.1 95.6418 620.342C95.6418 619.607 95.6417 618.627 95.3967 617.892C95.1518 614.952 95.1518 612.013 95.3967 609.073C95.3967 608.338 95.6418 607.358 95.6418 606.623C96.3767 600.009 98.0916 593.64 101.031 588.25L49.5867 540.725Z" fill="#030047"/>
<path d="M72.369 605.888C79.9632 606.868 87.8022 608.092 95.3964 609.317C95.3964 608.582 95.6415 607.603 95.6415 606.868C88.0473 605.888 80.4531 604.663 72.8589 603.683C71.3891 603.438 70.8991 605.888 72.369 605.888Z" fill="white"/>
<path d="M74.5735 619.606C81.4327 619.851 88.537 620.096 95.3962 620.341C95.3962 619.606 95.3963 618.627 95.1513 617.892C88.2921 617.647 81.1878 617.402 74.3285 617.157C72.8587 617.157 73.1036 619.606 74.5735 619.606Z" fill="white"/>
<path d="M220.823 601.968L224.988 664.927H346.74C346.74 664.927 346.74 649.493 333.756 645.329C327.142 643.369 317.343 637.245 308.769 629.405C308.279 628.915 307.544 628.425 307.054 627.691C305.094 625.731 302.889 623.526 301.174 621.321C300.685 620.586 300.195 620.096 299.705 619.361C295.785 613.972 292.6 608.093 291.375 602.213H220.823V601.968Z" fill="#030047"/>
<path d="M90.7418 454.984C103.235 410.889 123.568 287.667 123.568 287.667L193.876 303.835C195.835 296.731 197.305 292.322 197.305 292.322L268.348 319.514C268.348 376.837 300.194 605.153 300.194 605.153L208.084 618.137C208.084 618.137 197.55 518.432 190.691 442.246C164.724 530.926 120.873 595.599 103.235 606.623L36.1126 551.504C35.8676 551.259 78.2481 499.079 90.7418 454.984Z" fill="white"/>
<path d="M206.37 620.096L302.399 606.623L302.154 604.908C301.909 602.703 270.308 375.857 270.308 319.513V318.288L196.326 289.871L195.836 291.831C195.836 291.831 194.611 295.751 192.896 301.875L122.343 285.707L122.098 287.667C121.854 288.892 101.521 411.378 89.2719 454.984C77.0232 498.099 35.1328 550.034 34.8878 550.524L33.663 551.994L103.235 609.072L104.46 608.338C121.364 598.049 163.254 537.54 189.956 452.044C196.816 526.026 206.369 617.647 206.614 618.626L206.37 620.096ZM298.235 603.438L209.799 615.687C208.329 601.478 199.02 511.328 192.651 441.755L191.671 432.201L188.976 441.51C163.254 528.966 121.119 591.679 103.481 603.928L38.8074 550.769C45.6666 541.95 81.6777 495.16 92.9465 455.229C104.46 414.563 122.833 305.305 125.528 289.626L195.591 305.55L196.081 303.835C197.305 299.426 198.285 296.241 198.775 294.281L266.633 320.738C266.878 376.592 295.295 581.88 298.235 603.438Z" fill="#030047"/>
<path d="M142.921 306.285C143.656 306.285 144.391 305.795 144.636 305.06C145.616 302.855 146.596 300.65 147.576 298.446C148.066 297.466 147.576 296.486 146.596 295.996C145.616 295.506 144.636 295.996 144.146 296.976C143.166 299.181 142.186 301.385 141.206 303.835C140.716 304.815 141.206 305.795 142.186 306.285C142.431 306.04 142.676 306.285 142.921 306.285Z" fill="#030047"/>
<path d="M73.1034 543.664C73.8383 543.664 74.3283 543.419 74.8182 542.684C77.268 538.52 79.7177 533.865 82.1674 528.966C82.6574 527.986 82.1675 527.006 81.4325 526.516C80.4526 526.026 79.4728 526.516 78.9828 527.251C76.5331 532.15 74.0833 536.56 71.6336 540.725C71.1436 541.704 71.3886 542.684 72.3685 543.174C72.6135 543.419 72.8584 543.664 73.1034 543.664ZM87.3118 515.982C88.0467 515.982 88.7817 515.492 89.0267 515.002C91.2314 510.348 93.1912 505.693 95.3959 500.794C95.8859 499.814 95.396 498.834 94.4161 498.344C93.4362 497.854 92.4563 498.344 91.9664 499.324C90.0066 504.224 87.8018 508.878 85.842 513.533C85.3521 514.512 85.842 515.492 86.8218 515.982C86.8218 515.737 87.0669 515.982 87.3118 515.982ZM99.3156 487.32C100.051 487.32 100.785 486.83 101.03 486.095C102.745 481.441 104.215 476.541 105.93 471.152C106.175 470.172 105.685 469.192 104.705 468.947C103.725 468.702 102.745 469.192 102.5 470.172C101.03 475.317 99.3155 480.461 97.8457 484.871C97.6007 485.85 98.0907 486.83 98.8256 487.32C98.8256 487.075 99.0706 487.32 99.3156 487.32ZM107.89 457.433C108.625 457.433 109.36 456.944 109.605 455.964C110.829 451.309 111.809 446.165 113.034 440.775C113.279 439.795 112.544 438.816 111.564 438.571C110.584 438.326 109.604 439.06 109.359 440.04C108.135 445.43 107.155 450.574 105.93 455.229C105.685 456.209 106.42 457.188 107.4 457.433C107.645 457.433 107.89 457.433 107.89 457.433ZM114.259 426.812C115.239 426.812 115.974 426.077 115.974 425.342C116.954 420.197 117.934 415.298 118.668 410.154C118.913 409.174 118.179 408.194 117.199 407.949C116.219 407.704 115.239 408.439 114.994 409.419C114.014 414.563 113.279 419.708 112.299 424.607C112.054 425.587 112.789 426.567 113.769 426.812C114.014 426.812 114.014 426.812 114.259 426.812ZM119.648 396.435C120.628 396.435 121.363 395.7 121.363 394.965C122.343 389.821 123.323 384.676 124.058 379.777C124.303 378.797 123.568 377.817 122.588 377.572C121.608 377.327 120.628 378.062 120.383 379.042C119.403 384.186 118.424 389.331 117.689 394.475C117.444 395.455 118.179 396.435 119.158 396.68C119.403 396.435 119.648 396.435 119.648 396.435ZM125.528 365.813C126.263 365.813 127.243 365.323 127.243 364.343C128.467 358.954 129.447 354.055 130.672 349.155C130.917 348.175 130.182 347.195 129.202 346.95C128.223 346.705 127.243 347.44 126.998 348.42C125.773 353.32 124.793 358.219 123.568 363.608C123.323 364.588 124.058 365.568 125.038 365.813C125.283 365.813 125.283 365.813 125.528 365.813ZM132.877 335.682C133.612 335.682 134.347 335.192 134.592 334.457C136.062 329.312 137.532 324.413 139.246 319.758C139.491 318.778 139.001 317.798 138.021 317.309C137.042 317.064 136.062 317.553 135.572 318.533C134.102 323.188 132.387 328.332 130.917 333.477C130.672 334.457 131.162 335.437 132.142 335.682C132.387 335.437 132.632 335.682 132.877 335.682Z" fill="#030047"/>
<path d="M60.3644 562.527C60.8544 562.527 61.3444 562.282 61.8344 562.037C61.8344 562.037 63.5491 560.078 66.4888 555.913C66.9787 555.178 66.9787 553.953 65.9988 553.463C65.2639 552.973 64.039 552.973 63.5491 553.953C60.8544 557.873 59.3846 559.588 59.1396 559.588C58.4047 560.323 58.4047 561.548 59.3846 562.283C59.6296 562.283 60.1195 562.527 60.3644 562.527Z" fill="#030047"/>
<path d="M281.821 634.55C288.19 630.14 294.56 625.731 300.929 621.321C300.439 620.586 299.949 620.096 299.459 619.361C293.09 623.771 286.721 628.18 280.596 632.345C279.371 633.325 280.596 635.285 281.821 634.55Z" fill="white"/>
<path d="M292.845 642.879C297.99 638.224 303.379 633.815 308.769 629.16C308.279 628.67 307.544 628.18 307.054 627.445C301.909 632.1 296.52 636.509 291.131 640.919C289.906 642.389 291.621 644.104 292.845 642.879Z" fill="white"/>
<path d="M192.406 425.587C193.141 425.587 193.876 425.097 194.121 424.362C199.265 411.868 205.145 358.954 206.37 349.4C208.819 349.155 214.944 348.175 225.968 345.97C226.947 345.725 227.682 344.746 227.437 343.766C227.192 342.786 226.212 342.051 225.232 342.296C210.289 345.235 204.655 345.97 204.655 345.97L203.185 346.215L202.94 347.685C202.94 348.42 196.081 410.154 190.936 423.137C190.446 424.117 190.936 425.097 191.916 425.587C191.916 425.587 192.161 425.587 192.406 425.587Z" fill="#030047"/>
<path d="M245.321 140.192C270.064 148.521 290.641 165.425 285.252 236.467C279.863 307.51 278.393 325.883 278.393 325.883L119.16 303.345C119.16 303.1 165.705 113.245 245.321 140.192Z" fill="#5F5FFF"/>
<path d="M280.107 327.843L280.352 325.883C280.352 325.638 282.067 306.775 287.212 236.467C292.356 168.365 274.473 148.032 246.056 138.478C232.337 133.823 218.619 135.293 205.39 142.397C149.781 173.019 118.669 297.221 117.445 302.61L116.955 304.57L280.107 327.843ZM244.831 141.907C266.389 149.257 288.926 162.975 283.537 236.222C279.127 294.281 277.413 317.309 276.923 323.678L121.609 301.63C125.774 285.462 156.641 173.509 207.105 145.827C219.354 138.968 232.092 137.743 244.831 141.907Z" fill="#5F5FFF"/>
<path d="M178.933 236.467C157.376 236.467 136.063 236.222 114.505 235.977C120.63 189.187 160.07 135.783 223.764 130.148V175.223C202.206 175.958 181.873 210.01 178.933 236.467Z" fill="#5F5FFF"/>
<path d="M180.648 238.182L180.893 236.467C183.832 210.01 203.92 177.429 224.008 176.694H225.723V127.944L223.763 128.189C159.825 133.823 118.914 187.717 112.79 235.732L112.545 237.692H114.505C135.572 237.937 157.375 238.182 178.933 238.182H180.648ZM222.048 173.264C200.98 175.714 181.138 207.315 177.463 234.507C157.13 234.507 136.797 234.263 116.709 234.018C123.569 188.697 162.275 138.478 222.048 132.108V173.264Z" fill="#5F5FFF"/>
<path d="M160.805 78.7043L144.147 34.119C137.287 15.746 161.295 6.6819 168.154 25.0549L184.567 68.9053C176.483 72.09 168.644 75.2746 160.805 78.7043Z" fill="#030047"/>
<path d="M398.185 667.866C401.369 666.641 402.839 662.967 401.614 660.027L386.671 622.056C385.446 618.872 381.771 617.402 378.832 618.627C375.647 619.852 374.177 623.526 375.402 626.466L390.346 664.437C391.325 667.621 395 669.091 398.185 667.866Z" fill="#030047"/>
<path d="M328.122 587.515L142.922 91.1975C126.264 47.3471 194.612 21.135 211.27 65.2303L396.47 561.547C404.799 583.595 406.024 638.469 389.121 645.083C371.728 651.698 336.451 609.562 328.122 587.515Z" fill="white"/>
<path d="M384.956 647.534C386.426 647.534 388.141 647.289 389.366 646.799C407.984 639.694 406.514 583.595 397.94 561.058L212.739 64.7406C203.675 40.9782 180.893 37.0586 163.745 43.6729C146.352 50.2872 131.898 68.1704 140.962 91.9328L326.162 588.25C330.572 599.764 341.596 615.687 353.844 628.426C361.194 636.02 374.422 647.534 384.956 647.534ZM178.933 44.4078C191.182 44.4078 203.43 50.5321 209.31 65.9655L394.51 562.283C403.329 585.555 403.084 637.734 388.141 643.369C381.526 645.819 369.523 639.449 356.294 625.731C344.535 613.727 333.512 597.804 329.592 587.025L144.392 90.7079C136.308 69.1502 149.291 52.9819 164.97 47.1025C169.379 45.3877 174.279 44.4078 178.933 44.4078Z" fill="#030047"/>
<path d="M215.189 76.2543L223.518 98.7919C200.98 108.101 178.443 117.41 156.15 126.964L147.576 103.691C169.869 94.3824 192.406 85.0733 215.189 76.2543Z" fill="#030047"/>
<path d="M338.41 606.378C333.756 599.519 330.081 592.904 328.121 587.515L266.143 421.668C288.681 412.359 311.218 403.294 334.246 394.965L396.469 561.793C397.939 565.957 399.409 571.347 400.389 577.226C379.811 587.27 359.233 597.069 338.41 606.378Z" fill="#030047"/>
<path d="M128.714 194.332C146.842 203.886 164.725 213.685 181.138 225.934C176.974 241.612 177.464 256.556 185.548 263.415C196.327 272.724 211.76 271.989 226.948 266.844C231.358 241.612 244.342 234.998 258.06 229.853C268.839 225.934 269.574 236.468 252.916 248.961L252.671 254.596C256.59 252.391 260.02 249.941 263.204 247.736C283.782 233.038 285.742 250.186 285.742 250.186C299.216 251.411 295.051 265.619 295.051 265.619C303.87 275.663 302.155 281.298 262.225 310.94C216.17 344.991 129.204 342.296 114.995 263.17C111.076 242.347 115.975 217.115 128.714 194.332Z" fill="white"/>
<path d="M197.551 333.722C220.823 333.722 244.831 326.373 263.204 312.654C291.376 291.587 300.44 283.012 301.175 275.418C301.665 271.499 299.46 268.314 297.01 265.374C297.5 263.17 298.235 257.78 295.295 253.616C293.581 250.921 290.886 249.451 286.966 248.716C286.476 246.511 285.007 242.592 281.087 240.877C276.433 238.672 270.063 240.632 261.979 246.266C259.529 247.981 257.08 249.696 254.385 251.166V249.696C264.184 242.102 269.083 234.018 266.633 229.363C265.899 228.138 263.449 225.444 257.079 227.893C242.871 233.283 229.642 240.142 224.988 265.129C208.085 270.274 195.101 269.294 186.282 261.7C179.423 255.82 177.953 242.592 182.607 225.934L182.852 224.709L181.873 223.974C164.479 211.235 145.616 200.946 129.203 192.372L127.488 191.637L126.508 193.107C113.77 216.38 108.625 241.857 112.545 263.415C119.649 302.61 143.412 319.759 161.785 327.108C173.298 331.517 185.302 333.722 197.551 333.722ZM277.167 244.062C278.147 244.062 279.127 244.307 279.862 244.552C283.292 246.021 283.782 250.676 283.782 250.676L284.027 252.146L285.497 252.391C288.681 252.636 291.131 253.861 292.356 255.82C294.805 259.495 293.336 265.374 293.336 265.374L293.091 266.354L293.826 267.089C297.01 270.519 297.99 272.724 297.745 275.173C297.01 281.298 287.456 290.362 261.244 309.715C234.052 330.047 193.876 335.927 163.989 323.923C146.351 316.819 123.814 300.651 116.955 263.17C113.28 242.837 117.934 218.829 129.693 196.782C145.371 204.866 163.01 214.665 179.423 226.669C174.768 244.307 176.728 258.27 184.567 264.884C194.611 273.459 209.555 274.683 227.928 268.804L228.907 268.559L229.153 267.579C233.317 243.572 245.076 237.202 259.039 232.058C261.979 230.833 263.694 231.323 264.184 232.058C265.164 233.528 263.204 239.897 252.18 248.226L251.445 248.716L251.2 258.515L254.14 256.8C257.814 254.596 261.489 252.146 264.674 249.941C269.573 245.777 273.983 244.062 277.167 244.062Z" fill="#030047"/>
<path d="M277.168 259.005C279.617 257.045 281.332 254.595 282.312 251.411C282.802 249.941 285.007 250.431 284.762 252.146C283.782 255.575 281.822 258.515 279.127 260.72C277.658 261.7 275.943 259.985 277.168 259.005Z" fill="#030047"/>
<path d="M286.232 273.948C289.171 273.214 291.376 271.009 292.111 268.069C292.601 266.599 294.806 267.089 294.561 268.804C293.581 272.479 290.641 275.418 286.967 276.398C285.252 276.643 284.517 274.193 286.232 273.948Z" fill="#030047"/>
<path d="M304.604 338.621C317.098 307.999 320.527 260.229 276.677 211.97C274.962 210.255 273.492 208.54 272.023 206.825C267.613 186.492 262.224 166.649 252.915 147.786C254.384 145.582 255.854 144.602 255.854 144.602C299.46 164.445 356.294 195.311 372.462 276.888C382.751 327.842 364.378 369.978 338.165 387.126C321.997 397.66 309.014 411.623 299.705 407.949C299.705 407.949 288.436 409.664 281.332 398.15C281.332 398.15 269.573 397.905 270.798 386.391C271.533 380.267 278.637 371.938 285.986 363.363L281.576 360.669C273.982 367.283 258.304 372.672 262.468 360.424C266.633 349.4 280.107 342.296 304.604 338.621Z" fill="white"/>
<path d="M303.135 410.399C309.994 410.399 317.833 404.519 326.652 397.66C330.572 394.72 334.736 391.536 339.391 388.596C364.623 371.938 385.446 330.782 374.422 276.398C358.989 199.231 308.769 166.65 256.835 142.887L255.855 142.397L255.12 142.887C254.875 142.887 253.405 144.112 251.69 146.562L250.955 147.542L251.445 148.522C261.244 168.364 266.389 189.187 270.308 207.07V207.56L270.553 207.805C272.023 209.52 273.493 211.235 275.208 213.195C323.467 266.599 311.219 316.819 303.135 336.907C278.392 340.581 264.919 348.175 260.999 359.934C259.284 365.078 260.754 367.528 262.469 368.753C266.878 371.693 276.432 367.528 282.067 363.119L283.782 364.099C276.432 372.428 270.063 380.267 269.573 386.391C269.083 390.311 270.063 393.495 272.268 395.945C274.963 399.13 279.127 399.865 280.842 400.11C287.456 410.399 297.5 410.154 299.95 410.154C300.93 410.154 302.155 410.399 303.135 410.399ZM256.345 146.807C307.054 170.079 355.804 202.171 370.992 277.133C381.526 329.557 360.949 370.223 337.431 385.656C332.777 388.596 328.612 391.781 324.447 394.965C314.648 402.314 306.319 408.684 300.44 406.479L299.95 406.234H299.46C298.97 406.234 289.171 407.459 283.047 397.17L282.557 396.19H281.577C281.577 396.19 277.167 395.945 274.473 393.251C273.003 391.536 272.513 389.331 272.758 386.636C273.248 381.247 280.352 372.918 287.701 364.589L289.171 362.874L281.577 358.464L280.597 359.444C274.963 364.343 266.633 367.283 264.429 365.813C263.204 365.078 263.939 362.384 264.429 361.404C267.858 350.87 281.087 344.011 304.604 340.581L305.584 340.336L306.074 339.356C314.403 319.268 328.122 266.599 277.902 210.745C276.432 209.03 274.963 207.56 273.738 205.846C270.063 188.207 264.674 167.629 255.12 148.032C255.61 147.542 256.1 147.052 256.345 146.807Z" fill="#030047"/>
<path d="M301.665 248.716C296.031 236.712 287.947 228.628 276.678 216.379C274.963 214.664 272.758 216.379 271.288 214.419C266.879 194.086 262.469 166.404 253.16 147.786C254.63 145.582 256.1 144.602 256.1 144.602C284.762 157.585 319.303 175.713 344.046 209.765C330.327 222.993 315.874 235.732 301.665 248.716Z" fill="#5F5FFF"/>
<path d="M300.93 251.656L302.645 249.941C305.585 247.246 308.524 244.796 311.219 242.102C322.488 232.058 334.001 221.524 345.025 210.99L346.25 209.765L345.27 208.54C321.018 175.469 288.436 157.341 256.59 142.887L255.61 142.397L254.875 142.887C254.63 142.887 253.16 144.112 251.445 146.562L250.71 147.542L251.2 148.522C258.795 163.955 263.204 185.268 267.124 204.131C267.859 207.805 268.593 211.235 269.328 214.665V215.154L269.573 215.399C270.798 216.869 272.513 216.869 273.493 216.869C274.473 216.869 274.718 216.869 274.963 217.114C276.433 218.584 277.657 220.054 279.127 221.524C288.191 231.568 294.806 238.672 299.705 248.961L300.93 251.656ZM341.596 209.52C331.062 219.809 319.793 229.853 309.014 239.407C306.809 241.367 304.36 243.571 302.155 245.531C297.255 235.977 290.396 228.628 282.067 219.319C280.842 217.849 279.372 216.379 277.902 214.909C276.433 213.44 274.963 213.44 273.738 213.44C273.248 213.44 273.003 213.44 272.758 213.44C272.023 210.255 271.533 207.07 270.798 203.641C267.124 185.023 262.714 163.71 255.12 148.032C255.61 147.542 255.855 147.052 256.345 146.807C286.966 160.77 318.323 178.163 341.596 209.52Z" fill="#5F5FFF"/>
<path d="M282.801 396.68C287.701 387.616 293.335 378.797 299.705 370.468C300.684 369.243 302.889 370.468 301.909 371.693C295.54 380.022 290.151 388.596 285.006 397.905C284.026 399.375 282.066 398.15 282.801 396.68Z" fill="#030047"/>
<path d="M297.011 405.254C301.42 394.965 308.034 386.146 317.098 379.532C318.323 378.552 319.548 380.757 318.323 381.736C309.749 387.861 303.38 396.19 299.215 405.989C298.725 407.214 296.521 406.724 297.011 405.254Z" fill="#030047"/>
<path d="M286.476 219.319C287.456 219.319 288.191 218.584 288.191 217.849L290.641 203.641C290.886 202.661 290.151 201.681 289.171 201.436C288.191 201.191 287.211 201.926 286.966 202.906L284.517 217.114C284.272 218.094 285.007 219.074 285.987 219.319C286.476 219.319 286.476 219.319 286.476 219.319Z" fill="#030047"/>
<path d="M418.027 669.091C418.517 669.091 419.252 668.847 419.497 668.357L463.347 605.888C463.837 605.153 463.837 603.928 462.857 603.439C462.123 602.949 460.898 602.949 460.408 603.928L416.557 666.397C416.068 667.132 416.068 668.357 417.047 668.847C417.292 669.092 417.782 669.091 418.027 669.091Z" fill="#5F5FFF"/>
<path d="M436.4 669.091C436.645 669.091 437.135 669.092 437.38 668.847L469.227 647.289C469.962 646.799 470.207 645.574 469.717 644.839C469.227 644.104 468.002 643.859 467.267 644.349L435.421 665.907C434.686 666.397 434.441 667.622 434.931 668.357C435.176 668.847 435.665 669.091 436.4 669.091Z" fill="#5F5FFF"/>
<path d="M235.521 99.0369C235.766 90.4628 244.34 85.3183 253.894 89.9728C255.364 90.7077 256.588 91.6877 258.058 92.9125C258.058 92.9125 258.058 92.9126 258.303 92.6676C271.777 78.4591 293.09 76.4993 305.828 88.503C318.567 100.507 315.627 119.86 304.848 136.273C294.804 150.971 273.982 158.811 257.323 140.438C251.934 134.313 248.749 126.229 248.504 117.9C239.685 115.205 235.521 106.631 235.521 99.0369Z" fill="white"/>
<path d="M278.882 153.176C279.616 153.176 280.106 153.176 280.841 153.176C290.64 152.441 299.949 146.562 306.074 137.498C318.812 118.635 319.057 99.0367 306.809 87.5229C300.194 81.3985 291.375 78.4589 281.821 79.1939C272.757 79.9288 264.428 84.0934 257.814 90.7077C256.834 89.9727 255.609 89.2377 254.629 88.7478C249.485 86.053 244.095 86.0531 239.931 88.5028C236.256 90.7076 233.806 94.6272 233.806 99.2818C233.561 106.631 237.481 115.94 246.79 119.615C247.28 127.944 250.464 135.783 255.854 141.907C264.183 150.971 272.757 153.176 278.882 153.176ZM285.251 82.6234C292.6 82.6234 299.459 85.3181 304.604 89.9726C317.832 102.466 312.198 122.064 303.379 135.293C297.745 143.622 289.415 148.766 280.841 149.256C272.757 149.746 265.163 146.317 258.794 139.212C253.649 133.578 250.71 125.984 250.465 117.9V116.675L249.24 116.185C241.156 113.49 237.481 105.406 237.726 99.0367C237.726 95.852 239.441 92.9124 242.135 91.4426C245.32 89.4828 249.485 89.7277 253.404 91.6875C254.629 92.4224 255.854 93.1574 257.324 94.3823L258.549 95.6071L259.774 94.3823C266.143 87.768 274.227 83.6034 282.801 82.8685C283.291 82.6235 284.271 82.6234 285.251 82.6234Z" fill="#030047"/>
<path d="M283.975 120.102C283.422 118.867 283.975 117.418 285.21 116.865C286.445 116.312 287.894 116.865 288.447 118.099C289 119.334 288.447 120.784 287.212 121.337C285.977 121.889 284.528 121.337 283.975 120.102Z" fill="#030047"/>
<path d="M292.11 138.968C295.294 134.558 297.744 129.659 299.704 124.515C300.194 123.045 297.989 122.065 297.499 123.535C295.784 128.434 293.335 133.089 290.395 137.498C289.17 138.723 291.13 140.193 292.11 138.968Z" fill="#030047"/>
<path d="M309.014 109.081C301.664 106.386 279.127 86.7884 270.553 100.997C268.348 104.671 268.348 107.611 264.183 106.631C260.264 104.917 260.999 100.017 260.999 100.017C258.059 95.8525 257.079 91.6879 253.894 89.973C245.075 75.7646 266.878 58.1266 279.127 68.6604C279.127 68.6604 306.319 62.046 314.158 78.9492C328.122 84.5836 333.266 95.3626 330.326 105.407C325.182 122.555 309.014 109.081 309.014 109.081Z" fill="#030047"/>
<path d="M255.609 107.611C255.854 101.732 252.179 96.5873 246.545 94.8725C245.075 94.3825 244.095 96.8323 245.565 97.0773C249.975 98.3022 253.159 102.467 252.914 107.121C253.159 109.081 255.609 109.326 255.609 107.611Z" fill="#030047"/>
</g>
<defs>
<clipPath id="clip0">
<rect width="730" height="684" fill="white"/>
</clipPath>
</defs>
</svg>
