<svg width="24" height="24" viewBox="0 0 24 24" fill="none" xmlns="http://www.w3.org/2000/svg">
<path d="M12 24C18.6274 24 24 18.6274 24 12C24 5.37258 18.6274 0 12 0C5.37258 0 0 5.37258 0 12C0 18.6274 5.37258 24 12 24Z" fill="#1769FF"/>
<path d="M8.47759 6.5625C8.99502 6.5625 9.46734 6.60858 9.89454 6.69978C10.3217 6.79098 10.6865 6.94074 10.9908 7.14906C11.2952 7.35738 11.5313 7.63385 11.6993 7.97945C11.8673 8.32505 11.9508 8.75129 11.9508 9.25913C11.9508 9.80728 11.826 10.2642 11.5774 10.63C11.3288 10.9958 10.9601 11.2953 10.4734 11.5286C11.1435 11.7215 11.6436 12.0594 11.9739 12.5413C12.3041 13.0233 12.4692 13.605 12.4692 14.2857C12.4692 14.8338 12.3627 15.309 12.1496 15.7103C11.9364 16.1116 11.6494 16.4389 11.2884 16.6924C10.9275 16.9468 10.5166 17.134 10.0549 17.2559C9.59022 17.3778 9.11118 17.4392 8.63119 17.4383H3.35986V6.5625H8.47759ZM8.17327 10.9641C8.59951 10.9641 8.9499 10.8623 9.22446 10.6598C9.49902 10.4562 9.6363 10.127 9.63534 9.67C9.63534 9.41656 9.58926 9.20825 9.49806 9.04601C9.40686 8.88377 9.28494 8.75609 9.1323 8.66489C8.97966 8.57369 8.80494 8.51033 8.60719 8.47481C8.40367 8.43929 8.19727 8.42105 7.98991 8.42201H5.75217V10.966L8.17327 10.9641ZM8.31055 15.5788C8.53615 15.5797 8.76079 15.5567 8.98062 15.5106C9.19374 15.4645 9.3819 15.3887 9.54414 15.2821C9.70638 15.1756 9.83598 15.0306 9.93294 14.8482C10.0289 14.6658 10.0779 14.4316 10.0779 14.1474C10.0779 13.5897 9.92046 13.1903 9.60558 12.9522C9.2907 12.7132 8.87406 12.5941 8.35663 12.5941H5.75217V15.5797L8.31055 15.5788ZM15.4779 15.3503C15.8023 15.6652 16.2699 15.8226 16.8794 15.8226C17.3162 15.8226 17.6916 15.7132 18.0065 15.4952C18.3214 15.2773 18.5143 15.046 18.5854 14.8021H20.489C20.1847 15.7468 19.7172 16.4216 19.0874 16.8277C18.4577 17.2338 17.6964 17.4373 16.8026 17.4373C16.1835 17.4373 15.6247 17.3384 15.1275 17.1407C14.6302 16.9429 14.2087 16.6607 13.8631 16.2949C13.5176 15.9292 13.2507 15.4933 13.0635 14.9855C12.8763 14.4777 12.7822 13.9189 12.7822 13.3103C12.7822 12.7218 12.8782 12.1737 13.0712 11.6658C13.2641 11.158 13.5387 10.7193 13.8939 10.3487C14.2491 9.97816 14.6734 9.68632 15.1659 9.4732C15.6583 9.26009 16.2046 9.15353 16.8036 9.15353C17.4737 9.15353 18.0574 9.28313 18.5556 9.54232C19.0529 9.80152 19.4618 10.149 19.7815 10.5858C20.1012 11.0226 20.3325 11.5199 20.4746 12.0786C20.6167 12.6373 20.6676 13.221 20.6273 13.8306H14.946C14.9758 14.5285 15.1534 15.0364 15.4779 15.3503ZM17.923 11.2079C17.6638 10.9238 17.2702 10.7817 16.7422 10.7817C16.3966 10.7817 16.1095 10.8402 15.882 10.9564C15.6535 11.0735 15.4711 11.2175 15.3339 11.3903C15.1966 11.5631 15.1006 11.7455 15.0449 11.9385C14.9892 12.1314 14.9556 12.3042 14.946 12.4559H18.4644C18.3617 11.9087 18.1812 11.4921 17.923 11.2079ZM14.5755 7.1145H18.9713V8.33369H14.5755V7.1145Z" fill="white"/>
</svg>
