<svg width="80" height="60" viewBox="0 0 80 60" fill="none" xmlns="http://www.w3.org/2000/svg">
<g clip-path="url(#clip0)">
<path d="M80 39.3386C80 61.0647 62.0914 59.9913 40 59.9913C17.9086 59.9913 0 61.0647 0 39.3386C0 17.6125 17.9086 -3.75162e-06 40 -3.75162e-06C62.0914 -3.75162e-06 80 17.6125 80 39.3386Z" fill="#43BEDF" fill-opacity="0.1"/>
<path d="M39.5 40C45.0234 40 49.5 35.5234 49.5 30C49.5 24.4766 45.0234 20 39.5 20C33.9766 20 29.5 24.4766 29.5 30C29.5 35.5234 33.9766 40 39.5 40ZM46.9844 42.5469L43.25 57.5L40.75 46.875L43.25 42.5H35.75L38.25 46.875L35.75 57.5L32.0156 42.5469C26.4453 42.8125 22 47.3672 22 53V56.25C22 58.3203 23.6797 60 25.75 60H53.25C55.3203 60 57 58.3203 57 56.25V53C57 47.3672 52.5547 42.8125 46.9844 42.5469Z" fill="#43BEDF" stroke="white" stroke-width="1.5"/>
</g>
<defs>
<clipPath id="clip0">
<rect width="80" height="60" fill="white"/>
</clipPath>
</defs>
</svg>
