<svg width="14" height="18" viewBox="0 0 14 18" fill="none" xmlns="http://www.w3.org/2000/svg">
<path d="M12.0625 2.25H9.25C9.25 1.00898 8.24102 0 7 0C5.75898 0 4.75 1.00898 4.75 2.25H1.9375C1.00586 2.25 0.25 3.00586 0.25 3.9375V16.3125C0.25 17.2441 1.00586 18 1.9375 18H12.0625C12.9941 18 13.75 17.2441 13.75 16.3125V3.9375C13.75 3.00586 12.9941 2.25 12.0625 2.25ZM7 1.40625C7.46758 1.40625 7.84375 1.78242 7.84375 2.25C7.84375 2.71758 7.46758 3.09375 7 3.09375C6.53242 3.09375 6.15625 2.71758 6.15625 2.25C6.15625 1.78242 6.53242 1.40625 7 1.40625ZM11.2609 9.55547L6.23359 14.5406C6.06836 14.7059 5.80117 14.7023 5.63594 14.5371L2.73203 11.6086C2.5668 11.4434 2.57031 11.1762 2.73555 11.0109L3.73398 10.0195C3.89922 9.8543 4.16641 9.85781 4.33164 10.023L5.94883 11.6543L9.67539 7.95586C9.84062 7.79063 10.1078 7.79414 10.273 7.95937L11.2645 8.95781C11.4297 9.12656 11.4262 9.39023 11.2609 9.55547Z" fill="#0057FF"/>
</svg>
