<svg width="156" height="28" viewBox="0 0 156 28" fill="none" xmlns="http://www.w3.org/2000/svg">
<g clip-path="url(#clip0)">
<path fill-rule="evenodd" clip-rule="evenodd" d="M20.1776 17.568C20.1944 19.0204 19.9248 20.4618 19.3854 21.8103C18.8921 23.0403 18.1586 24.1593 17.2273 25.102C16.3109 26.0167 15.2227 26.7416 14.0254 27.2346C12.7784 27.7431 11.4431 27.999 10.0964 27.9873C8.77188 27.9974 7.45855 27.7429 6.23358 27.239C5.00861 26.7352 3.89637 25.9921 2.96235 25.0529C2.0319 24.1072 1.29469 22.9885 0.792138 21.7607C0.254479 20.4248 -0.0144395 18.9965 0.000597501 17.5565V0H5.05168V9.22912C5.33259 8.87263 5.66613 8.56123 6.04127 8.30576C6.43095 8.03316 6.85379 7.81082 7.29894 7.64349C7.75156 7.47192 8.21833 7.34061 8.69417 7.25186C9.15879 7.16208 9.63083 7.11586 10.104 7.11367C11.4317 7.10194 12.7478 7.35977 13.9732 7.87083C15.1986 8.38189 16.3077 9.13593 17.2336 10.0875C18.1562 11.0454 18.8894 12.1695 19.3937 13.4001C19.9229 14.7255 20.1892 16.1409 20.1776 17.568ZM15.1055 17.568C15.1157 16.8389 14.983 16.1152 14.7145 15.4373C14.4666 14.8056 14.1008 14.2266 13.637 13.7313C13.182 13.2568 12.6405 12.8732 12.0418 12.6016C11.4307 12.331 10.7698 12.1919 10.1015 12.1934C9.42688 12.1884 8.76058 12.3454 8.15926 12.6513C7.5573 12.9475 7.01673 13.354 6.56471 13.8497C6.10571 14.3512 5.74276 14.9329 5.49489 15.5659C5.23644 16.2017 5.10383 16.8817 5.1039 17.568C5.09811 18.2937 5.23065 19.0139 5.49489 19.6898C5.73468 20.3206 6.0987 20.8975 6.56471 21.3856C7.01668 21.8639 7.55828 22.2478 8.15926 22.5159C8.76973 22.79 9.43167 22.9317 10.1009 22.9317C10.77 22.9317 11.4313 22.79 12.0418 22.5159C12.6403 22.2435 13.1818 21.8601 13.637 21.3856C14.1012 20.8946 14.4671 20.3186 14.7145 19.6898C14.9785 19.0138 15.1111 18.2937 15.1055 17.568Z" fill="#0057FF"/>
<path fill-rule="evenodd" clip-rule="evenodd" d="M28.0343 27.6308H22.9616V0.000793457H28.0343V27.6308Z" fill="#0057FF"/>
<path fill-rule="evenodd" clip-rule="evenodd" d="M46.3742 25.3202C45.962 25.6915 45.5294 26.0395 45.079 26.3633C44.6216 26.6883 44.1368 26.9734 43.6309 27.216C43.1304 27.4514 42.6115 27.6444 42.0784 27.7917C41.5446 27.9297 40.9957 27.9994 40.4444 27.9999C39.2698 28.005 38.1054 27.7836 37.0146 27.3478C35.9641 26.9359 35.008 26.3148 34.205 25.5221C33.3813 24.6955 32.7337 23.7103 32.301 22.6266C31.8246 21.4076 31.5895 20.1081 31.6094 18.7994V7.86624H36.6185V18.7899C36.6063 19.3988 36.7112 20.0046 36.9267 20.5742C37.1112 21.0638 37.3903 21.5126 37.7482 21.8943C38.0901 22.248 38.5026 22.5247 38.9593 22.7075C39.4316 22.896 39.9372 22.9905 40.4456 22.9845C40.9557 22.9851 41.4585 22.863 41.9115 22.6285C42.3705 22.3883 42.7805 22.0645 43.1215 21.6746C43.4656 21.2786 43.7393 20.8266 43.9302 20.3379C44.1269 19.8492 44.2277 19.3276 44.2282 18.8007V7.86752H49.2627V27.6337H48.0401L46.3742 25.3202Z" fill="#0057FF"/>
<path fill-rule="evenodd" clip-rule="evenodd" d="M60.9352 22.7923C61.1292 22.851 61.3284 22.8906 61.53 22.9108C61.73 22.9308 61.9287 22.9403 62.126 22.9394C62.6067 22.9417 63.0849 22.8722 63.5448 22.7325C63.9954 22.5993 64.424 22.4019 64.8184 22.1466C65.2204 21.8959 65.5816 21.5844 65.8882 21.2233C66.2035 20.8624 66.4612 20.4553 66.6524 20.0159L70.3395 23.7233C69.876 24.3843 69.3334 24.9865 68.7246 25.5166C68.1231 26.0427 67.4615 26.4956 66.753 26.8653C66.0465 27.2363 65.2971 27.5193 64.5217 27.7078C63.7344 27.8995 62.9261 27.9969 62.1159 27.9975C60.7916 28.0065 59.4789 27.7514 58.2543 27.2474C57.0297 26.7433 55.918 25.9998 54.9837 25.0612C54.0564 24.113 53.3196 22.9956 52.8135 21.7696C52.2751 20.4349 52.0067 19.0072 52.0226 17.568C52.0037 16.1028 52.2719 14.6478 52.8135 13.2862C53.2955 12.0648 54.0209 10.9544 54.9455 10.022C55.8701 9.08955 56.9746 8.35427 58.1919 7.86196C59.4372 7.35376 60.7709 7.09842 62.1159 7.1099C63.7369 7.11169 65.334 7.50572 66.7696 8.25868C68.2048 9.01434 69.4411 10.0976 70.379 11.421L60.9352 22.7923ZM63.5194 12.4036C63.2962 12.3213 63.0639 12.2643 62.8278 12.2349C62.5912 12.2098 62.3537 12.1967 62.1159 12.1947C61.4505 12.191 60.7918 12.3192 60.1762 12.5717C59.576 12.8162 59.0333 13.1847 58.5854 13.653C58.1276 14.1415 57.7687 14.7136 57.5271 15.338C57.2646 16.0472 57.1351 16.7984 57.145 17.5547C57.145 17.7438 57.1444 17.9459 57.1718 18.1794C57.1991 18.4128 57.2231 18.6474 57.2609 18.8926C57.3017 19.127 57.3553 19.3593 57.4214 19.588C57.4731 19.7959 57.5521 19.9959 57.657 20.1827L63.5194 12.4036Z" fill="#0057FF"/>
<path d="M92.6682 17.568C92.683 19.0199 92.4144 20.4608 91.8786 21.8103C91.3821 23.0395 90.647 24.1582 89.716 25.102C88.8031 26.0185 87.7187 26.7438 86.5218 27.2346C85.2729 27.7417 83.9342 27.9976 82.5864 27.9873C81.2392 27.9963 79.9043 27.7329 78.6612 27.2136C77.4592 26.7121 76.3685 25.978 75.4517 25.0529C74.5252 24.1045 73.7892 22.9865 73.284 21.7607C72.7487 20.4242 72.4826 18.9962 72.497 17.5565V0H77.5506V9.22912C77.8291 8.87371 78.1597 8.5624 78.5313 8.30576C78.9237 8.03394 79.3478 7.81168 79.7947 7.64349C80.2463 7.47152 80.7103 7.34019 81.1854 7.25186C81.6471 7.16273 82.1162 7.11651 82.5864 7.11367C83.9373 7.10172 85.2783 7.36821 86.5218 7.8963C87.7238 8.40432 88.8086 9.14973 89.716 10.0875C91.651 12.0944 92.7147 14.7856 92.6707 17.5731L92.6682 17.568ZM87.5993 17.568C87.6162 16.1475 87.0886 14.7746 86.1244 13.7313C85.6688 13.2564 85.127 12.8727 84.5274 12.6016C83.9166 12.33 83.2548 12.1909 82.5864 12.1934C81.9123 12.1891 81.2465 12.3461 80.6454 12.6513C80.0457 12.9511 79.5058 13.3571 79.0509 13.8497C78.5893 14.3497 78.2253 14.9318 77.9785 15.5659C77.7207 16.2019 77.5868 16.8818 77.5862 17.568C77.5811 18.2937 77.7149 19.0137 77.9785 19.6898C78.461 20.9461 79.4192 21.9615 80.6454 22.5159C81.2559 22.7892 81.9175 22.9314 82.5864 22.9324C83.2558 22.9366 83.9185 22.7942 84.5274 22.5159C85.1268 22.2439 85.6685 21.8605 86.1244 21.3856C87.0886 20.3507 87.6167 18.9836 87.5993 17.5693V17.568Z" fill="#1D1D1D"/>
<path d="M114.578 27.631H113.368L111.412 24.9144C110.925 25.3456 110.415 25.7489 109.884 26.1231C109.35 26.4974 108.786 26.8259 108.197 27.105C107.613 27.3785 107.003 27.5968 106.379 27.7571C105.762 27.9156 105.13 27.9956 104.494 27.9946C103.154 28.0022 101.822 27.7634 100.568 27.2903C99.3697 26.8372 98.2772 26.1421 97.359 25.2481C96.4205 24.3174 95.6827 23.2045 95.1913 21.9775C94.6394 20.5738 94.3724 19.0744 94.4017 17.5664C94.381 16.1167 94.6482 14.6773 95.1913 13.333C95.6823 12.0935 96.4198 10.9671 97.359 10.021C98.2745 9.09702 99.3657 8.36525 100.568 7.86987C101.811 7.35365 103.148 7.09419 104.494 7.10699C105.135 7.10821 105.774 7.18809 106.396 7.34451C107.027 7.50258 107.636 7.72623 108.22 8.01124C108.807 8.29506 109.37 8.62582 109.904 9.00083C110.435 9.37886 110.94 9.79307 111.414 10.24L113.371 7.8998H114.581L114.578 27.631ZM109.507 17.5702C109.511 16.8827 109.377 16.2016 109.114 15.5662C108.858 14.9363 108.493 14.356 108.037 13.8513C107.583 13.3558 107.04 12.9488 106.437 12.6522C105.835 12.3529 105.171 12.1976 104.499 12.1976C103.836 12.1949 103.178 12.3119 102.558 12.544C101.962 12.7707 101.422 13.122 100.973 13.5743C100.508 14.0579 100.146 14.6318 99.9113 15.2606C99.395 16.7508 99.395 18.3718 99.9113 19.8621C100.144 20.4915 100.506 21.0654 100.973 21.547C101.419 22.0029 101.96 22.3547 102.558 22.5774C103.177 22.8147 103.836 22.9319 104.499 22.9238C105.172 22.9283 105.837 22.7723 106.437 22.4678C107.041 22.1715 107.583 21.7651 108.037 21.2694C108.493 20.7657 108.858 20.185 109.114 19.5551C109.377 18.9262 109.511 18.2507 109.507 17.5689V17.5702Z" fill="#1D1D1D"/>
<path d="M129.256 27.6253H117.753V22.6098H129.256C129.42 22.6146 129.583 22.5845 129.735 22.5213C129.887 22.4581 130.023 22.363 130.135 22.243C130.252 22.1277 130.346 21.9902 130.41 21.8387C130.474 21.6871 130.506 21.5249 130.507 21.3604C130.526 21.219 130.499 21.0753 130.433 20.9491C130.366 20.8229 130.262 20.7204 130.135 20.6561C129.857 20.5396 129.558 20.4825 129.256 20.488H124.017C123.189 20.4918 122.368 20.3296 121.604 20.0111C120.84 19.6925 120.149 19.2237 119.569 18.633C119.002 18.0555 118.548 17.3768 118.232 16.6316C117.906 15.853 117.743 15.0156 117.753 14.1716C117.741 12.9376 118.099 11.7283 118.777 10.6973C119.455 9.66624 120.423 8.86027 121.561 8.3825C122.338 8.05358 123.176 7.88832 124.019 7.89726H134.21V12.9146H124.019C123.688 12.9163 123.371 13.0487 123.138 13.2827C122.904 13.5166 122.772 13.8333 122.771 14.164C122.767 14.3331 122.797 14.5012 122.86 14.6581C122.923 14.8151 123.015 14.9578 123.135 15.0772C123.249 15.1966 123.386 15.2915 123.538 15.3561C123.689 15.4207 123.854 15.4531 124.019 15.4522H129.259C130.091 15.4487 130.917 15.5967 131.696 15.8891C132.43 16.1606 133.103 16.5719 133.681 17.0996C134.251 17.6249 134.71 18.2592 135.031 18.9648C135.371 19.7109 135.542 20.5231 135.53 21.3432C135.532 22.1848 135.362 23.0178 135.031 23.7911C134.71 24.534 134.252 25.2101 133.681 25.783C133.101 26.3674 132.412 26.8309 131.653 27.1477C130.894 27.4644 130.079 27.6275 129.256 27.6278V27.6253Z" fill="#1D1D1D"/>
<path d="M143.234 27.6308H138.198V0.000793457H143.234V8.73894C143.789 8.30352 144.419 7.974 145.094 7.76719C145.728 7.57736 146.387 7.48146 147.05 7.4819C148.208 7.47706 149.354 7.70392 150.422 8.1499C151.491 8.59589 152.459 9.25159 153.27 10.0781C154.068 10.8944 154.707 11.8524 155.153 12.903C155.617 13.9904 155.853 15.1623 155.843 16.3449V27.6347H150.774V16.3449H150.81C150.813 15.8404 150.709 15.3408 150.509 14.8777C150.32 14.4264 150.048 14.0153 149.704 13.6671C149.361 13.3207 148.951 13.0443 148.502 12.8533C148.043 12.6543 147.55 12.553 147.05 12.5559C146.547 12.553 146.048 12.6501 145.583 12.8406C145.117 13.031 144.694 13.3112 144.337 13.6658C143.983 14.0157 143.702 14.4331 143.512 14.893C143.322 15.3528 143.224 15.8459 143.227 16.3436V27.6334L143.234 27.6308Z" fill="#1D1D1D"/>
</g>
<defs>
<clipPath id="clip0">
<rect width="155.843" height="28" fill="white"/>
</clipPath>
</defs>
</svg>
