<svg width="160" height="156" viewBox="0 0 160 156" fill="none" xmlns="http://www.w3.org/2000/svg">
<g clip-path="url(#clip0)">
<g filter="url(#filter0_d)">
<rect width="160" height="156" fill="white"/>
<rect x="0.5" y="0.5" width="159" height="155" stroke="#E5E8ED"/>
</g>
<path d="M63.2046 112H66.3899V132H63.2046V112ZM77.5384 125.62C77.5384 128.681 74.9766 128.925 74.2145 128.925C72.3105 128.925 71.9641 127.134 71.9641 126.054V118.4H68.7788V126.038C68.7788 127.934 69.3713 129.499 70.4097 130.542C71.3271 131.465 72.7015 131.969 74.1906 131.969C75.2466 131.969 76.742 131.638 77.5384 130.908V132H80.7236V118.4H77.5384V125.62ZM87.0942 113.6H83.9089V118.4H81.52V121.6H83.9089V132H87.0942V121.6H89.4832V118.4H87.0942V113.6ZM99.5144 127.934C98.8208 128.56 97.9051 128.907 96.9001 128.907C94.6847 128.907 93.0579 127.273 93.0579 125.029C93.0579 122.785 94.633 121.219 96.9001 121.219C97.8876 121.219 98.8208 121.55 99.532 122.176L100.015 122.594L102.163 120.437L101.625 119.95C100.362 118.803 98.6839 118.16 96.8993 118.16C92.9177 118.16 90.0263 121.046 90.0263 125.012C90.0263 128.961 92.987 131.95 96.8993 131.95C98.7173 131.95 100.413 131.307 101.661 130.142L102.18 129.655L99.9986 127.5L99.5144 127.934ZM113.532 119.586C112.615 118.664 111.54 118.16 110.051 118.16C108.995 118.16 107.799 118.49 107.002 119.22V112H103.817V132H107.002V124.508C107.002 121.447 109.167 121.204 109.929 121.204C111.833 121.204 111.78 122.995 111.78 124.074V132H114.965V124.09C114.965 122.194 114.571 120.63 113.532 119.586Z" fill="#17313B"/>
<path d="M96.7952 122.75C97.4059 122.75 97.9917 122.994 98.4236 123.428C98.8555 123.862 99.0981 124.45 99.0981 125.064C99.0981 125.677 98.8555 126.266 98.4236 126.7C97.9917 127.134 97.4059 127.377 96.7952 127.377C96.1844 127.377 95.5986 127.134 95.1667 126.7C94.7348 126.266 94.4922 125.677 94.4922 125.064C94.4922 124.45 94.7348 123.862 95.1667 123.428C95.5986 122.994 96.1844 122.75 96.7952 122.75Z" fill="#FF3D2E"/>
<path d="M58.7453 126.978C57.5341 128.23 55.8889 128.908 54.1577 128.908C50.6093 128.908 48.0292 126.108 48.0292 122.265C48.0292 118.404 50.6093 115.604 54.1577 115.604C55.8722 115.604 57.499 116.282 58.7286 117.517L59.2127 118.004L61.3421 115.865L60.8746 115.378C59.1092 113.551 56.7202 112.561 54.1577 112.561C48.9298 112.561 45 116.734 45 122.282C45 127.812 48.9474 131.969 54.1577 131.969C56.7378 131.969 59.1267 130.961 60.8922 129.134L61.3596 128.647L59.2478 126.474L58.7453 126.978Z" fill="#17313B"/>
<path d="M61.9326 82.8438V87H60.7705V77.0059H63.5117C64.7376 77.0059 65.6423 77.2406 66.2256 77.71C66.8135 78.1794 67.1074 78.8857 67.1074 79.8291C67.1074 81.1507 66.4375 82.0439 65.0977 82.5088L67.8115 87H66.4375L64.0176 82.8438H61.9326ZM61.9326 81.8457H63.5254C64.3457 81.8457 64.9473 81.6839 65.3301 81.3604C65.7129 81.0322 65.9043 80.5423 65.9043 79.8906C65.9043 79.2298 65.7083 78.7536 65.3164 78.4619C64.929 78.1702 64.3047 78.0244 63.4434 78.0244H61.9326V81.8457ZM73.8613 87L73.6357 85.9336H73.5811C73.2074 86.403 72.8337 86.722 72.46 86.8906C72.0908 87.0547 71.6283 87.1367 71.0723 87.1367C70.3294 87.1367 69.7461 86.9453 69.3223 86.5625C68.903 86.1797 68.6934 85.6351 68.6934 84.9287C68.6934 83.4157 69.9033 82.6227 72.3232 82.5498L73.5947 82.5088V82.0439C73.5947 81.4561 73.4671 81.0231 73.2119 80.7451C72.9613 80.4626 72.5579 80.3213 72.002 80.3213C71.3776 80.3213 70.6712 80.5127 69.8828 80.8955L69.5342 80.0273C69.9033 79.8268 70.3066 79.6696 70.7441 79.5557C71.1862 79.4417 71.6283 79.3848 72.0703 79.3848C72.9635 79.3848 73.6243 79.583 74.0527 79.9795C74.4857 80.376 74.7021 81.0117 74.7021 81.8867V87H73.8613ZM71.2979 86.2002C72.0042 86.2002 72.5579 86.0065 72.959 85.6191C73.3646 85.2318 73.5674 84.6895 73.5674 83.9922V83.3154L72.4326 83.3633C71.5303 83.3952 70.8786 83.5365 70.4775 83.7871C70.0811 84.0332 69.8828 84.4183 69.8828 84.9424C69.8828 85.3525 70.0059 85.6647 70.252 85.8789C70.5026 86.0931 70.8512 86.2002 71.2979 86.2002ZM79.4668 86.2002C79.6673 86.2002 79.861 86.1865 80.0479 86.1592C80.2347 86.1273 80.3828 86.0954 80.4922 86.0635V86.9316C80.3691 86.9909 80.1868 87.0387 79.9453 87.0752C79.7083 87.1162 79.4941 87.1367 79.3027 87.1367C77.8535 87.1367 77.1289 86.3734 77.1289 84.8467V80.3896H76.0557V79.8428L77.1289 79.3711L77.6074 77.7715H78.2637V79.5078H80.4375V80.3896H78.2637V84.7988C78.2637 85.25 78.3708 85.5964 78.585 85.8379C78.7992 86.0794 79.0931 86.2002 79.4668 86.2002ZM83.1309 87H81.9961V79.5078H83.1309V87ZM81.9004 77.4775C81.9004 77.2178 81.9642 77.0286 82.0918 76.9102C82.2194 76.7871 82.3789 76.7256 82.5703 76.7256C82.7526 76.7256 82.9098 76.7871 83.042 76.9102C83.1742 77.0332 83.2402 77.2223 83.2402 77.4775C83.2402 77.7327 83.1742 77.9242 83.042 78.0518C82.9098 78.1748 82.7526 78.2363 82.5703 78.2363C82.3789 78.2363 82.2194 78.1748 82.0918 78.0518C81.9642 77.9242 81.9004 77.7327 81.9004 77.4775ZM90.6641 87V82.1533C90.6641 81.5426 90.5251 81.0869 90.2471 80.7861C89.9691 80.4854 89.5339 80.335 88.9414 80.335C88.1576 80.335 87.5833 80.5469 87.2188 80.9707C86.8542 81.3945 86.6719 82.0941 86.6719 83.0693V87H85.5371V79.5078H86.46L86.6445 80.5332H86.6992C86.9316 80.1641 87.2575 79.8792 87.6768 79.6787C88.096 79.4736 88.5632 79.3711 89.0781 79.3711C89.9805 79.3711 90.6595 79.5898 91.1152 80.0273C91.571 80.4603 91.7988 81.1553 91.7988 82.1123V87H90.6641ZM100.269 79.5078V80.2256L98.8809 80.3896C99.0085 80.5492 99.1224 80.7588 99.2227 81.0186C99.3229 81.2738 99.373 81.5632 99.373 81.8867C99.373 82.6204 99.1224 83.2061 98.6211 83.6436C98.1198 84.0811 97.4316 84.2998 96.5566 84.2998C96.3333 84.2998 96.1237 84.2816 95.9277 84.2451C95.4447 84.5003 95.2031 84.8216 95.2031 85.209C95.2031 85.4141 95.2874 85.5667 95.4561 85.667C95.6247 85.7627 95.9141 85.8105 96.3242 85.8105H97.6504C98.4616 85.8105 99.0837 85.9814 99.5166 86.3232C99.9541 86.665 100.173 87.1618 100.173 87.8135C100.173 88.6429 99.8402 89.2741 99.1748 89.707C98.5094 90.1445 97.5387 90.3633 96.2627 90.3633C95.2829 90.3633 94.5264 90.181 93.9932 89.8164C93.4645 89.4518 93.2002 88.9368 93.2002 88.2715C93.2002 87.8158 93.346 87.4215 93.6377 87.0889C93.9294 86.7562 94.3395 86.5306 94.8682 86.4121C94.6768 86.3255 94.515 86.1911 94.3828 86.0088C94.2552 85.8265 94.1914 85.6146 94.1914 85.373C94.1914 85.0996 94.2643 84.8604 94.4102 84.6553C94.556 84.4502 94.7861 84.252 95.1006 84.0605C94.7132 83.901 94.3965 83.6299 94.1504 83.2471C93.9089 82.8643 93.7881 82.4268 93.7881 81.9346C93.7881 81.1143 94.0342 80.4831 94.5264 80.041C95.0186 79.5944 95.7158 79.3711 96.6182 79.3711C97.0101 79.3711 97.3633 79.4167 97.6777 79.5078H100.269ZM94.2939 88.2578C94.2939 88.6634 94.4648 88.971 94.8066 89.1807C95.1484 89.3903 95.6383 89.4951 96.2764 89.4951C97.2288 89.4951 97.9329 89.3516 98.3887 89.0645C98.849 88.7819 99.0791 88.3968 99.0791 87.9092C99.0791 87.5036 98.9538 87.221 98.7031 87.0615C98.4525 86.9066 97.9808 86.8291 97.2881 86.8291H95.9277C95.4128 86.8291 95.0117 86.9521 94.7246 87.1982C94.4375 87.4443 94.2939 87.7975 94.2939 88.2578ZM94.9092 81.9072C94.9092 82.4313 95.0573 82.8278 95.3535 83.0967C95.6497 83.3656 96.0622 83.5 96.5908 83.5C97.6982 83.5 98.252 82.9622 98.252 81.8867C98.252 80.7611 97.6914 80.1982 96.5703 80.1982C96.0371 80.1982 95.627 80.3418 95.3398 80.6289C95.0527 80.916 94.9092 81.3421 94.9092 81.9072Z" fill="#1D1D1D"/>
<path d="M63.791 45.272C66.9483 45.272 69.2843 45.8907 70.799 47.128C72.3137 48.344 73.071 50.008 73.071 52.12C73.071 53.464 72.7403 54.68 72.079 55.768C71.4177 56.856 70.4257 57.72 69.103 58.36C67.7803 59 66.1483 59.32 64.207 59.32C62.607 59.32 61.0603 59.096 59.567 58.648C58.0737 58.1787 56.815 57.5387 55.791 56.728L57.551 53.496C58.383 54.1787 59.375 54.7227 60.527 55.128C61.7003 55.512 62.9057 55.704 64.143 55.704C65.615 55.704 66.767 55.4053 67.599 54.808C68.4523 54.1893 68.879 53.3467 68.879 52.28C68.879 51.128 68.4203 50.264 67.503 49.688C66.607 49.0907 65.0603 48.792 62.863 48.792H57.455L58.607 36.6H71.759V40.088H62.127L61.647 45.272H63.791ZM83.6625 32.056H87.2465L76.6865 62.2H73.1025L83.6625 32.056ZM94.3535 45.272C97.5108 45.272 99.8468 45.8907 101.362 47.128C102.876 48.344 103.634 50.008 103.634 52.12C103.634 53.464 103.303 54.68 102.642 55.768C101.98 56.856 100.988 57.72 99.6655 58.36C98.3428 59 96.7108 59.32 94.7695 59.32C93.1695 59.32 91.6228 59.096 90.1295 58.648C88.6362 58.1787 87.3775 57.5387 86.3535 56.728L88.1135 53.496C88.9455 54.1787 89.9375 54.7227 91.0895 55.128C92.2628 55.512 93.4682 55.704 94.7055 55.704C96.1775 55.704 97.3295 55.4053 98.1615 54.808C99.0148 54.1893 99.4415 53.3467 99.4415 52.28C99.4415 51.128 98.9828 50.264 98.0655 49.688C97.1695 49.0907 95.6228 48.792 93.4255 48.792H88.0175L89.1695 36.6H102.322V40.088H92.6895L92.2095 45.272H94.3535Z" fill="#1D1D1D"/>
</g>
<defs>
<filter id="filter0_d" x="-4" y="-4" width="168" height="164" filterUnits="userSpaceOnUse" color-interpolation-filters="sRGB">
<feFlood flood-opacity="0" result="BackgroundImageFix"/>
<feColorMatrix in="SourceAlpha" type="matrix" values="0 0 0 0 0 0 0 0 0 0 0 0 0 0 0 0 0 0 127 0"/>
<feOffset/>
<feGaussianBlur stdDeviation="2"/>
<feColorMatrix type="matrix" values="0 0 0 0 0 0 0 0 0 0 0 0 0 0 0 0 0 0 0.05 0"/>
<feBlend mode="normal" in2="BackgroundImageFix" result="effect1_dropShadow"/>
<feBlend mode="normal" in="SourceGraphic" in2="effect1_dropShadow" result="shape"/>
</filter>
<clipPath id="clip0">
<rect width="160" height="156" fill="white"/>
</clipPath>
</defs>
</svg>
