<svg width="72" height="72" viewBox="0 0 72 72" fill="none" xmlns="http://www.w3.org/2000/svg">
<g clip-path="url(#clip0)">
<path d="M35.9936 66.2186C19.2767 66.2186 5.67673 52.6476 5.67673 35.9619C5.67673 19.2761 19.2767 5.70508 35.9936 5.70508C52.7104 5.70508 66.3104 19.2761 66.3104 35.9619C66.3104 52.6476 52.7104 66.2186 35.9936 66.2186Z" fill="white"/>
<path d="M35.9936 6.34153C42.8465 6.34603 49.4859 8.7264 54.7806 13.0771C60.0753 17.4278 63.6978 23.4797 65.0309 30.2017C66.364 36.9237 65.3253 43.9 62.0917 49.942C58.8581 55.984 53.6296 60.7181 47.2971 63.3375C40.9645 65.957 33.9197 66.2998 27.3627 64.3077C20.8057 62.3155 15.1423 58.1116 11.3373 52.4121C7.53222 46.7126 5.82097 39.8701 6.49505 33.0504C7.16913 26.2307 10.1868 19.8557 15.0341 15.0114C17.7824 12.252 21.0503 10.0644 24.6489 8.57519C28.2476 7.08594 32.1056 6.3245 36.0002 6.33486L35.9936 6.34153ZM36.0002 5C18.8874 5 5.01597 18.8491 5.01597 35.9242C5.01597 52.9993 18.8807 66.8862 35.9936 66.8862C53.1064 66.8862 66.9778 53.0371 66.9778 35.962C66.9778 18.887 53.1042 5.00667 35.9936 5.00667L36.0002 5Z" fill="#4385F4"/>
<path d="M35.9625 64.6305C51.8139 64.6305 64.6619 51.8003 64.6619 35.9733C64.6619 20.1463 51.8139 7.31836 35.9625 7.31836C20.111 7.31836 7.26302 20.1486 7.26302 35.9733C7.26302 51.798 20.1132 64.6305 35.9625 64.6305Z" stroke="#4385F4" stroke-width="2" stroke-miterlimit="10" stroke-dasharray="3 3"/>
<path d="M38.2517 36.2337H34.7366L35.3373 34.9567L35.8557 33.7598H37.1349L37.6533 34.9567L38.2517 36.2337Z" fill="#FF7058"/>
<path d="M40.4876 36.2326H32.5007C32.2894 36.2332 32.0869 36.3172 31.9373 36.4664C31.7877 36.6156 31.7031 36.8178 31.702 37.0291V39.6209H41.2484V37.0291C41.2556 36.9257 41.2411 36.8219 41.2058 36.7244C41.1706 36.6269 41.1154 36.5379 41.0438 36.4629C40.9722 36.3879 40.8857 36.3287 40.79 36.2891C40.6942 36.2494 40.5912 36.2302 40.4876 36.2326Z" fill="#FFD15C"/>
<path d="M38.7656 32.6074H34.2249V36.5475H38.7656V32.6074Z" fill="#F1543F"/>
<path d="M42.7257 20.4805H30.267C30.1401 20.4822 30.0189 20.5334 29.9291 20.6231C29.8394 20.7129 29.7882 20.8341 29.7865 20.961C29.7835 21.0267 29.7936 21.0924 29.8162 21.1541C29.8389 21.2159 29.8735 21.2725 29.9183 21.3208C29.963 21.369 30.0168 21.4079 30.0767 21.4351C30.1366 21.4623 30.2013 21.4774 30.267 21.4794H42.7257C42.8522 21.4771 42.9729 21.4256 43.0622 21.336C43.1514 21.2463 43.2023 21.1254 43.204 20.9988C43.207 20.9333 43.197 20.8678 43.1745 20.8062C43.152 20.7446 43.1175 20.6881 43.073 20.6398C43.0286 20.5916 42.975 20.5527 42.9153 20.5254C42.8557 20.498 42.7913 20.4828 42.7257 20.4805ZM26.9099 22.6741V24.3093C26.9164 26.2077 27.4851 28.0616 28.5443 29.6371C29.6035 31.2126 31.1056 32.439 32.8611 33.1616C35.1891 34.1198 37.8014 34.1198 40.1294 33.1616C41.8849 32.439 43.387 31.2126 44.4462 29.6371C45.5054 28.0616 46.0741 26.2077 46.0807 24.3093V22.6741H26.9099ZM44.4855 24.3093C44.486 26.1611 43.8355 27.9542 42.6478 29.3751C41.8973 30.28 40.9576 31.0096 39.8949 31.5123C38.8321 32.0151 37.672 32.2788 36.4964 32.2851C35.3195 32.2876 34.1569 32.0278 33.0932 31.5244C32.0294 31.021 31.0913 30.2867 30.3471 29.3751C29.1691 27.9487 28.52 26.1592 28.5095 24.3093V24.2692H44.4454V24.3093H44.4855Z" fill="#F8B64C"/>
<path d="M42.7257 21.4785V25.7834C42.7225 27.7448 42.1257 29.6593 41.0138 31.275C39.902 32.8908 38.3271 34.1322 36.4963 34.836C34.664 34.1234 33.0893 32.8745 31.9779 31.2528C30.8666 29.631 30.2703 27.7116 30.267 25.7456V21.4785H42.7257Z" fill="#FFD15C"/>
<path d="M43.7981 20.3672H29.1525V23.1904H43.7981V20.3672Z" fill="#FFC952"/>
<path d="M35.9469 26.0178C35.9469 26.0178 35.5887 25.9823 35.5887 26.2982V27.702H37.9491V28.1225C37.9506 28.1516 37.9457 28.1806 37.9349 28.2077C37.924 28.2347 37.9075 28.2591 37.8864 28.2792C37.8653 28.2992 37.8401 28.3145 37.8125 28.3239C37.7849 28.3334 37.7557 28.3367 37.7267 28.3338H35.5909V30.1581H38.1716C38.1716 30.1581 39.729 29.9201 39.7445 28.3338V26.0178H35.9469ZM39.6044 23.7441H35.0125C33.3506 24.1379 33.315 25.524 33.315 25.524V30.1693H35.0948V25.9422C35.094 25.8418 35.1272 25.744 35.189 25.6649C35.2508 25.5857 35.3375 25.5298 35.4352 25.5062H39.6066L39.6044 23.7441Z" fill="white"/>
<path opacity="0.5" d="M21.517 58.0406L21.4925 58.025C21.4925 58.025 21.5014 58.0317 21.517 58.0406ZM18.0975 55.2619L18.0797 55.2441C18.0797 55.2441 18.0864 55.253 18.0975 55.2619ZM15.3099 51.9804L15.2966 51.9648L15.3099 51.9804ZM10.8181 36.7541V36.7407C10.8181 36.7407 10.8181 36.7474 10.8181 36.7563V36.7541ZM11.1719 32.9186C11.1719 32.903 11.1719 32.8941 11.1719 32.8963C11.1719 32.8986 11.1696 32.9075 11.1719 32.9208V32.9186ZM13.2186 25.4434C13.2186 25.4434 13.2186 25.4389 13.2186 25.4434V25.4434Z" fill="#4385F4"/>
<g opacity="0.5">
<path opacity="0.5" d="M35.4241 59.0525C33.2375 59.1508 31.0496 58.8892 28.9478 58.2783C29.6997 57.3039 28.4583 56.3339 27.2681 55.3995L24.7741 53.5373C24.7452 53.5596 26.2425 55.0502 26.109 56.3494C26.0604 56.6449 26.0688 56.947 26.1334 57.2393C25.7931 57.0814 25.466 56.919 25.1279 56.7454C26.0022 55.9067 25.0122 54.7053 24.06 53.5663C23.0544 52.4161 22.0399 51.2881 22.0377 51.2859C22.0354 51.2837 23.15 53.039 22.7807 54.3182C22.6814 54.6041 22.6346 54.9056 22.6428 55.2081C22.3469 54.9857 22.0577 54.7765 21.7774 54.5407C22.7607 53.8466 22.0443 52.4761 21.3324 51.1902C20.5849 49.8843 19.8129 48.6162 19.8129 48.6139C19.8129 48.6117 20.5649 50.5206 19.9731 51.742C19.8255 52.0117 19.7269 52.3055 19.6816 52.6096C19.4369 52.3486 19.1996 52.0838 18.9697 51.8154C20.022 51.2748 19.6127 49.8131 19.1655 48.4204C18.6694 47.0077 18.1354 45.6839 18.1399 45.6639C18.1443 45.6439 18.5381 47.6484 17.7461 48.7786C17.5537 49.0243 17.4033 49.3002 17.3011 49.5951C17.1113 49.2984 16.9289 49.0018 16.7538 48.7052C17.8662 48.3136 17.7305 46.8097 17.5325 45.3858C17.29 43.9308 16.9919 42.5604 16.9919 42.5448C16.9919 42.5292 17.0564 44.5471 16.0886 45.5393C15.8622 45.7556 15.6715 46.0064 15.5236 46.2824C15.4368 46.0799 15.35 45.8775 15.2677 45.6728C15.2054 45.5148 15.1431 45.3569 15.0853 45.1967C16.2132 44.9876 16.3133 43.5615 16.3445 42.2089C16.3445 40.8273 16.2644 39.5213 16.2577 39.508C16.251 39.4946 16.0352 41.3612 14.9696 42.1777C14.7215 42.3507 14.5029 42.5626 14.3222 42.8051C14.2109 42.3779 14.0997 41.9508 14.0241 41.5192C15.1364 41.488 15.4457 40.1843 15.6659 38.9184C15.8862 37.6525 15.9663 36.4067 15.9552 36.4067C15.944 36.4067 15.5102 38.0908 14.3978 38.6959C14.134 38.8281 13.8935 39.0025 13.6859 39.2121C13.6325 38.7256 13.5932 38.2384 13.568 37.7504C14.6403 37.8795 15.0964 36.7048 15.4635 35.5635C15.692 34.8098 15.8821 34.045 16.033 33.272C16.0197 33.272 15.4079 34.7804 14.2888 35.1942C14.0196 35.2823 13.767 35.4147 13.5413 35.5857C13.5546 35.1519 13.5769 34.7181 13.608 34.2887C13.608 34.1864 13.6258 34.084 13.6325 33.9839C14.6003 34.2531 15.2032 33.2097 15.6659 32.2041C16.1287 31.1985 16.4557 30.1328 16.4557 30.1306C16.4557 30.1284 15.706 31.4655 14.6114 31.7035C14.3538 31.7477 14.1051 31.8333 13.875 31.9571C13.964 31.3898 14.073 30.8247 14.1976 30.2619C15.0475 30.6067 15.7193 29.7279 16.2488 28.8491C16.6021 28.2399 16.9229 27.6124 17.2099 26.9692C17.2099 26.9692 16.369 28.1595 15.3344 28.2351C15.1118 28.2442 14.8919 28.2877 14.6826 28.3642C14.8517 27.7798 15.0386 27.1954 15.2432 26.611C15.9641 26.9781 16.6582 26.2529 17.2277 25.4987C17.6264 24.9491 17.9934 24.3771 18.3268 23.7856C18.3268 23.7856 17.419 24.8535 16.4624 24.7912C16.2856 24.7762 16.1076 24.7844 15.9329 24.8157C16.1687 24.2491 16.4201 23.681 16.6871 23.1115L16.7338 23.0002C17.3323 23.3696 18.0242 22.7778 18.6182 22.1103C19.0569 21.604 19.469 21.0753 19.8529 20.5263C19.8529 20.5263 18.874 21.5008 18.0175 21.3295C17.8422 21.2867 17.6611 21.2732 17.4813 21.2894C18.0762 20.024 18.7448 18.7945 19.4836 17.6074C18.6493 18.831 17.9085 20.0324 17.2589 21.2227C17.182 21.0074 17.0733 20.8049 16.9363 20.622C16.6626 20.2527 16.656 19.6564 16.7538 19.147C16.8154 18.8299 16.9085 18.5199 17.0319 18.2215C16.5901 18.9338 16.2367 19.6973 15.9796 20.4952C15.6392 21.6209 15.6504 22.6866 16.4246 22.82C16.1153 23.443 15.8328 24.0681 15.5703 24.6888C15.4624 24.5154 15.3331 24.3561 15.1854 24.215C14.8317 23.879 14.7404 23.2828 14.756 22.7644C14.7702 22.4412 14.8194 22.1204 14.9028 21.8078C14.5449 22.5728 14.2855 23.3802 14.1309 24.2105C13.9395 25.3496 14.0819 26.413 14.8717 26.4998C14.6715 27.0723 14.4883 27.6448 14.3222 28.2173C14.1896 28.0726 14.0402 27.9441 13.8772 27.8347C13.0185 27.2851 13.1876 25.5721 13.2187 25.443C12.9484 26.2631 12.7861 27.115 12.7359 27.977C12.6892 29.1517 12.974 30.2218 13.7994 30.2307C13.7994 30.2307 13.7994 30.2307 13.7994 30.2441C13.6881 30.7676 13.5902 31.2949 13.5057 31.8259C13.3471 31.7019 13.1746 31.5966 12.9918 31.5122C12.0151 31.0672 11.9639 29.2874 11.9795 29.1473C11.8029 30.03 11.7452 30.9323 11.8082 31.8303C11.915 33.0584 12.3599 34.1419 13.2343 34.0262C13.1942 34.5201 13.166 35.014 13.1497 35.5079C12.963 35.3945 12.7637 35.3034 12.5557 35.2364C11.4945 34.9094 11.1875 33.1541 11.1719 32.9338C11.1075 33.8729 11.1689 34.8164 11.3543 35.7392C11.6169 37.0074 12.2843 38.1242 13.1764 37.8439C13.2002 38.2977 13.2372 38.7516 13.2877 39.2054C13.0672 39.1007 12.8338 39.0259 12.5935 38.9829C11.4166 38.7894 10.8493 36.9295 10.8137 36.7582C10.8752 37.7649 11.0751 38.7583 11.4077 39.7104C11.8749 41.0297 12.7559 42.1354 13.6659 41.6504C13.7526 42.0642 13.8483 42.478 13.9573 42.8896C13.6963 42.804 13.4243 42.7561 13.1497 42.7472C11.8638 42.7116 10.9873 40.7583 10.9583 40.6382C11.1701 41.6983 11.5311 42.7229 12.0307 43.6816C12.7404 45.0321 13.8639 46.0911 14.7493 45.3725C14.8873 45.7373 15.0356 46.0985 15.1943 46.4559C14.897 46.3965 14.5925 46.3822 14.291 46.4137C12.9228 46.5649 11.6769 44.576 11.6636 44.5026C12.0499 45.5951 12.5957 46.6244 13.2832 47.5572C14.2621 48.892 15.6437 49.8509 16.4446 48.9143C16.6226 49.2109 16.808 49.5076 17.0008 49.8042C16.6966 49.7868 16.3914 49.8145 16.0953 49.8865C14.7315 50.2336 13.1342 48.3581 13.1609 48.3292C13.7185 49.3746 14.4353 50.3271 15.2855 51.1524C16.4913 52.3426 18.042 53.0946 18.6872 52.0423C18.9096 52.3137 19.161 52.5829 19.4102 52.8454C19.1048 52.8719 18.805 52.9431 18.5203 53.0568C17.2589 53.5952 15.4791 52.158 15.31 51.98C16.0546 52.9317 16.9363 53.7677 17.9263 54.4606C19.3791 55.4662 21.0588 55.929 21.5304 54.8233C21.8167 55.0576 22.1133 55.2801 22.4203 55.4907C22.1083 55.5633 21.8085 55.6809 21.5304 55.84C20.3646 56.5341 18.3045 55.4061 18.0954 55.2526C19.02 56.0761 20.0613 56.7583 21.1856 57.2772C22.843 58.0314 24.6429 58.196 24.9209 57.0547C25.2547 57.2327 25.5884 57.3995 25.9443 57.5597C25.6476 57.6814 25.3697 57.8447 25.119 58.0447C24.0622 58.9146 21.7818 58.1604 21.5148 58.0447C22.6122 58.7039 23.8024 59.1944 25.0455 59.4997C26.8676 59.9447 28.7364 59.78 28.8276 58.6365C30.9573 59.2606 33.1762 59.5252 35.3929 59.4196L35.4241 59.0525Z" fill="#4385F4"/>
</g>
<path d="M44.6234 53.7607C44.6797 53.6858 44.7087 53.594 44.7058 53.5004C44.7058 53.4826 44.7058 53.4493 44.7058 53.3981C44.7058 53.3469 44.7058 53.3113 44.7058 53.2935C44.7086 53.1996 44.6788 53.1075 44.6212 53.0332C44.5936 53.0021 44.5592 52.9778 44.5205 52.9624C44.4819 52.9469 44.4402 52.9407 44.3987 52.9442C44.3573 52.9411 44.3157 52.9474 44.2772 52.9629C44.2386 52.9783 44.2041 53.0024 44.1763 53.0332C44.1195 53.1078 44.0904 53.1998 44.0939 53.2935V53.3981V53.5004C44.0907 53.5944 44.1206 53.6866 44.1785 53.7607C44.2067 53.7909 44.2413 53.8144 44.2799 53.8294C44.3184 53.8444 44.3598 53.8506 44.401 53.8475C44.4422 53.8508 44.4836 53.8447 44.5222 53.8297C44.5607 53.8146 44.5953 53.7911 44.6234 53.7607ZM43.9204 53.9587C43.8617 53.9005 43.8152 53.8311 43.7835 53.7548C43.7518 53.6784 43.7356 53.5965 43.7358 53.5138V53.2802C43.7356 53.1973 43.7521 53.1152 43.7842 53.0388C43.8163 52.9624 43.8634 52.8932 43.9226 52.8352C44.0618 52.7314 44.2307 52.6753 44.4043 52.6753C44.5779 52.6753 44.7468 52.7314 44.886 52.8352C44.9452 52.8932 44.9923 52.9624 45.0244 53.0388C45.0565 53.1152 45.073 53.1973 45.0728 53.2802C45.0728 53.3002 45.0728 53.3402 45.0728 53.3981C45.0728 53.4559 45.0728 53.4938 45.0728 53.5138C45.0735 53.5965 45.0575 53.6786 45.0258 53.755C44.9941 53.8315 44.9473 53.9008 44.8882 53.9587C44.7482 54.0626 44.5786 54.1186 44.4043 54.1186C44.23 54.1186 44.0604 54.0626 43.9204 53.9587ZM42.3942 53.9587C42.335 53.9008 42.2882 53.8316 42.2564 53.7551C42.2247 53.6786 42.2088 53.5966 42.2096 53.5138V53.407V53.3002C42.2091 53.2175 42.2253 53.1355 42.257 53.0591C42.2887 52.9827 42.3354 52.9134 42.3942 52.8552C42.524 52.7427 42.6921 52.6846 42.8637 52.6928C42.9864 52.6892 43.1083 52.7144 43.2196 52.7663C43.3081 52.8072 43.3846 52.87 43.4421 52.9487C43.4852 53.0098 43.5113 53.0811 43.5177 53.1556C43.5186 53.1642 43.5175 53.1729 43.5144 53.1811C43.5113 53.1892 43.5063 53.1964 43.4999 53.2023C43.487 53.2137 43.4704 53.22 43.4532 53.2201H43.2174C43.2029 53.2246 43.1874 53.2246 43.1729 53.2201C43.1611 53.2072 43.152 53.1921 43.1462 53.1756C43.1265 53.1175 43.0901 53.0664 43.0416 53.0288C42.992 52.9969 42.9337 52.9813 42.8748 52.9843C42.8336 52.9797 42.792 52.9849 42.7533 52.9996C42.7146 53.0143 42.68 53.0381 42.6523 53.0688C42.5954 53.1442 42.5663 53.237 42.57 53.3313V53.5182C42.5819 53.7496 42.6797 53.8653 42.8637 53.8653C42.9232 53.8674 42.982 53.8519 43.0327 53.8208C43.0808 53.7823 43.1165 53.7304 43.1351 53.6717C43.1405 53.6557 43.1497 53.6412 43.1618 53.6295C43.1743 53.6194 43.1903 53.6147 43.2063 53.6161H43.4421C43.4593 53.6162 43.4759 53.6225 43.4888 53.6339C43.4952 53.6398 43.5002 53.647 43.5033 53.6552C43.5063 53.6633 43.5075 53.672 43.5066 53.6806C43.4999 53.7526 43.4746 53.8216 43.4332 53.8809C43.3769 53.9618 43.3001 54.0263 43.2107 54.0677C43.0987 54.1225 42.975 54.1492 42.8503 54.1456C42.6822 54.1439 42.5209 54.0787 42.3987 53.9632L42.3942 53.9587ZM41.5777 54.0766C41.572 54.0708 41.5674 54.0638 41.5644 54.0562C41.5613 54.0485 41.5598 54.0404 41.5599 54.0321V53.7607C41.5593 53.7521 41.5605 53.7434 41.5635 53.7353C41.5665 53.7271 41.5712 53.7198 41.5774 53.7136C41.5835 53.7075 41.5909 53.7028 41.599 53.6998C41.6071 53.6967 41.6158 53.6955 41.6245 53.6962H41.8937C41.9019 53.6961 41.91 53.6976 41.9177 53.7007C41.9253 53.7037 41.9323 53.7082 41.9382 53.714C41.9445 53.72 41.9495 53.7273 41.953 53.7353C41.9564 53.7433 41.9582 53.752 41.9582 53.7607V54.0299C41.9583 54.0381 41.9568 54.0463 41.9537 54.0539C41.9507 54.0616 41.9461 54.0685 41.9404 54.0744C41.9346 54.0811 41.9274 54.0864 41.9193 54.0898C41.9112 54.0933 41.9025 54.0949 41.8937 54.0944H41.6245C41.6151 54.0963 41.6055 54.096 41.5963 54.0937C41.587 54.0914 41.5784 54.0871 41.5711 54.0811L41.5777 54.0766ZM40.343 54.0611C40.2655 54.0298 40.1962 53.9811 40.1405 53.9187C40.1042 53.8803 40.0815 53.8311 40.076 53.7785C40.0754 53.7708 40.0764 53.763 40.0791 53.7557C40.0818 53.7484 40.0861 53.7417 40.0916 53.7363C40.103 53.7253 40.1181 53.719 40.1339 53.7185H40.3563C40.364 53.719 40.3713 53.7212 40.3779 53.7251C40.3845 53.729 40.39 53.7343 40.3942 53.7407L40.4542 53.7919C40.5213 53.8485 40.6068 53.8786 40.6945 53.8764C40.7549 53.879 40.8149 53.8652 40.868 53.8364C40.8889 53.8241 40.906 53.8065 40.9177 53.7854C40.9295 53.7642 40.9354 53.7404 40.9348 53.7162C40.9359 53.6844 40.9247 53.6533 40.9036 53.6295C40.8725 53.6012 40.8352 53.5806 40.7946 53.5694C40.7166 53.5431 40.6372 53.5216 40.5566 53.5049C40.4341 53.487 40.3188 53.4362 40.2229 53.358C40.1865 53.3254 40.1579 53.2852 40.1391 53.2402C40.1202 53.1951 40.1116 53.1465 40.1138 53.0977C40.1147 53.0253 40.1371 52.9548 40.1784 52.8953C40.2273 52.8279 40.2933 52.7749 40.3697 52.7418C40.4648 52.6995 40.5682 52.6789 40.6723 52.6817C40.7788 52.6787 40.8848 52.6977 40.9837 52.7373C41.0597 52.7682 41.128 52.8153 41.184 52.8753C41.222 52.9136 41.2456 52.9639 41.2507 53.0177C41.251 53.025 41.2498 53.0324 41.2471 53.0393C41.2444 53.0462 41.2404 53.0525 41.2351 53.0577C41.2298 53.0635 41.2232 53.0681 41.2159 53.0712C41.2086 53.0742 41.2008 53.0757 41.1929 53.0755H40.9926C40.9841 53.0761 40.9756 53.0746 40.9678 53.0711C40.9601 53.0676 40.9533 53.0623 40.9481 53.0555C40.9271 53.0397 40.907 53.0226 40.8881 53.0043C40.8596 52.9816 40.8282 52.9629 40.7946 52.9487C40.756 52.9324 40.7142 52.9248 40.6723 52.9264C40.6184 52.9217 40.5646 52.9367 40.521 52.9687C40.5039 52.9822 40.4902 52.9994 40.4809 53.0191C40.4716 53.0388 40.4671 53.0604 40.4676 53.0822C40.4661 53.1109 40.4747 53.1393 40.4921 53.1623C40.5213 53.1896 40.5563 53.2101 40.5944 53.2223C40.667 53.2465 40.7414 53.2651 40.8169 53.2779C41.1372 53.3402 41.2974 53.4804 41.2974 53.6984C41.298 53.7593 41.2832 53.8193 41.2544 53.873C41.2256 53.9267 41.1838 53.9722 41.1328 54.0054C40.9959 54.0912 40.8358 54.1324 40.6745 54.1234C40.559 54.1279 40.4438 54.1082 40.3363 54.0655L40.343 54.0611ZM37.76 54.0766C37.7543 54.0708 37.7498 54.0638 37.7467 54.0562C37.7436 54.0485 37.7421 54.0404 37.7423 54.0321V52.7707C37.7423 52.7535 37.7487 52.7369 37.76 52.724C37.7732 52.7132 37.7898 52.7077 37.8068 52.7084H38.0159C38.0243 52.7077 38.0328 52.7087 38.0409 52.7114C38.0489 52.7141 38.0563 52.7183 38.0626 52.724C38.0686 52.7301 38.0733 52.7374 38.0764 52.7455C38.0795 52.7535 38.0808 52.7621 38.0804 52.7707V52.8708C38.1261 52.8123 38.185 52.7655 38.2523 52.7342C38.3196 52.7028 38.3933 52.6879 38.4675 52.6906C38.5523 52.6835 38.6372 52.7022 38.711 52.7443C38.7849 52.7864 38.8443 52.8499 38.8813 52.9264C38.9261 52.8544 38.989 52.7953 39.0638 52.7551C39.1411 52.7115 39.2286 52.6892 39.3174 52.6906C39.3843 52.6885 39.4508 52.7007 39.5126 52.7264C39.5744 52.7521 39.6299 52.7907 39.6756 52.8397C39.7746 52.9617 39.8239 53.1167 39.8135 53.2735V54.041C39.8136 54.0493 39.8121 54.0574 39.8091 54.0651C39.806 54.0727 39.8015 54.0797 39.7957 54.0855C39.79 54.0922 39.7828 54.0975 39.7747 54.101C39.7666 54.1044 39.7578 54.106 39.749 54.1056H39.5265C39.5178 54.1056 39.5091 54.1038 39.5011 54.1003C39.4931 54.0969 39.4858 54.0919 39.4798 54.0855C39.474 54.0797 39.4695 54.0727 39.4664 54.0651C39.4634 54.0574 39.4619 54.0493 39.462 54.041V53.2957C39.4696 53.2088 39.4442 53.1223 39.3908 53.0532C39.3673 53.028 39.3387 53.0082 39.3068 52.9951C39.2749 52.9821 39.2406 52.9761 39.2061 52.9776C39.1729 52.9773 39.1399 52.9839 39.1093 52.9969C39.0787 53.0099 39.0511 53.0291 39.0282 53.0532C38.9734 53.1216 38.9471 53.2085 38.9547 53.2957V54.041C38.9549 54.0493 38.9534 54.0574 38.9503 54.0651C38.9472 54.0727 38.9427 54.0797 38.937 54.0855C38.9312 54.0922 38.924 54.0975 38.9159 54.101C38.9078 54.1044 38.899 54.106 38.8902 54.1056H38.6678C38.651 54.1045 38.6352 54.0974 38.6233 54.0855C38.6114 54.0736 38.6043 54.0578 38.6032 54.041V53.2957C38.6115 53.2088 38.586 53.122 38.532 53.0532C38.5081 53.0286 38.4794 53.0091 38.4476 52.9961C38.4158 52.9831 38.3817 52.9768 38.3474 52.9776C38.3141 52.9775 38.2812 52.9841 38.2506 52.9971C38.22 53.0101 38.1924 53.0292 38.1694 53.0532C38.1146 53.1216 38.0883 53.2085 38.096 53.2957V54.041C38.0965 54.0491 38.0954 54.0572 38.0928 54.0649C38.0901 54.0725 38.0859 54.0796 38.0804 54.0855C38.0744 54.0919 38.0671 54.0969 38.0591 54.1003C38.0511 54.1038 38.0424 54.1056 38.0337 54.1056H37.8112C37.8003 54.1067 37.7892 54.1051 37.7791 54.1008C37.769 54.0966 37.7601 54.0898 37.7534 54.0811L37.76 54.0766ZM36.6477 54.0766C36.6419 54.0708 36.6374 54.0638 36.6343 54.0562C36.6313 54.0485 36.6298 54.0404 36.6299 54.0321V52.7752C36.6296 52.7572 36.636 52.7398 36.6477 52.7262C36.6538 52.7202 36.6611 52.7155 36.6692 52.7124C36.6772 52.7094 36.6858 52.708 36.6944 52.7084H36.9169C36.9258 52.7078 36.9348 52.7091 36.9432 52.7122C36.9516 52.7152 36.9593 52.72 36.9658 52.7262C36.9775 52.7398 36.9839 52.7572 36.9836 52.7752V52.8842C37.0281 52.8252 37.0866 52.7783 37.1538 52.7476C37.221 52.7169 37.2948 52.7035 37.3685 52.7084H37.4797C37.4882 52.7077 37.4967 52.7087 37.5047 52.7114C37.5127 52.7141 37.5201 52.7183 37.5265 52.724C37.5325 52.7301 37.5372 52.7374 37.5402 52.7455C37.5433 52.7535 37.5447 52.7621 37.5442 52.7707V52.9665C37.545 52.9748 37.5437 52.9831 37.5406 52.9908C37.5375 52.9986 37.5327 53.0055 37.5265 53.011C37.5207 53.0177 37.5135 53.0229 37.5054 53.0264C37.4973 53.0299 37.4885 53.0314 37.4797 53.031H37.2706C37.2345 53.029 37.1984 53.0342 37.1644 53.0464C37.1303 53.0587 37.0991 53.0776 37.0726 53.1022C37.0474 53.1284 37.0279 53.1595 37.0153 53.1936C37.0027 53.2276 36.9972 53.2639 36.9992 53.3002V54.0321C36.9999 54.0404 36.9986 54.0488 36.9956 54.0565C36.9925 54.0642 36.9876 54.0711 36.9814 54.0766C36.9758 54.0829 36.9689 54.0879 36.9613 54.0914C36.9536 54.0948 36.9453 54.0966 36.9369 54.0967H36.681C36.664 54.0979 36.6472 54.0923 36.6343 54.0811L36.6477 54.0766ZM35.1526 54.0766C35.1469 54.0708 35.1423 54.0638 35.1393 54.0562C35.1362 54.0485 35.1347 54.0404 35.1348 54.0321V52.9932H34.9124C34.9037 52.9938 34.895 52.9926 34.8869 52.9896C34.8788 52.9866 34.8714 52.9819 34.8652 52.9758C34.8591 52.9696 34.8544 52.9623 34.8514 52.9541C34.8484 52.946 34.8472 52.9373 34.8478 52.9287V52.7707C34.8481 52.7542 34.8544 52.7383 34.8656 52.7262C34.8718 52.7202 34.8791 52.7155 34.8871 52.7124C34.8952 52.7094 34.9038 52.708 34.9124 52.7084H35.1348V52.6016C35.1298 52.5353 35.1389 52.4687 35.1615 52.4062C35.1841 52.3437 35.2198 52.2867 35.2661 52.239C35.3778 52.1514 35.5184 52.1093 35.6599 52.1211H36.2138C36.2223 52.1204 36.2308 52.1214 36.2388 52.124C36.2468 52.1267 36.2542 52.131 36.2606 52.1366C36.2719 52.1496 36.2783 52.1662 36.2784 52.1834V52.3413C36.2784 52.3501 36.2766 52.3587 36.2731 52.3667C36.2697 52.3748 36.2647 52.382 36.2583 52.388C36.2525 52.3938 36.2455 52.3983 36.2379 52.4014C36.2302 52.4044 36.2221 52.406 36.2138 52.4058H35.6732C35.6465 52.4033 35.6196 52.4066 35.5942 52.4154C35.5689 52.4243 35.5458 52.4384 35.5264 52.457C35.4952 52.5036 35.4804 52.5591 35.4841 52.615V52.7084H36.2138C36.2223 52.7077 36.2308 52.7087 36.2388 52.7114C36.2468 52.7141 36.2542 52.7183 36.2606 52.724C36.2719 52.7369 36.2783 52.7535 36.2784 52.7707V54.0321C36.2785 54.0404 36.277 54.0485 36.2739 54.0562C36.2709 54.0638 36.2663 54.0708 36.2606 54.0766C36.2548 54.0833 36.2476 54.0886 36.2395 54.0921C36.2314 54.0955 36.2226 54.0971 36.2138 54.0967H35.9914C35.9746 54.0956 35.9588 54.0885 35.9469 54.0766C35.935 54.0647 35.9279 54.0489 35.9268 54.0321V52.9932H35.4819V54.0321C35.4826 54.0404 35.4814 54.0488 35.4783 54.0565C35.4752 54.0642 35.4703 54.0711 35.4641 54.0766C35.4583 54.0833 35.4511 54.0886 35.4431 54.0921C35.435 54.0955 35.4262 54.0971 35.4174 54.0967H35.1949C35.1851 54.0986 35.1749 54.0981 35.1652 54.0954C35.1556 54.0927 35.1467 54.0878 35.1393 54.0811L35.1526 54.0766ZM34.1671 53.7407C34.2178 53.6707 34.2458 53.5868 34.2471 53.5004C34.2471 53.4782 34.2471 53.4448 34.2471 53.3981C34.2471 53.3514 34.2471 53.3158 34.2471 53.2935C34.2454 53.2122 34.2164 53.1339 34.1648 53.071C34.1373 53.0396 34.1029 53.0149 34.0644 52.9987C34.0258 52.9825 33.9841 52.9753 33.9424 52.9776C33.7533 52.9776 33.6509 53.0955 33.6376 53.3313V53.4915C33.6509 53.714 33.7533 53.843 33.9424 53.843C33.9853 53.8453 34.0281 53.8372 34.0672 53.8194C34.1064 53.8016 34.1406 53.7746 34.1671 53.7407ZM33.4262 53.9632C33.3227 53.8321 33.267 53.6697 33.2683 53.5026V53.3158C33.2667 53.1498 33.3216 52.9882 33.424 52.8575C33.4756 52.7988 33.5399 52.7527 33.612 52.7227C33.684 52.6926 33.762 52.6793 33.84 52.6839C33.9167 52.6807 33.9932 52.6948 34.0637 52.7252C34.1342 52.7556 34.1969 52.8016 34.2471 52.8597V52.2657C34.2471 52.2569 34.2489 52.2483 34.2524 52.2403C34.2558 52.2322 34.2608 52.225 34.2672 52.219C34.2732 52.2135 34.2802 52.2093 34.2878 52.2066C34.2955 52.2039 34.3036 52.2028 34.3117 52.2034H34.5341C34.5426 52.2027 34.5511 52.2037 34.5591 52.2064C34.5671 52.209 34.5745 52.2133 34.5809 52.219C34.5869 52.2251 34.5916 52.2324 34.5947 52.2405C34.5977 52.2485 34.5991 52.2571 34.5987 52.2657V54.0455C34.5994 54.0538 34.5981 54.0621 34.595 54.0698C34.5919 54.0776 34.5871 54.0845 34.5809 54.09C34.5751 54.0967 34.5679 54.1019 34.5598 54.1054C34.5517 54.1089 34.5429 54.1105 34.5341 54.11H34.3117C34.2949 54.109 34.2791 54.1018 34.2672 54.0899C34.2553 54.0781 34.2482 54.0623 34.2471 54.0455V53.9454C34.1949 54.0039 34.1311 54.0511 34.0598 54.0839C33.9885 54.1168 33.9112 54.1346 33.8328 54.1363C33.7543 54.1379 33.6763 54.1234 33.6037 54.0936C33.5311 54.0639 33.4654 54.0195 33.4106 53.9632H33.4262ZM32.5741 53.7785C32.6304 53.7036 32.6594 53.6118 32.6564 53.5182C32.6564 53.5004 32.6564 53.4671 32.6564 53.4159C32.6564 53.3647 32.6564 53.3291 32.6564 53.3113C32.6591 53.2178 32.6301 53.1261 32.5741 53.051C32.5464 53.02 32.5119 52.9958 32.4733 52.9804C32.4347 52.965 32.3931 52.9587 32.3517 52.962C32.3102 52.959 32.2687 52.9655 32.2302 52.9809C32.1916 52.9963 32.1571 53.0203 32.1292 53.051C32.0732 53.1261 32.0442 53.2178 32.0469 53.3113V53.5182C32.0439 53.6118 32.0729 53.7036 32.1292 53.7785C32.1575 53.8086 32.1921 53.832 32.2306 53.847C32.2691 53.862 32.3105 53.8683 32.3517 53.8653C32.3958 53.8682 32.4401 53.8602 32.4804 53.842C32.5208 53.8238 32.556 53.7958 32.583 53.7607L32.5741 53.7785ZM31.8711 53.9765C31.8124 53.9183 31.7659 53.8489 31.7342 53.7725C31.7025 53.6962 31.6863 53.6143 31.6864 53.5316V53.298C31.6863 53.2151 31.7028 53.133 31.7349 53.0566C31.767 52.9802 31.814 52.911 31.8733 52.853C32.0085 52.7395 32.1821 52.6822 32.3583 52.6928C32.5331 52.6824 32.7053 52.7398 32.8389 52.853C32.8982 52.911 32.9452 52.9802 32.9773 53.0566C33.0094 53.133 33.0259 53.2151 33.0258 53.298C33.0258 53.318 33.0258 53.358 33.0258 53.4159C33.0258 53.4737 33.0258 53.5115 33.0258 53.5316C33.0259 53.6143 33.0097 53.6962 32.978 53.7725C32.9463 53.8489 32.8998 53.9183 32.8411 53.9765C32.7008 54.0806 32.5308 54.1367 32.3561 54.1367C32.1814 54.1367 32.0114 54.0806 31.8711 53.9765ZM30.9923 53.7785C31.0488 53.7039 31.0771 53.6117 31.0724 53.5182C31.0744 53.4841 31.0744 53.45 31.0724 53.4159C31.0744 53.3811 31.0744 53.3461 31.0724 53.3113C31.0759 53.2176 31.0468 53.1256 30.9901 53.051C30.9625 53.0199 30.928 52.9956 30.8894 52.9802C30.8508 52.9647 30.8091 52.9585 30.7676 52.962C30.7262 52.9589 30.6846 52.9652 30.646 52.9806C30.6075 52.9961 30.5729 53.0202 30.5451 53.051C30.4876 53.1253 30.4577 53.2174 30.4606 53.3113V53.5182C30.4573 53.6122 30.4873 53.7044 30.5451 53.7785C30.6046 53.8367 30.6845 53.8692 30.7676 53.8692C30.8508 53.8692 30.9306 53.8367 30.9901 53.7785H30.9923ZM30.2893 53.9765C30.2302 53.9186 30.1834 53.8493 30.1517 53.7728C30.12 53.6964 30.104 53.6143 30.1046 53.5316V53.298C30.1045 53.2151 30.121 53.133 30.1531 53.0566C30.1852 52.9802 30.2322 52.911 30.2915 52.853C30.4306 52.7492 30.5996 52.6931 30.7732 52.6931C30.9468 52.6931 31.1157 52.7492 31.2548 52.853C31.3141 52.911 31.3612 52.9802 31.3933 53.0566C31.4254 53.133 31.4419 53.2151 31.4417 53.298C31.4417 53.318 31.4417 53.358 31.4417 53.4159C31.4417 53.4737 31.4417 53.5115 31.4417 53.5316C31.4419 53.6143 31.4257 53.6962 31.394 53.7725C31.3623 53.8489 31.3157 53.9183 31.2571 53.9765C31.1171 54.0804 30.9475 54.1364 30.7732 54.1364C30.5989 54.1364 30.4293 54.0804 30.2893 53.9765ZM29.3549 53.7185C29.405 53.6506 29.4337 53.5692 29.4372 53.4849C29.4388 53.456 29.4388 53.427 29.4372 53.3981C29.4388 53.3699 29.4388 53.3417 29.4372 53.3135C29.4337 53.2285 29.4051 53.1464 29.3549 53.0777C29.3276 53.0458 29.2934 53.0205 29.2548 53.0039C29.2162 52.9873 29.1744 52.9799 29.1324 52.9821C28.9389 52.9821 28.8388 53.1 28.8276 53.3358V53.3981C28.8276 53.6762 28.93 53.8163 29.1346 53.8163C29.1787 53.8187 29.2226 53.8101 29.2625 53.7915C29.3025 53.7729 29.3373 53.7448 29.3638 53.7096L29.3549 53.7185ZM28.7564 54.6084C28.6717 54.5684 28.5994 54.5061 28.5473 54.4282C28.5123 54.3767 28.4915 54.3168 28.4872 54.2546C28.4869 54.2464 28.4882 54.2381 28.4913 54.2304C28.4944 54.2228 28.4991 54.2158 28.505 54.2101C28.5174 54.1995 28.5333 54.1939 28.5495 54.1946H28.7876C28.8025 54.1934 28.8174 54.1973 28.8299 54.2057C28.8432 54.2173 28.8525 54.2329 28.8565 54.2502C28.8762 54.2961 28.9067 54.3366 28.9455 54.3681C28.9989 54.405 29.0633 54.4223 29.128 54.417C29.171 54.4254 29.2154 54.4229 29.2572 54.4099C29.2991 54.3969 29.337 54.3736 29.3677 54.3423C29.3983 54.311 29.4207 54.2726 29.4328 54.2305C29.445 54.1884 29.4465 54.1439 29.4372 54.1011V53.9187C29.3272 54.0279 29.1784 54.0892 29.0234 54.0892C28.8684 54.0892 28.7196 54.0279 28.6096 53.9187C28.5096 53.7871 28.4571 53.6256 28.4605 53.4604V53.387V53.3158C28.4589 53.1505 28.5121 52.9893 28.6118 52.8575C28.663 52.7983 28.7272 52.7518 28.7994 52.7217C28.8716 52.6916 28.9498 52.6787 29.0279 52.6839C29.114 52.6819 29.1993 52.7002 29.277 52.7373C29.3457 52.7708 29.4058 52.8195 29.4528 52.8797V52.7774C29.4525 52.7683 29.4541 52.7592 29.4576 52.7508C29.461 52.7423 29.4662 52.7347 29.4728 52.7284C29.4789 52.7224 29.4863 52.7177 29.4943 52.7146C29.5023 52.7116 29.5109 52.7102 29.5195 52.7106H29.742C29.7506 52.7102 29.7592 52.7116 29.7672 52.7146C29.7753 52.7177 29.7826 52.7224 29.7887 52.7284C29.8004 52.742 29.8068 52.7594 29.8065 52.7774V54.0633C29.8123 54.1469 29.8007 54.2308 29.7723 54.3097C29.744 54.3886 29.6996 54.4608 29.6419 54.5216C29.5738 54.5805 29.4947 54.6254 29.4092 54.6537C29.3236 54.6819 29.2334 54.693 29.1435 54.6862C29.013 54.6916 28.8831 54.6649 28.7653 54.6084H28.7564Z" fill="black"/>
<path d="M71.9213 41.791H63.8209V54.1651H71.9213L69.3183 48.3541L71.9213 41.791ZM-0.0787354 41.791H8.02163V54.1651H-0.0787354L2.52201 48.3541L-0.0787354 41.791Z" fill="#2C72C6"/>
<path d="M67.9189 37.543L63.8232 41.77V54.1441L67.9189 50.0751V37.543ZM4.00818 37.543L8.11287 41.9502V54.1575L4.00818 50.0639V37.543Z" fill="#3D597A"/>
<path d="M3.91692 50.0399H67.91L67.9033 37.5078H3.91692V50.0399Z" fill="#4385F4"/>
<path opacity="0.5" d="M36.6922 59.224C38.8964 59.3235 41.102 59.0619 43.2218 58.4498C42.4632 57.4709 43.7157 56.4964 44.9149 55.5576C46.1719 54.6232 47.4311 53.691 47.4311 53.6866C47.4311 53.6821 45.9494 55.2061 46.0962 56.5098C46.1448 56.8053 46.1365 57.1073 46.0718 57.3997C46.4144 57.2439 46.7518 57.0793 47.084 56.9058C46.1941 56.0648 47.2019 54.8612 48.1608 53.7177C49.1753 52.5653 50.1987 51.4329 50.1987 51.4284C50.1987 51.424 49.073 53.1882 49.4512 54.4719C49.5512 54.7576 49.598 55.0592 49.5891 55.3618C49.8872 55.1393 50.1787 54.9302 50.4612 54.6944C49.469 53.9958 50.1942 52.6209 50.9062 51.3328C51.6604 50.0201 52.439 48.7498 52.439 48.7476C52.439 48.7454 51.6804 50.6609 52.2766 51.8867C52.4248 52.1564 52.5242 52.4501 52.5703 52.7544C52.8172 52.4941 53.0575 52.2293 53.2867 51.9601C52.2277 51.4151 52.6415 49.9445 53.0909 48.5518C53.5915 47.1369 54.1299 45.8087 54.1232 45.7886C54.1521 45.7886 53.7227 47.7798 54.5214 48.9033C54.7136 49.1491 54.864 49.425 54.9664 49.7198C55.1577 49.4232 55.3416 49.1265 55.5181 48.8299C54.3879 48.4383 54.5348 46.9277 54.735 45.4928C54.9775 44.0355 55.2778 42.6606 55.2778 42.6451C55.2778 42.6295 55.2155 44.6473 56.19 45.6485C56.4184 45.8649 56.6107 46.1165 56.7595 46.3938C56.8485 46.1913 56.9353 45.9867 57.0176 45.782C57.0821 45.624 57.1422 45.4661 57.2023 45.3059C56.0654 45.0834 55.9631 43.664 55.9319 42.3069C55.9319 40.9231 56.0142 39.6127 56.0209 39.5994C56.0276 39.586 56.2434 41.4593 57.3179 42.2691C57.5681 42.4436 57.7889 42.6569 57.972 42.9009C58.0833 42.4715 58.1834 42.0421 58.2724 41.6083C57.1444 41.5794 56.8374 40.2623 56.6171 39.0009C56.3969 37.7395 56.3235 36.498 56.3346 36.4847C56.3457 36.4713 56.7929 38.1755 57.912 38.7829C58.1777 38.9151 58.4204 39.0894 58.6305 39.299C58.6839 38.8096 58.724 38.3223 58.7507 37.8329C57.6672 37.9619 57.2067 36.785 56.8374 35.6393C56.607 34.8835 56.4154 34.1165 56.2634 33.3411C56.279 33.3411 56.8952 34.8539 58.0232 35.27C58.2937 35.3582 58.5478 35.4905 58.7752 35.6615C58.7618 35.2166 58.7418 34.7916 58.7084 34.36C58.7084 34.2577 58.6928 34.1576 58.6839 34.0552C57.7073 34.3267 57.0999 33.2788 56.6349 32.2754C56.17 31.2721 55.8385 30.1975 55.8385 30.1953C55.8385 30.1931 56.5949 31.5301 57.6961 31.7726C57.9542 31.8185 58.203 31.9064 58.4325 32.0329C58.3391 31.4634 58.2323 30.8961 58.1055 30.331C57.249 30.6781 56.5704 29.7948 56.0365 28.9138C55.6809 28.3032 55.3579 27.6742 55.0687 27.0294C55.0798 27.0294 55.9163 28.2219 56.9598 28.2976C57.1876 28.3058 57.4127 28.3493 57.6272 28.4266C57.4551 27.8333 57.266 27.2475 57.0599 26.669C56.3324 27.0361 55.6338 26.3109 55.0576 25.5567C54.6546 25.0049 54.2832 24.4307 53.9452 23.8369C53.9563 23.8369 54.864 24.9092 55.8251 24.847C56.0034 24.8308 56.183 24.839 56.3591 24.8714C56.1232 24.3019 55.8704 23.7323 55.6004 23.1628L55.5537 23.0516C54.9508 23.4209 54.2522 22.8291 53.6538 22.1617C53.211 21.6543 52.7951 21.1241 52.4079 20.5732C52.4212 20.5732 53.3957 21.5499 54.2589 21.3785C54.4385 21.3388 54.6234 21.329 54.8062 21.3496C54.2061 20.0805 53.5338 18.8467 52.7928 17.6543C53.6315 18.8846 54.379 20.1015 55.0398 21.2829C55.1174 21.0669 55.2269 20.8636 55.3646 20.68C55.6405 20.3107 55.6471 19.7122 55.5492 19.2005C55.4843 18.8827 55.3904 18.5714 55.2689 18.2706C55.7126 18.9863 56.0689 19.7526 56.3301 20.5532C56.6705 21.6811 56.6616 22.7512 55.8852 22.8847C56.1967 23.5099 56.4814 24.135 56.7462 24.7602C56.8551 24.5855 56.9859 24.4255 57.1355 24.2841C57.4915 23.9482 57.5805 23.3475 57.5671 22.8291C57.5517 22.5052 57.5025 22.1839 57.4203 21.8702C57.78 22.6375 58.0416 23.447 58.1989 24.2796C58.3903 25.4232 58.2457 26.4888 57.4492 26.5756C57.6516 27.1496 57.8363 27.7213 58.0054 28.2976C58.1382 28.153 58.2875 28.0246 58.4503 27.9149C59.3069 27.352 59.1378 25.6456 59.1178 25.5166C59.3907 26.3384 59.5538 27.1927 59.6028 28.0573C59.6495 29.2364 59.3647 30.3087 58.5327 30.3176C58.5327 30.3176 58.5327 30.3176 58.5327 30.331C58.6454 30.856 58.7447 31.3848 58.8308 31.9173C58.9883 31.7896 59.16 31.6806 59.3425 31.5924C60.328 31.1341 60.3792 29.3543 60.3636 29.2208C60.5417 30.1063 60.6001 31.0118 60.5372 31.9128C60.4282 33.1431 59.981 34.2288 59.1 34.1153C59.14 34.6092 59.1689 35.1031 59.1845 35.6015C59.3724 35.4868 59.5733 35.395 59.783 35.3278C60.8531 35.0008 61.1601 33.2388 61.1779 33.0163C61.2444 33.962 61.183 34.9124 60.9955 35.8417C60.7285 37.1121 60.0566 38.2311 59.1578 37.9508C59.1311 38.3958 59.0955 38.863 59.0444 39.3168C59.2675 39.2131 59.503 39.1384 59.7452 39.0943C60.9332 38.9008 61.5027 37.0364 61.525 36.8562C61.4635 37.8662 61.2621 38.8628 60.9265 39.8174C60.4571 41.1522 59.5672 42.2491 58.6506 41.7641C58.5638 42.1779 58.4659 42.5939 58.3569 43.0055C58.6202 42.9198 58.8944 42.8719 59.1712 42.8631C60.466 42.8275 61.3514 40.8608 61.3781 40.7473C61.1673 41.8118 60.8031 42.8399 60.2969 43.7997C59.585 45.1546 58.4503 46.218 57.5582 45.4972C57.4203 45.8621 57.272 46.224 57.1133 46.5829C57.4128 46.5236 57.7195 46.5093 58.0232 46.5406C59.4025 46.6919 60.6595 44.6985 60.6729 44.6229C60.2849 45.7207 59.7345 46.7541 59.0399 47.6886C58.0543 49.0235 56.6616 49.9868 55.854 49.0479C55.6731 49.3535 55.4862 49.6501 55.2934 49.9378C55.5998 49.9204 55.9072 49.9481 56.2056 50.0201C57.5805 50.3694 59.1912 48.4873 59.1645 48.4628C58.595 49.5204 57.863 50.4821 56.9953 51.3127C55.7806 52.5052 54.2166 53.2594 53.5648 52.2026C53.3312 52.4763 53.0887 52.7433 52.8373 53.008C53.1485 53.0363 53.4538 53.1113 53.7427 53.2305C54.9975 53.7444 56.8062 52.3028 56.9709 52.1314C56.2211 53.084 55.3342 53.9199 54.339 54.6121C52.8729 55.6199 51.1798 56.0849 50.7037 54.9769C50.4145 55.2105 50.1164 55.4352 49.8138 55.6555C50.1257 55.7286 50.4254 55.8462 50.7037 56.0048C51.8784 56.7011 53.9563 55.5598 54.1654 55.4152C53.2336 56.2428 52.1839 56.9274 51.0508 57.4464C49.38 58.2028 47.5646 58.3675 47.2843 57.2239C46.9461 57.3997 46.6013 57.571 46.252 57.7312C46.5458 57.8517 46.8214 58.0127 47.0707 58.2095C48.1363 59.0816 50.4434 58.3252 50.7037 58.2095C49.6012 58.8715 48.4059 59.3649 47.1574 59.6734C45.3198 60.1183 43.4376 59.9537 43.3487 58.808C41.2018 59.434 38.9659 59.6994 36.7322 59.5933L36.6922 59.224Z" fill="#4385F4"/>
<path d="M36.3206 8.77734L37.6332 11.4337L40.5677 11.8586L38.443 13.9366L38.9458 16.8532L36.3206 15.4761L33.6976 16.8532L34.1982 13.9366L32.0735 11.8698L35.008 11.4448L36.3206 8.77734Z" fill="#FFA829"/>
<path d="M28.1846 13.9543L27.3993 12.3613L26.6117 13.9543L24.8497 14.2101L26.1245 15.4493L25.8242 17.2002L27.3993 16.3726L28.9722 17.2002L28.6719 15.4493L29.9467 14.2101L28.1846 13.9543Z" fill="#F8B64C"/>
<path d="M47.7915 14.2101L46.0295 13.9543L45.2442 12.3613L44.4566 13.9543L42.6968 14.2101L43.9694 15.4493L43.669 17.2002L45.2442 16.3726L46.8171 17.2002L46.5167 15.4493L47.7915 14.2101Z" fill="#F8B64C"/>
<path d="M23.8086 18.109L23.3369 17.1523L22.8653 18.109L21.8085 18.2625L22.5716 19.0056L22.3914 20.0557L23.3369 19.5618L24.2802 20.0557L24.1 19.0056L24.8653 18.2625L23.8086 18.109Z" fill="#FFD15C"/>
<path d="M50.8327 18.2625L49.776 18.109L49.3043 17.1523L48.8327 18.109L47.7759 18.2625L48.5412 19.0056L48.361 20.0557L49.3043 19.5618L50.2499 20.0557L50.0697 19.0056L50.8327 18.2625Z" fill="#FFD15C"/>
<path d="M19.913 44.9939L19.0231 42.3242H19.6482L20.2556 44.4155H20.2689L20.8785 42.3242H21.4859L20.596 44.9939H19.913Z" fill="white"/>
<path d="M21.7506 44.9939V42.3242H22.309V44.9939H21.7506Z" fill="white"/>
<path d="M24.5182 44.9939H22.7518V42.3242H24.5182V42.7847H23.3102V43.4277H24.4493V43.8549H23.3102V44.5223H24.5182V44.9939Z" fill="white"/>
<path d="M26.0088 44.9939H25.4905L24.7852 42.3242H25.3636L25.7819 44.2531H25.7975L26.2958 42.3242H26.7675L27.2658 44.2531H27.2703L27.693 42.3242H28.2692L27.5617 44.9939H27.0478L26.5405 43.1719H26.525L26.0088 44.9939Z" fill="white"/>
<path d="M31.8711 43.6606C31.8711 44.5082 31.375 45.0377 30.5852 45.0377C29.7954 45.0377 29.3015 44.5082 29.3015 43.6606C29.3015 42.813 29.7954 42.2812 30.5852 42.2812C31.375 42.2812 31.8711 42.8107 31.8711 43.6606ZM29.8688 43.6606C29.8688 44.219 30.1491 44.5705 30.5852 44.5705C31.0212 44.5705 31.3015 44.219 31.3015 43.6606C31.3015 43.1022 31.0212 42.7462 30.5852 42.7462C30.1491 42.7462 29.8688 43.1022 29.8688 43.6606Z" fill="white"/>
<path d="M32.7877 43.9967C32.7808 44.0739 32.79 44.1517 32.8148 44.2252C32.8396 44.2986 32.8795 44.3661 32.9318 44.4233C32.9841 44.4806 33.0478 44.5262 33.1187 44.5575C33.1897 44.5888 33.2663 44.6049 33.3439 44.6049C33.4214 44.6049 33.4981 44.5888 33.569 44.5575C33.64 44.5262 33.7036 44.4806 33.756 44.4233C33.8083 44.3661 33.8481 44.2986 33.8729 44.2252C33.8977 44.1517 33.907 44.0739 33.9001 43.9967V42.3281H34.4585V44.0501C34.4585 44.6374 34.0135 45.0379 33.3461 45.0379C32.6787 45.0379 32.2337 44.6374 32.2337 44.0501V42.3281H32.7921L32.7877 43.9967Z" fill="white"/>
<path d="M35.4641 44.9939H34.9057V42.3242H36.018C36.6298 42.3242 36.9814 42.6468 36.9814 43.1741C36.9878 43.3344 36.945 43.4928 36.8587 43.628C36.7723 43.7633 36.6467 43.8688 36.4986 43.9305L37.0592 44.9895H36.4274L35.9313 44.0128H35.4863L35.4641 44.9939ZM35.4641 43.6146H35.9468C36.0052 43.6212 36.0642 43.615 36.1199 43.5963C36.1755 43.5776 36.2264 43.5469 36.2688 43.5063C36.3113 43.4658 36.3443 43.4164 36.3656 43.3617C36.3868 43.3069 36.3958 43.2482 36.3918 43.1897C36.3942 43.1315 36.3842 43.0734 36.3625 43.0194C36.3407 42.9654 36.3076 42.9167 36.2655 42.8765C36.2234 42.8362 36.1732 42.8055 36.1182 42.7862C36.0633 42.7669 36.0049 42.7596 35.9468 42.7647H35.4641V43.6146Z" fill="white"/>
<path d="M39.2595 42.3287C39.3818 42.321 39.5043 42.3392 39.6191 42.3822C39.7338 42.4252 39.8382 42.4919 39.9254 42.578C40.0126 42.6641 40.0805 42.7677 40.1249 42.8819C40.1693 42.9961 40.189 43.1184 40.1828 43.2408C40.1862 43.3648 40.1636 43.4881 40.1166 43.6028C40.0695 43.7175 39.999 43.8211 39.9096 43.907C39.8201 43.9929 39.7137 44.0592 39.5972 44.1015C39.4806 44.1439 39.3565 44.1614 39.2328 44.153H38.7056V44.9939H38.1494V42.3242L39.2595 42.3287ZM38.7056 43.7169H39.1105C39.2361 43.7169 39.3567 43.667 39.4455 43.5781C39.5344 43.4893 39.5843 43.3687 39.5843 43.243C39.5843 43.1174 39.5344 42.9968 39.4455 42.908C39.3567 42.8191 39.2361 42.7692 39.1105 42.7692H38.7056V43.7169Z" fill="white"/>
<path d="M41.0638 44.9939H40.5054V42.3242H41.6066C42.2184 42.3242 42.57 42.6468 42.57 43.1741C42.5764 43.3344 42.5336 43.4928 42.4473 43.628C42.3609 43.7633 42.2353 43.8688 42.0872 43.9305L42.6478 44.9895H42.016L41.5199 44.0128H41.0638V44.9939ZM41.0638 43.6146H41.5532C41.6116 43.6212 41.6706 43.615 41.7263 43.5963C41.7819 43.5776 41.8328 43.5469 41.8752 43.5063C41.9177 43.4658 41.9507 43.4164 41.972 43.3617C41.9932 43.3069 42.0022 43.2482 41.9982 43.1897C42.0006 43.1315 41.9906 43.0734 41.9689 43.0194C41.9471 42.9654 41.914 42.9167 41.8719 42.8765C41.8298 42.8362 41.7796 42.8055 41.7246 42.7862C41.6697 42.7669 41.6113 42.7596 41.5532 42.7647H41.0638V43.6146Z" fill="white"/>
<path d="M45.431 43.6606C45.431 44.5082 44.9327 45.0377 44.1451 45.0377C43.3575 45.0377 42.8592 44.5082 42.8592 43.6606C42.8592 42.813 43.3553 42.2812 44.1451 42.2812C44.9349 42.2812 45.431 42.8107 45.431 43.6606ZM43.4287 43.6606C43.4287 44.219 43.7068 44.5705 44.1451 44.5705C44.5834 44.5705 44.8592 44.219 44.8592 43.6606C44.8592 43.1022 44.5812 42.7462 44.1451 42.7462C43.709 42.7462 43.4287 43.1022 43.4287 43.6606Z" fill="white"/>
<path d="M45.7892 44.9939V42.3242H47.5334V42.7847H46.3454V43.4989H47.4311V43.9438H46.3454V44.9939H45.7892Z" fill="white"/>
<path d="M47.8627 44.9939V42.3242H48.4189V44.9939H47.8627Z" fill="white"/>
<path d="M50.5858 44.9939H48.8638V42.3242H49.42V44.5267H50.5858V44.9939Z" fill="white"/>
<path d="M52.6815 44.9939H50.9173V42.3242H52.6815V42.7847H51.4735V43.4277H52.6148V43.8549H51.4735V44.5223H52.6815V44.9939Z" fill="white"/>
</g>
<defs>
<clipPath id="clip0">
<rect width="72" height="72" fill="white"/>
</clipPath>
</defs>
</svg>
