<svg width="160" height="156" viewBox="0 0 160 156" fill="none" xmlns="http://www.w3.org/2000/svg">
<g clip-path="url(#clip0)">
<g filter="url(#filter0_d)">
<rect width="160" height="156" fill="white"/>
<rect x="0.5" y="0.5" width="159" height="155" stroke="#E5E8ED"/>
</g>
<path d="M38.789 129.707C38.4023 129.976 38.1165 130.173 37.9148 130.299C37.192 130.764 36.5027 131.122 35.8639 131.409C34.9393 131.803 34.1156 132 33.376 132C30.8376 132 28.7363 131.194 27.0384 129.564C25.3405 127.934 24.5 125.893 24.5 123.421C24.5 121.039 25.2565 118.979 26.7862 117.224C28.316 115.469 30.1652 114.609 32.3505 114.609C33.2583 114.609 34.2333 114.77 35.2419 115.11C36.5532 115.54 37.6122 116.185 38.4527 117.027L36.9902 118.71C36.3682 118.084 35.5613 117.618 34.6199 117.331C33.9139 117.116 33.1406 117.009 32.2833 117.009C30.7535 117.009 29.4591 117.654 28.4337 118.925C27.4082 120.215 26.8871 121.737 26.8871 123.528C26.8871 125.301 27.4755 126.752 28.6522 127.916C29.8289 129.081 31.3251 129.672 33.1406 129.672C33.8971 129.672 34.6704 129.421 35.4605 128.937C36.1161 128.418 36.4523 128.167 36.4691 128.149V124.478H31.5604L32.2665 122.185H38.789V129.707ZM53.6159 125.23C53.6159 127.003 53.0107 128.543 51.8003 129.833C50.59 131.122 49.0938 131.785 47.3119 131.785C45.6645 131.785 44.2188 131.14 42.9748 129.869C41.7308 128.597 41.1256 127.057 41.1256 125.248C41.1256 123.457 41.714 121.916 42.8907 120.591C44.0675 119.266 45.5132 118.621 47.211 118.621C49.0938 118.621 50.6236 119.248 51.8171 120.519C53.0107 121.755 53.6159 123.331 53.6159 125.23ZM51.3128 125.266C51.3128 124.066 50.9262 123.045 50.1529 122.221C49.3796 121.379 48.4214 120.967 47.2783 120.967C46.2024 120.967 45.2946 121.397 44.5382 122.257C43.7817 123.116 43.4119 124.101 43.4119 125.212C43.4119 126.376 43.7985 127.361 44.555 128.185C45.3114 129.009 46.2528 129.439 47.396 129.439C48.455 129.439 49.3628 129.027 50.1361 128.203C50.9262 127.379 51.3128 126.394 51.3128 125.266ZM68.241 125.23C68.241 127.003 67.6358 128.543 66.4255 129.833C65.2151 131.122 63.719 131.785 61.9371 131.785C60.2896 131.785 58.8439 131.14 57.6 129.869C56.356 128.597 55.7508 127.057 55.7508 125.248C55.7508 123.457 56.3392 121.916 57.5159 120.591C58.6926 119.266 60.1383 118.621 61.8362 118.621C63.719 118.621 65.2487 119.248 66.4423 120.519C67.6358 121.755 68.241 123.331 68.241 125.23ZM65.938 125.266C65.938 124.066 65.5513 123.045 64.7781 122.221C64.0048 121.379 63.0466 120.967 61.9035 120.967C60.8276 120.967 59.9198 121.397 59.1633 122.257C58.4069 123.116 58.037 124.101 58.037 125.212C58.037 126.376 58.4237 127.361 59.1801 128.185C59.9366 129.009 60.878 129.439 62.0211 129.439C63.0802 129.439 63.988 129.027 64.7612 128.203C65.5513 127.379 65.938 126.394 65.938 125.266ZM81.7735 131.427L79.6554 131.767V129.636L79.2015 130.173C78.798 130.567 78.3442 130.89 77.8567 131.14C77.1506 131.481 76.3773 131.66 75.5536 131.66C73.9062 131.66 72.4941 131.033 71.351 129.761C70.2079 128.49 69.6363 126.985 69.6363 125.23C69.6363 123.421 70.2079 121.863 71.3342 120.573C72.4605 119.284 73.8389 118.639 75.4864 118.639C76.4278 118.639 77.2515 118.8 77.9407 119.122C78.4282 119.355 78.8485 119.66 79.2015 120.036C79.3192 120.197 79.4369 120.376 79.5545 120.537V114.949L81.8071 114.609L81.7735 131.427ZM79.7899 125.391C79.7899 124.137 79.3864 123.081 78.5627 122.221C77.739 121.343 76.8144 120.913 75.7553 120.913C74.5786 120.913 73.6372 121.325 72.9144 122.149C72.2419 122.937 71.8889 123.904 71.8889 125.033C71.8889 126.304 72.2419 127.361 72.948 128.185C73.654 129.009 74.545 129.421 75.6377 129.421C76.7135 129.421 77.6549 129.045 78.4955 128.275C79.3528 127.487 79.7899 126.519 79.7899 125.391ZM93.6586 117.278H87.3546V121.737H92.2465V124.03H87.3546V131.409L84.9003 131.785V114.967H93.1711L93.6586 117.278ZM98.7185 115.97L97.2056 117.958L95.7599 115.97L97.2896 114L98.7185 115.97ZM98.2647 131.427L96.012 131.749V119.301L98.2647 118.943V131.427ZM108.435 118.818L107.376 121.361C107.258 121.343 107.107 121.325 106.956 121.325C106.737 121.325 106.519 121.343 106.3 121.379C106.082 121.415 105.846 121.504 105.594 121.63C105.123 121.845 104.72 122.31 104.367 123.009C103.98 123.797 103.779 124.657 103.779 125.57V131.409L101.526 131.785V119.301L103.61 118.907V121.504C103.879 121.057 104.165 120.609 104.434 120.143C104.821 119.678 105.275 119.337 105.779 119.14C106.048 119.033 106.535 118.943 107.275 118.872C107.981 118.818 108.385 118.782 108.435 118.818ZM125.212 131.427L122.959 131.767V123.224C122.959 122.436 122.791 121.863 122.455 121.504C122.119 121.146 121.614 120.967 120.959 120.967C120.169 120.967 119.564 121.307 119.16 121.988C118.891 122.454 118.74 122.955 118.74 123.457V131.409L116.487 131.839V123.278C116.487 122.525 116.319 121.952 116 121.558C115.664 121.164 115.226 120.967 114.655 120.967H114.436C113.646 120.967 113.075 121.307 112.722 122.006C112.453 122.525 112.318 123.188 112.318 123.994V131.409L109.982 131.839V119.301L112.083 118.925V120.519C112.318 120.143 112.554 119.839 112.772 119.624C113.377 119.033 114.083 118.746 114.873 118.746C115.764 118.746 116.42 118.89 116.874 119.194C117.261 119.445 117.63 119.946 118 120.663C118.774 119.391 119.866 118.746 121.312 118.746C122.69 118.746 123.716 119.194 124.388 120.107C124.943 120.86 125.212 121.97 125.212 123.421V131.427ZM135.5 127.648C135.5 128.794 135.113 129.743 134.34 130.478C133.567 131.23 132.592 131.588 131.415 131.588C130.524 131.588 129.734 131.373 129.011 130.943C128.288 130.513 127.75 130.03 127.397 129.457L128.978 127.988C129.095 128.167 129.196 128.31 129.297 128.418C129.885 129.045 130.591 129.367 131.415 129.367C131.987 129.367 132.44 129.206 132.76 128.901C133.096 128.597 133.247 128.167 133.247 127.612C133.247 126.985 132.861 126.555 132.087 126.322C130.558 125.839 129.734 125.57 129.616 125.516C128.91 125.14 128.406 124.746 128.087 124.299C127.734 123.779 127.549 123.099 127.549 122.221C127.549 121.146 127.935 120.251 128.692 119.534C129.448 118.818 130.356 118.478 131.398 118.478C132.188 118.478 132.928 118.657 133.6 119.033C134.273 119.409 134.76 119.803 135.046 120.269L133.701 121.791C133.449 121.54 133.231 121.343 133.046 121.218C132.508 120.824 131.987 120.627 131.499 120.627C131.028 120.627 130.642 120.734 130.339 120.949C129.986 121.218 129.801 121.612 129.801 122.131C129.801 122.633 129.969 123.009 130.322 123.242C130.625 123.439 131.264 123.654 132.272 123.887C133.281 124.137 134.054 124.567 134.609 125.176C135.231 125.821 135.5 126.627 135.5 127.648Z" fill="#4385F4"/>
<path d="M61.9326 82.8438V87H60.7705V77.0059H63.5117C64.7376 77.0059 65.6423 77.2406 66.2256 77.71C66.8135 78.1794 67.1074 78.8857 67.1074 79.8291C67.1074 81.1507 66.4375 82.0439 65.0977 82.5088L67.8115 87H66.4375L64.0176 82.8438H61.9326ZM61.9326 81.8457H63.5254C64.3457 81.8457 64.9473 81.6839 65.3301 81.3604C65.7129 81.0322 65.9043 80.5423 65.9043 79.8906C65.9043 79.2298 65.7083 78.7536 65.3164 78.4619C64.929 78.1702 64.3047 78.0244 63.4434 78.0244H61.9326V81.8457ZM73.8613 87L73.6357 85.9336H73.5811C73.2074 86.403 72.8337 86.722 72.46 86.8906C72.0908 87.0547 71.6283 87.1367 71.0723 87.1367C70.3294 87.1367 69.7461 86.9453 69.3223 86.5625C68.903 86.1797 68.6934 85.6351 68.6934 84.9287C68.6934 83.4157 69.9033 82.6227 72.3232 82.5498L73.5947 82.5088V82.0439C73.5947 81.4561 73.4671 81.0231 73.2119 80.7451C72.9613 80.4626 72.5579 80.3213 72.002 80.3213C71.3776 80.3213 70.6712 80.5127 69.8828 80.8955L69.5342 80.0273C69.9033 79.8268 70.3066 79.6696 70.7441 79.5557C71.1862 79.4417 71.6283 79.3848 72.0703 79.3848C72.9635 79.3848 73.6243 79.583 74.0527 79.9795C74.4857 80.376 74.7021 81.0117 74.7021 81.8867V87H73.8613ZM71.2979 86.2002C72.0042 86.2002 72.5579 86.0065 72.959 85.6191C73.3646 85.2318 73.5674 84.6895 73.5674 83.9922V83.3154L72.4326 83.3633C71.5303 83.3952 70.8786 83.5365 70.4775 83.7871C70.0811 84.0332 69.8828 84.4183 69.8828 84.9424C69.8828 85.3525 70.0059 85.6647 70.252 85.8789C70.5026 86.0931 70.8512 86.2002 71.2979 86.2002ZM79.4668 86.2002C79.6673 86.2002 79.861 86.1865 80.0479 86.1592C80.2347 86.1273 80.3828 86.0954 80.4922 86.0635V86.9316C80.3691 86.9909 80.1868 87.0387 79.9453 87.0752C79.7083 87.1162 79.4941 87.1367 79.3027 87.1367C77.8535 87.1367 77.1289 86.3734 77.1289 84.8467V80.3896H76.0557V79.8428L77.1289 79.3711L77.6074 77.7715H78.2637V79.5078H80.4375V80.3896H78.2637V84.7988C78.2637 85.25 78.3708 85.5964 78.585 85.8379C78.7992 86.0794 79.0931 86.2002 79.4668 86.2002ZM83.1309 87H81.9961V79.5078H83.1309V87ZM81.9004 77.4775C81.9004 77.2178 81.9642 77.0286 82.0918 76.9102C82.2194 76.7871 82.3789 76.7256 82.5703 76.7256C82.7526 76.7256 82.9098 76.7871 83.042 76.9102C83.1742 77.0332 83.2402 77.2223 83.2402 77.4775C83.2402 77.7327 83.1742 77.9242 83.042 78.0518C82.9098 78.1748 82.7526 78.2363 82.5703 78.2363C82.3789 78.2363 82.2194 78.1748 82.0918 78.0518C81.9642 77.9242 81.9004 77.7327 81.9004 77.4775ZM90.6641 87V82.1533C90.6641 81.5426 90.5251 81.0869 90.2471 80.7861C89.9691 80.4854 89.5339 80.335 88.9414 80.335C88.1576 80.335 87.5833 80.5469 87.2188 80.9707C86.8542 81.3945 86.6719 82.0941 86.6719 83.0693V87H85.5371V79.5078H86.46L86.6445 80.5332H86.6992C86.9316 80.1641 87.2575 79.8792 87.6768 79.6787C88.096 79.4736 88.5632 79.3711 89.0781 79.3711C89.9805 79.3711 90.6595 79.5898 91.1152 80.0273C91.571 80.4603 91.7988 81.1553 91.7988 82.1123V87H90.6641ZM100.269 79.5078V80.2256L98.8809 80.3896C99.0085 80.5492 99.1224 80.7588 99.2227 81.0186C99.3229 81.2738 99.373 81.5632 99.373 81.8867C99.373 82.6204 99.1224 83.2061 98.6211 83.6436C98.1198 84.0811 97.4316 84.2998 96.5566 84.2998C96.3333 84.2998 96.1237 84.2816 95.9277 84.2451C95.4447 84.5003 95.2031 84.8216 95.2031 85.209C95.2031 85.4141 95.2874 85.5667 95.4561 85.667C95.6247 85.7627 95.9141 85.8105 96.3242 85.8105H97.6504C98.4616 85.8105 99.0837 85.9814 99.5166 86.3232C99.9541 86.665 100.173 87.1618 100.173 87.8135C100.173 88.6429 99.8402 89.2741 99.1748 89.707C98.5094 90.1445 97.5387 90.3633 96.2627 90.3633C95.2829 90.3633 94.5264 90.181 93.9932 89.8164C93.4645 89.4518 93.2002 88.9368 93.2002 88.2715C93.2002 87.8158 93.346 87.4215 93.6377 87.0889C93.9294 86.7562 94.3395 86.5306 94.8682 86.4121C94.6768 86.3255 94.515 86.1911 94.3828 86.0088C94.2552 85.8265 94.1914 85.6146 94.1914 85.373C94.1914 85.0996 94.2643 84.8604 94.4102 84.6553C94.556 84.4502 94.7861 84.252 95.1006 84.0605C94.7132 83.901 94.3965 83.6299 94.1504 83.2471C93.9089 82.8643 93.7881 82.4268 93.7881 81.9346C93.7881 81.1143 94.0342 80.4831 94.5264 80.041C95.0186 79.5944 95.7158 79.3711 96.6182 79.3711C97.0101 79.3711 97.3633 79.4167 97.6777 79.5078H100.269ZM94.2939 88.2578C94.2939 88.6634 94.4648 88.971 94.8066 89.1807C95.1484 89.3903 95.6383 89.4951 96.2764 89.4951C97.2288 89.4951 97.9329 89.3516 98.3887 89.0645C98.849 88.7819 99.0791 88.3968 99.0791 87.9092C99.0791 87.5036 98.9538 87.221 98.7031 87.0615C98.4525 86.9066 97.9808 86.8291 97.2881 86.8291H95.9277C95.4128 86.8291 95.0117 86.9521 94.7246 87.1982C94.4375 87.4443 94.2939 87.7975 94.2939 88.2578ZM94.9092 81.9072C94.9092 82.4313 95.0573 82.8278 95.3535 83.0967C95.6497 83.3656 96.0622 83.5 96.5908 83.5C97.6982 83.5 98.252 82.9622 98.252 81.8867C98.252 80.7611 97.6914 80.1982 96.5703 80.1982C96.0371 80.1982 95.627 80.3418 95.3398 80.6289C95.0527 80.916 94.9092 81.3421 94.9092 81.9072Z" fill="#1D1D1D"/>
<path d="M63.791 45.272C66.9483 45.272 69.2843 45.8907 70.799 47.128C72.3137 48.344 73.071 50.008 73.071 52.12C73.071 53.464 72.7403 54.68 72.079 55.768C71.4177 56.856 70.4257 57.72 69.103 58.36C67.7803 59 66.1483 59.32 64.207 59.32C62.607 59.32 61.0603 59.096 59.567 58.648C58.0737 58.1787 56.815 57.5387 55.791 56.728L57.551 53.496C58.383 54.1787 59.375 54.7227 60.527 55.128C61.7003 55.512 62.9057 55.704 64.143 55.704C65.615 55.704 66.767 55.4053 67.599 54.808C68.4523 54.1893 68.879 53.3467 68.879 52.28C68.879 51.128 68.4203 50.264 67.503 49.688C66.607 49.0907 65.0603 48.792 62.863 48.792H57.455L58.607 36.6H71.759V40.088H62.127L61.647 45.272H63.791ZM83.6625 32.056H87.2465L76.6865 62.2H73.1025L83.6625 32.056ZM94.3535 45.272C97.5108 45.272 99.8468 45.8907 101.362 47.128C102.876 48.344 103.634 50.008 103.634 52.12C103.634 53.464 103.303 54.68 102.642 55.768C101.98 56.856 100.988 57.72 99.6655 58.36C98.3428 59 96.7108 59.32 94.7695 59.32C93.1695 59.32 91.6228 59.096 90.1295 58.648C88.6362 58.1787 87.3775 57.5387 86.3535 56.728L88.1135 53.496C88.9455 54.1787 89.9375 54.7227 91.0895 55.128C92.2628 55.512 93.4682 55.704 94.7055 55.704C96.1775 55.704 97.3295 55.4053 98.1615 54.808C99.0148 54.1893 99.4415 53.3467 99.4415 52.28C99.4415 51.128 98.9828 50.264 98.0655 49.688C97.1695 49.0907 95.6228 48.792 93.4255 48.792H88.0175L89.1695 36.6H102.322V40.088H92.6895L92.2095 45.272H94.3535Z" fill="#1D1D1D"/>
</g>
<defs>
<filter id="filter0_d" x="-4" y="-4" width="168" height="164" filterUnits="userSpaceOnUse" color-interpolation-filters="sRGB">
<feFlood flood-opacity="0" result="BackgroundImageFix"/>
<feColorMatrix in="SourceAlpha" type="matrix" values="0 0 0 0 0 0 0 0 0 0 0 0 0 0 0 0 0 0 127 0"/>
<feOffset/>
<feGaussianBlur stdDeviation="2"/>
<feColorMatrix type="matrix" values="0 0 0 0 0 0 0 0 0 0 0 0 0 0 0 0 0 0 0.05 0"/>
<feBlend mode="normal" in2="BackgroundImageFix" result="effect1_dropShadow"/>
<feBlend mode="normal" in="SourceGraphic" in2="effect1_dropShadow" result="shape"/>
</filter>
<clipPath id="clip0">
<rect width="160" height="156" fill="white"/>
</clipPath>
</defs>
</svg>
