<svg width="80" height="60" viewBox="0 0 80 60" fill="none" xmlns="http://www.w3.org/2000/svg">
<g clip-path="url(#clip0)">
<path d="M80 39.3386C80 61.0647 62.0914 59.9913 40 59.9913C17.9086 59.9913 0 61.0647 0 39.3386C0 17.6125 17.9086 -3.75162e-06 40 -3.75162e-06C62.0914 -3.75162e-06 80 17.6125 80 39.3386Z" fill="#E2AC37" fill-opacity="0.1"/>
<path d="M47.4219 42.5938L39.5 50.5156L31.5781 42.5938C26.2188 43.0703 22 47.5156 22 53V56.25C22 58.3203 23.6797 60 25.75 60H53.25C55.3203 60 57 58.3203 57 56.25V53C57 47.5156 52.7812 43.0703 47.4219 42.5938ZM24.5 35C26.6328 35 28.5469 34.1016 29.9062 32.6797C31.0859 36.8906 34.9062 40 39.5 40C45.0234 40 49.5 35.5234 49.5 30C49.5 24.4766 45.0234 20 39.5 20C35.5625 20 32.1875 22.2969 30.5547 25.6094C29.1953 23.7344 27 22.5 24.5 22.5C24.5 25.1094 25.8359 27.4062 27.8672 28.75C25.8359 30.0938 24.5 32.3906 24.5 35ZM35.75 27.5H43.25C44.6328 27.5 45.75 28.6172 45.75 30H33.25C33.25 28.6172 34.3672 27.5 35.75 27.5Z" fill="#E2AC37" stroke="white" stroke-width="1.5"/>
</g>
<defs>
<clipPath id="clip0">
<rect width="80" height="60" fill="white"/>
</clipPath>
</defs>
</svg>
