<svg width="48" height="48" viewBox="0 0 48 48" fill="none" xmlns="http://www.w3.org/2000/svg">
<path fill-rule="evenodd" clip-rule="evenodd" d="M22.1773 47.9996V39.4047C31.2748 39.4047 38.3368 30.3828 34.8432 20.8076C34.2016 19.0485 33.1831 17.451 31.8592 16.1269C30.5353 14.8028 28.9379 13.7842 27.1789 13.1424C17.6036 9.67451 8.58169 16.7107 8.58169 25.8083H0.0117188C0.0117188 11.3088 14.0352 -0.000394344 29.2393 4.74854C35.8743 6.83565 41.1766 12.1121 43.2379 18.748C47.9877 33.9761 36.7034 47.9996 22.1773 47.9996Z" fill="#0080FF"/>
<path fill-rule="evenodd" clip-rule="evenodd" d="M13.6583 39.4299H22.2025V30.8857H13.6592L13.6583 39.4299ZM7.07407 46.0142H13.6575V39.4308H7.07407V46.0142ZM1.56982 39.4308H7.07407V33.9257H1.56982V39.4308Z" fill="#0080FF"/>
</svg>
