<svg width="48" height="48" viewBox="0 0 48 48" fill="none" xmlns="http://www.w3.org/2000/svg">
<path d="M0 41.8108C0 45.2293 2.77106 48 6.18919 48H41.8106C45.2293 48 48 45.2289 48 41.8108V6.18937C48 2.77069 45.2289 0 41.8108 0H6.18937C2.77069 0 0 2.77106 0 6.18919V41.8106V41.8108Z" fill="#563D7C"/>
<path d="M19.9048 21.2321V14.4347H25.8881C26.4581 14.4347 27.0075 14.4821 27.5366 14.5772C28.0657 14.6721 28.5339 14.8416 28.941 15.0859C29.3479 15.3302 29.6736 15.6694 29.9179 16.1034C30.162 16.5377 30.2842 17.094 30.2842 17.7722C30.2842 18.9934 29.9179 19.8754 29.1851 20.418C28.4525 20.9608 27.5164 21.2321 26.3765 21.2321H19.9048ZM13.5142 9.46875V38.5312H27.5977C28.9003 38.5312 30.1689 38.3685 31.4036 38.0428C32.6383 37.7171 33.7373 37.2152 34.7006 36.5368C35.6638 35.8584 36.4305 34.9832 37.0003 33.9114C37.5703 32.8395 37.8552 31.5709 37.8552 30.1056C37.8552 28.2874 37.4142 26.7339 36.5323 25.4451C35.6503 24.156 34.3138 23.2537 32.5228 22.7381C33.8254 22.1141 34.8092 21.3135 35.4741 20.3366C36.1388 19.3597 36.4712 18.1388 36.4712 16.6733C36.4712 15.3165 36.2473 14.1769 35.7996 13.2542C35.3518 12.3317 34.7209 11.5922 33.9068 11.0359C33.0928 10.4796 32.1159 10.0792 30.9761 9.83512C29.8365 9.59081 28.5746 9.46875 27.1907 9.46875H13.5142ZM19.9048 33.5653V25.5874H26.865C28.2489 25.5874 29.3616 25.9061 30.2029 26.544C31.044 27.1817 31.4648 28.2467 31.4648 29.7392C31.4648 30.4991 31.3358 31.1231 31.0779 31.6116C30.8201 32.1 30.4742 32.4868 30.0399 32.7716C29.6059 33.0566 29.1037 33.2601 28.5339 33.3823C27.9639 33.5042 27.3671 33.5653 26.7429 33.5653H19.9048Z" fill="white"/>
</svg>
