<svg width="70" height="48" viewBox="0 0 70 48" fill="none" xmlns="http://www.w3.org/2000/svg">
<g clip-path="url(#clip0)">
<path d="M58.3606 28.7402C58.0815 27.895 57.3505 27.3063 56.4052 27.1651C55.9594 27.0985 55.4489 27.1269 54.8448 27.2514C53.7918 27.4687 53.0106 27.5514 52.4405 27.5674C54.5924 23.9341 56.3423 19.7909 57.3496 15.8907C58.9785 9.58428 58.1081 6.71129 57.0909 5.41179C54.399 1.97213 50.4716 0.124315 45.7335 0.0677751C43.2059 0.0368691 40.9871 0.53591 39.8296 0.894783C38.7518 0.70462 37.5931 0.598449 36.3772 0.578815C34.0979 0.542455 32.0842 1.03931 30.3634 2.06048C29.4108 1.73834 27.8818 1.2842 26.1162 0.99441C21.9635 0.31266 18.6166 0.843879 16.1685 2.57334C13.204 4.66732 11.8298 8.3055 12.084 13.3868C12.1647 15.0001 13.0671 19.9087 14.4881 24.5639C15.3047 27.2396 16.1756 29.4616 17.0764 31.1687C18.3539 33.5893 19.7208 35.0148 21.2554 35.5268C22.1155 35.8133 23.6783 36.014 25.3219 34.645C25.5303 34.8974 25.8082 35.1481 26.1771 35.381C26.6456 35.6764 27.2185 35.9178 27.7906 36.0609C29.8524 36.5763 31.7836 36.4474 33.4313 35.7249C33.4415 36.018 33.4493 36.298 33.4558 36.5398C33.4667 36.9319 33.4776 37.3164 33.492 37.676C33.5896 40.1074 33.7551 41.9979 34.2452 43.3207C34.2721 43.3934 34.3083 43.5043 34.3465 43.622C34.591 44.3706 34.9999 45.6239 36.0401 46.6055C37.1173 47.6223 38.4202 47.9341 39.6136 47.9341C40.2121 47.9341 40.7831 47.8555 41.284 47.7483C43.0692 47.3656 45.0968 46.7827 46.5636 44.6942C47.9504 42.7199 48.6245 39.7462 48.7465 35.0606C48.7623 34.9281 48.7768 34.8016 48.7908 34.681L48.8199 34.4334L49.1466 34.4622L49.2308 34.4678C51.0492 34.5507 53.2726 34.1651 54.6381 33.5308C55.7171 33.0301 59.1747 31.2047 58.3606 28.7402Z" fill="black"/>
<path d="M55.2511 29.2195C49.8444 30.3349 49.4726 28.5043 49.4726 28.5043C55.1811 20.0337 57.5676 9.28152 55.5083 6.64996C49.89 -0.528409 40.1646 2.86652 40.0022 2.95452L39.9501 2.96397C38.8818 2.74217 37.6865 2.61019 36.3428 2.58819C33.8965 2.54819 32.0407 3.22958 30.6325 4.29747C30.6325 4.29747 13.2833 -2.84981 14.0903 13.2864C14.2619 16.7191 19.0105 39.2607 24.6743 32.4521C26.7445 29.9624 28.7448 27.8573 28.7448 27.8573C29.7382 28.5172 30.9275 28.8539 32.1743 28.733L32.2712 28.6509C32.241 28.9599 32.2548 29.2622 32.3099 29.6202C30.8508 31.2504 31.2797 31.5366 28.3629 32.1371C25.4113 32.7454 27.1452 33.8282 28.2772 34.1114C29.6496 34.4545 32.8246 34.9406 34.9698 31.9374L34.8844 32.2801C35.456 32.7381 35.8574 35.2586 35.7901 37.5436C35.7229 39.8285 35.678 41.3972 36.1283 42.6225C36.579 43.8479 37.0278 46.6049 40.8623 45.7833C44.0662 45.0967 45.7266 43.3174 45.9576 40.3493C46.1215 38.2393 46.4925 38.5513 46.5158 36.6648L46.8134 35.7718C47.1564 32.9115 46.8679 31.9887 48.8417 32.4179L49.3217 32.4601C50.7743 32.5261 52.6759 32.2263 53.792 31.7076C56.195 30.5925 57.6203 28.7303 55.2507 29.2195H55.2511Z" fill="#336791"/>
<path d="M31.6481 14.8209C31.1609 14.7531 30.7196 14.8158 30.4964 14.9849C30.3709 15.08 30.332 15.1902 30.3215 15.266C30.2935 15.4669 30.4342 15.689 30.5207 15.8036C30.7655 16.1279 31.1229 16.3508 31.4767 16.3999C31.5279 16.4071 31.579 16.4104 31.6297 16.4104C32.2197 16.4104 32.7562 15.951 32.8034 15.6119C32.8625 15.1872 32.246 14.9042 31.6481 14.8211V14.8209ZM47.789 14.8344C47.7425 14.5015 47.1502 14.4066 46.588 14.4848C46.0266 14.5629 45.4823 14.8164 45.5278 15.15C45.5642 15.4094 46.0326 15.8523 46.5871 15.8523C46.634 15.8523 46.6813 15.8492 46.7289 15.8425C47.0991 15.7912 47.3707 15.5561 47.4998 15.4207C47.6961 15.2142 47.8099 14.984 47.789 14.8344Z" fill="white"/>
<path d="M57.0504 29.093C56.8442 28.4697 56.1807 28.2691 55.0782 28.4967C51.8049 29.1723 50.6327 28.7044 50.2478 28.4209C52.7921 24.545 54.8852 19.8596 56.0143 15.4882C56.5492 13.4175 56.8446 11.4944 56.8688 9.92696C56.8955 8.20659 56.6024 6.94235 55.9981 6.17007C53.5617 3.05674 49.9856 1.38673 45.657 1.34091C42.6811 1.30746 40.1668 2.06902 39.6794 2.28318C38.653 2.02793 37.534 1.87122 36.3157 1.85122C34.0818 1.81505 32.1507 2.3499 30.552 3.44016C29.8575 3.18164 28.0627 2.56552 25.8679 2.21192C22.0733 1.60107 19.058 2.06393 16.9062 3.58832C14.3387 5.40741 13.1533 8.65909 13.3829 13.2528C13.4602 14.7983 14.3408 19.5527 15.7305 24.1059C17.5598 30.0988 19.5483 33.4913 21.6405 34.1893C21.8854 34.2709 22.1677 34.328 22.4791 34.328C23.2423 34.328 24.178 33.984 25.1516 32.8136C26.339 31.3891 27.5674 29.9992 28.835 28.6456C29.6575 29.087 30.561 29.3336 31.4851 29.3583C31.487 29.3825 31.4893 29.4067 31.4915 29.4306C31.3324 29.6203 31.1767 29.8128 31.0243 30.0079C30.384 30.8207 30.2507 30.9899 28.1896 31.4143C27.6033 31.5353 26.0462 31.8562 26.0233 32.9477C25.9986 34.1404 27.864 34.6412 28.0766 34.6943C28.8172 34.8797 29.5308 34.9712 30.2113 34.9712C31.8662 34.9712 33.3226 34.4272 34.4865 33.3748C34.4507 37.6264 34.6279 41.8158 35.1384 43.0922C35.5565 44.1372 36.5779 46.6909 39.8041 46.6907C40.2775 46.6907 40.7986 46.6357 41.3718 46.5128C44.7389 45.791 46.2011 44.3028 46.7667 41.0219C47.0694 39.2684 47.5888 35.0814 47.8331 32.8354C48.3487 32.9963 49.0125 33.0699 49.73 33.0697C51.2266 33.0697 52.9535 32.7518 54.0365 32.2491C55.2531 31.6841 57.4485 30.2976 57.0504 29.093ZM49.0319 13.9164C49.0208 14.5794 48.9296 15.1813 48.8329 15.8096C48.7287 16.4854 48.6211 17.1841 48.594 18.0322C48.5672 18.8575 48.6703 19.7156 48.77 20.5455C48.9714 22.2217 49.1781 23.9474 48.378 25.6501C48.2451 25.4146 48.1267 25.1712 48.0235 24.9213C47.924 24.6802 47.7081 24.293 47.409 23.757C46.2457 21.6707 43.5214 16.785 44.916 14.7914C45.3314 14.198 46.3856 13.5879 49.0319 13.9164ZM45.8242 2.68351C49.7028 2.76913 52.7708 4.22008 54.943 6.9958C56.609 9.12486 54.7744 18.8124 49.4635 27.17C49.4101 27.1021 49.3564 27.0344 49.3024 26.9669L49.2352 26.8829C50.6076 24.6164 50.3392 22.3739 50.1004 20.3857C50.0022 19.5698 49.9095 18.7992 49.9331 18.0752C49.9575 17.308 50.0589 16.6499 50.1571 16.0136C50.2776 15.2295 50.4003 14.4181 50.3665 13.4617C50.3918 13.3613 50.402 13.2428 50.3887 13.1021C50.3023 12.1849 49.2552 9.43992 47.1208 6.95544C45.9533 5.59649 44.2508 4.07573 41.9261 3.05001C42.926 2.84276 44.2933 2.64951 45.8242 2.68351ZM24.1213 31.9569C23.0487 33.2466 22.3081 32.9994 22.0644 32.9183C20.4773 32.3889 18.6357 29.0343 17.012 23.7149C15.6071 19.112 14.7861 14.4836 14.721 13.1857C14.5159 9.08105 15.5109 6.22042 17.6785 4.68312C21.2062 2.18156 27.0059 3.67886 29.3364 4.43824C29.303 4.47133 29.2681 4.50223 29.235 4.53587C25.4107 8.39802 25.5014 14.9966 25.5108 15.4001C25.5105 15.5557 25.5235 15.776 25.5414 16.0791C25.6072 17.189 25.7297 19.2546 25.4025 21.5938C25.0985 23.7676 25.7686 25.8952 27.2406 27.4312C27.3917 27.5885 27.5505 27.7383 27.7164 27.8799C27.0612 28.5816 25.6372 30.1335 24.1213 31.9569ZM28.208 26.5042C27.0216 25.2662 26.4827 23.5441 26.7294 21.7792C27.0748 19.3082 26.9474 17.1561 26.8789 15.9998C26.8692 15.838 26.8607 15.6962 26.8558 15.5844C27.4144 15.089 30.0035 13.7019 31.8498 14.1249C32.6923 14.3178 33.2057 14.8916 33.4191 15.8784C34.5237 20.9875 33.5653 23.1169 32.7952 24.8282C32.6365 25.1807 32.4865 25.5139 32.3585 25.8586L32.2592 26.1252C32.008 26.7989 31.7742 27.4254 31.6293 28.0202C30.368 28.0166 29.141 27.4778 28.208 26.504V26.5042ZM28.4016 33.3944C28.0333 33.3024 27.7021 33.1426 27.5077 33.0101C27.6701 32.9338 27.9589 32.8298 28.46 32.7265C30.8846 32.2275 31.2592 31.8751 32.0769 30.8369C32.2643 30.5987 32.4769 30.3289 32.7712 30.0002L32.7715 29.9999C33.2099 29.509 33.4104 29.5923 33.774 29.7432C34.0687 29.865 34.3558 30.2344 34.4721 30.6409C34.5272 30.8329 34.589 31.1972 34.3867 31.4808C32.6785 33.8726 30.1893 33.8418 28.4016 33.3944ZM41.0911 45.2027C38.1248 45.8383 37.0746 44.3248 36.3825 42.5946C35.9358 41.4776 35.7162 36.4407 35.872 30.8781C35.874 30.8041 35.8634 30.7327 35.8431 30.6654C35.8248 30.5326 35.7971 30.4012 35.7602 30.2724C35.5285 29.463 34.9641 28.786 34.2869 28.5053C34.0178 28.3938 33.524 28.1893 32.9306 28.3411C33.0572 27.8197 33.2766 27.2309 33.5146 26.5933L33.6144 26.3251C33.7267 26.0228 33.8678 25.7096 34.0169 25.378C34.8228 23.5876 35.9265 21.1353 34.7286 15.5953C34.2799 13.5202 32.7815 12.5069 30.5101 12.7423C29.1485 12.8832 27.9026 13.4326 27.2812 13.7477C27.1476 13.8153 27.0254 13.8807 26.9112 13.9444C27.0847 11.8537 27.7399 7.94643 30.1909 5.47432C31.7342 3.91811 33.7894 3.14946 36.2936 3.19091C41.2276 3.27163 44.3917 5.80374 46.1773 7.91389C47.7161 9.73207 48.5492 11.5637 48.8818 12.5516C46.3811 12.2973 44.6804 12.7909 43.8183 14.0235C41.9426 16.7046 44.8443 21.9085 46.2389 24.4095C46.4947 24.8678 46.7154 25.264 46.7849 25.4323C47.239 26.5329 47.827 27.2678 48.2562 27.8041C48.3878 27.9684 48.5154 28.1279 48.6125 28.2671C47.8551 28.4855 46.4947 28.99 46.6187 31.5117C46.5187 32.777 45.8077 38.7012 45.4465 40.7942C44.9696 43.5594 43.9521 44.5893 41.0911 45.2029V45.2027ZM53.4724 31.0339C52.6979 31.3934 51.4019 31.663 50.1707 31.721C48.8109 31.7846 48.1186 31.5686 47.9557 31.4357C47.8793 29.8642 48.4642 29.7001 49.0832 29.5263C49.1805 29.499 49.2754 29.4723 49.367 29.4403C49.4239 29.4866 49.4862 29.5326 49.5546 29.5777C50.6476 30.2991 52.597 30.3769 55.3493 29.8088L55.3795 29.8028C55.0082 30.1498 54.373 30.6156 53.4724 31.0339Z" fill="white"/>
</g>
<defs>
<clipPath id="clip0">
<rect x="12" width="46.5408" height="48" fill="white"/>
</clipPath>
</defs>
</svg>
