<svg width="48" height="48" viewBox="0 0 48 48" fill="none" xmlns="http://www.w3.org/2000/svg">
<g clip-path="url(#clip0)">
<path d="M27.7733 0.0469438C38.4403 -0.602485 46.9004 6.32299 47.5266 17.0474C48.2335 29.2488 38.5149 41.7547 25.8077 44.9905C21.4111 46.0996 17.296 45.9732 13.7213 44.8469C13.4625 40.0307 14.3994 35.0134 16.4626 31.5075C19.8247 25.7947 24.9167 26.2832 27.8308 32.5937C28.9284 34.9674 29.5607 37.8295 29.7446 40.7777C30.7617 40.2376 31.7504 39.6283 32.6929 38.9731C29.5433 31.3292 28.1354 22.2773 39.4229 6.38065C36.1413 3.75411 31.0951 2.47824 24.7961 3.28861C25.7272 2.20234 26.7157 1.11606 27.7731 0.0471263H27.7733V0.0469438Z" fill="black"/>
<path d="M25.1751 12.9893C24.2612 14.9089 24.6291 16.4895 25.9913 16.5184C27.3476 16.5412 29.1924 15.0009 30.1061 13.0756C31.0201 11.156 30.6579 9.57573 29.2959 9.5469C27.9337 9.52391 26.0889 11.0642 25.1751 12.9895V12.9893ZM24.2499 7.54114C14.7094 19.2367 10.6575 34.4266 11.2267 47.9729C5.59422 45.72 1.46792 40.2888 1.03673 33.4037V33.3232C0.324164 21.1102 10.0656 8.59858 22.7899 5.37443C27.7326 4.12721 32.3994 4.46059 36.296 6.0525C35.4858 8.363 34.1293 11.0067 32.7845 13.001C29.9683 17.1851 25.9223 19.823 23.7498 18.8976C21.5831 17.9667 22.106 13.817 24.928 9.62737C25.5774 8.6619 26.2958 7.77671 27.0429 7.00083C26.1234 7.12728 25.1924 7.30556 24.2497 7.54095L24.2499 7.54114Z" fill="#B80017"/>
</g>
<defs>
<clipPath id="clip0">
<rect x="1" width="46.7136" height="48" fill="white"/>
</clipPath>
</defs>
</svg>
