<svg width="70" height="48" viewBox="0 0 70 48" fill="none" xmlns="http://www.w3.org/2000/svg">
<g clip-path="url(#clip0)">
<path d="M4.91941 20.4148C4.91941 19.6566 5.54162 19.3648 6.57234 19.3648C8.05 19.3648 9.91662 19.8121 11.3944 20.6094V16.0398C9.78059 15.3982 8.18617 15.1454 6.57234 15.1454C2.625 15.1454 0 17.2066 0 20.6483C0 26.0148 7.38883 25.1594 7.38883 27.4733C7.38883 28.3676 6.61117 28.6594 5.52221 28.6594C3.90838 28.6594 1.84721 27.9982 0.213828 27.1038V31.7316C2.02221 32.5094 3.85 32.8398 5.52221 32.8398C9.56662 32.8398 12.3472 30.8371 12.3472 27.3566C12.3278 21.5621 4.91941 22.5926 4.91941 20.4148ZM18.0638 11.2566L13.3194 12.2676L13.3 27.8426C13.3 30.7205 15.4584 32.8398 18.3362 32.8398C19.9306 32.8398 21.0972 32.5482 21.7388 32.1982V28.251C21.1168 28.5038 18.0444 29.3982 18.0444 26.5204V19.6176H21.7388V15.476H18.0444L18.0638 11.2566ZM27.7862 16.9148L27.475 15.476H23.275V32.4898H28.1362V20.9594C29.2832 19.4621 31.2278 19.7344 31.8306 19.9482V15.476C31.2084 15.2426 28.9334 14.8148 27.7862 16.9148ZM33.0166 15.476H37.8972V32.4898H33.0166V15.476ZM33.0166 13.9982L37.8972 12.9482V9.00098L33.0166 10.0316V13.998V13.9982ZM48.0472 15.1454C46.1416 15.1454 44.9166 16.0398 44.2362 16.6621L43.9832 15.4566H39.7056V38.1286L44.5666 37.0982L44.5862 31.5954C45.2862 32.101 46.3166 32.8204 48.0278 32.8204C51.5084 32.8204 54.6778 30.0204 54.6778 23.8566C54.6584 18.2176 51.45 15.1454 48.0472 15.1454ZM46.8806 28.5426C45.7334 28.5426 45.0527 28.1344 44.5862 27.6288L44.5666 20.4148C45.0722 19.851 45.7722 19.4621 46.8806 19.4621C48.65 19.4621 49.875 21.4454 49.875 23.9926C49.875 26.5982 48.6694 28.5426 46.8806 28.5426ZM70 24.051C70 19.0732 67.5888 15.1454 62.9806 15.1454C58.3527 15.1454 55.5527 19.0733 55.5527 24.0121C55.5527 29.8648 58.8584 32.8204 63.6027 32.8204C65.9166 32.8204 67.6666 32.2954 68.9888 31.5566V27.6676C67.6668 28.3288 66.15 28.7371 64.225 28.7371C62.3388 28.7371 60.6666 28.076 60.4528 25.7816H69.9612C69.9612 25.5286 70 24.5176 70 24.051ZM60.3944 22.2038C60.3944 20.0066 61.7362 19.0926 62.9612 19.0926C64.1472 19.0926 65.4112 20.0066 65.4112 22.2038H60.3944Z" fill="#6772E5"/>
</g>
<defs>
<clipPath id="clip0">
<rect y="9" width="70" height="29.26" fill="white"/>
</clipPath>
</defs>
</svg>
