<svg width="48" height="48" viewBox="0 0 48 48" fill="none" xmlns="http://www.w3.org/2000/svg">
<path d="M38.9348 17.1137C38.4429 16.9449 37.9468 16.7886 37.447 16.6449C37.5299 16.3081 37.6066 15.9698 37.6769 15.6302C38.8031 10.1633 38.0668 5.7592 35.5522 4.30945C33.1413 2.919 29.1983 4.36876 25.2159 7.83423C24.8235 8.17649 24.4398 8.52861 24.0652 8.89026C23.8143 8.64978 23.559 8.41398 23.2994 8.18297C19.1258 4.47717 14.9424 2.91573 12.4305 4.36978C10.0219 5.76411 9.30847 9.90455 10.3224 15.0855C10.4232 15.5985 10.5371 16.109 10.6639 16.6162C10.072 16.7844 9.50033 16.9635 8.95339 17.1542C4.06046 18.86 0.935547 21.5337 0.935547 24.3068C0.935547 27.1712 4.28995 30.0441 9.3866 31.7859C9.79987 31.9265 10.2166 32.0568 10.6363 32.1766C10.5 32.7231 10.3789 33.2733 10.2733 33.8266C9.30663 38.9175 10.0616 42.9598 12.4639 44.3455C14.9451 45.7762 19.1095 44.3056 23.1646 40.761C23.4851 40.4808 23.8069 40.1836 24.129 39.8721C24.5348 40.2636 24.9514 40.6437 25.3783 41.012C29.3063 44.3919 33.1855 45.7568 35.5857 44.3674C38.0647 42.9324 38.8702 38.5898 37.8242 33.3064C37.7444 32.9029 37.6514 32.4907 37.547 32.071C37.8395 31.9847 38.1265 31.8955 38.4065 31.8027C43.7048 30.0474 47.1519 27.2094 47.1519 24.3068C47.1519 21.5237 43.9263 18.832 38.9348 17.1137Z" fill="#53C1DE"/>
<path d="M37.7854 29.9297C37.5328 30.0134 37.2735 30.0942 37.0092 30.1725C36.4243 28.3208 35.6347 26.3517 34.6689 24.3176C35.5908 22.3316 36.3496 20.3879 36.9182 18.548C37.3909 18.6851 37.8499 18.8293 38.2921 18.9817C42.569 20.4537 45.1776 22.6306 45.1776 24.3078C45.1776 26.0944 42.3601 28.4139 37.7857 29.9297H37.7854ZM35.8873 33.6909C36.3498 36.0272 36.4159 38.1394 36.1095 39.7906C35.8342 41.2743 35.2807 42.2635 34.5963 42.6597C33.1398 43.5028 30.0249 42.4069 26.666 39.5164C26.2809 39.185 25.8929 38.8312 25.5038 38.4569C26.8061 37.0325 28.1076 35.3765 29.3778 33.5377C31.6121 33.3395 33.7229 33.0154 35.6372 32.5729C35.7313 32.9534 35.8151 33.3262 35.8873 33.6909ZM16.6916 42.514C15.2686 43.0166 14.1353 43.0309 13.4503 42.6359C11.9923 41.7953 11.3865 38.5493 12.213 34.1957C12.3113 33.6812 12.4239 33.1696 12.5505 32.6613C14.4435 33.08 16.539 33.3813 18.7787 33.5629C20.0572 35.3622 21.3963 37.0161 22.7459 38.4644C22.459 38.7419 22.1654 39.0122 21.8653 39.2752C20.0721 40.8428 18.2753 41.9546 16.6918 42.514H16.6916ZM10.0251 29.9187C7.77151 29.1484 5.91043 28.1474 4.63473 27.0551C3.48851 26.0734 2.90967 25.0988 2.90967 24.3078C2.90967 22.6251 5.41872 20.4785 9.60334 19.0195C10.1286 18.8372 10.659 18.6703 11.194 18.519C11.7725 20.4001 12.5311 22.367 13.4466 24.3559C12.5192 26.3744 11.7498 28.3726 11.166 30.2758C10.7828 30.1661 10.4024 30.047 10.0251 29.9187ZM12.2599 14.7073C11.3912 10.2682 11.968 6.91971 13.4196 6.07947C14.9659 5.18442 18.3847 6.46073 21.9882 9.6603C22.2186 9.86484 22.4499 10.079 22.6816 10.3005C21.339 11.7423 20.0122 13.3837 18.7447 15.1726C16.5711 15.374 14.4903 15.6976 12.5775 16.131C12.4597 15.6591 12.3538 15.1843 12.2599 14.707V14.7073ZM32.1955 19.6298C31.7437 18.8494 31.2751 18.0788 30.7901 17.3186C32.2648 17.5047 33.6775 17.7522 35.0042 18.0551C34.6059 19.3316 34.1095 20.6664 33.5249 22.0348C33.0978 21.2244 32.6546 20.4226 32.1955 19.6298ZM24.0657 11.7114C24.9763 12.6979 25.8884 13.7995 26.7855 14.9946C24.9657 14.9086 23.1429 14.9082 21.3231 14.9934C22.221 13.8093 23.1408 12.7093 24.0657 11.7114ZM15.8838 19.6433C15.4305 20.4298 14.9955 21.2266 14.5793 22.0334C14.0044 20.6697 13.5124 19.329 13.1107 18.0342C14.4294 17.7391 15.8356 17.498 17.3007 17.3149C16.8102 18.0798 16.3378 18.8562 15.8838 19.6433ZM17.3428 31.4416C15.8292 31.2727 14.4018 31.0438 13.0835 30.7569C13.4916 29.4392 13.9943 28.0696 14.5816 26.6768C14.9995 27.4841 15.4364 28.2814 15.8918 29.0682C16.3566 29.8708 16.8404 30.6621 17.3428 31.4416ZM24.1203 37.0437C23.1846 36.0339 22.2513 34.9171 21.3397 33.7159C22.2245 33.7507 23.1267 33.7683 24.0436 33.7683C24.9857 33.7683 25.917 33.7472 26.8335 33.7063C25.9336 34.9294 25.0248 36.0478 24.1203 37.0437ZM33.5438 26.6058C34.1615 28.0138 34.6822 29.376 35.0958 30.6714C33.7557 30.9771 32.309 31.2234 30.7846 31.4063C31.2731 30.6318 31.7461 29.8477 32.2034 29.0545C32.6683 28.2483 33.1152 27.4319 33.5438 26.6058ZM30.4931 28.0682C29.793 29.2844 29.0536 30.4775 28.2759 31.6456C26.9047 31.7435 25.4877 31.7941 24.0436 31.7941C22.6055 31.7941 21.2065 31.7493 19.8592 31.6619C19.0614 30.4965 18.308 29.3014 17.6005 28.0791C16.8964 26.8632 16.2387 25.621 15.6288 24.3553C16.2371 23.0891 16.8928 21.8463 17.5946 20.6294V20.6298C18.2961 19.4127 19.0436 18.2227 19.8355 17.0623C21.21 16.9584 22.6192 16.904 24.0438 16.904C25.4748 16.904 26.8859 16.9588 28.26 17.0635C29.0438 18.2221 29.7865 19.408 30.4868 20.619C31.1909 21.8331 31.8554 23.0699 32.4791 24.3272C31.8618 25.5974 31.1995 26.8452 30.4933 28.0682H30.4931ZM34.566 6.02077C36.1136 6.91337 36.7155 10.5126 35.7431 15.2327C35.6794 15.5402 35.6101 15.8465 35.5353 16.1515C33.618 15.7091 31.5358 15.3798 29.3559 15.1752C28.0859 13.3669 26.7701 11.7226 25.4492 10.2995C25.7953 9.96579 26.1497 9.64075 26.512 9.32466C29.9241 6.35519 33.113 5.18278 34.566 6.02077Z" fill="white"/>
<path d="M24.0439 20.1807C26.3233 20.1807 28.1709 22.0285 28.1709 24.3077C28.1709 26.587 26.3233 28.4348 24.0439 28.4348C21.7648 28.4348 19.917 26.587 19.917 24.3077C19.917 22.0285 21.7648 20.1807 24.0439 20.1807Z" fill="#53C1DE"/>
</svg>
