<svg width="48" height="48" viewBox="0 0 48 48" fill="none" xmlns="http://www.w3.org/2000/svg">
<path d="M40.9795 9.40918L37.8893 44.0278L23.9986 47.8787L10.1461 44.0331L7.05908 9.40918H40.9795Z" fill="#E44D26"/>
<path d="M24.019 44.9352L35.2434 41.8234L37.8841 12.2402H24.019V44.9352Z" fill="#F16529"/>
<path d="M18.0124 20.7328H24.0197V16.4863H13.3716L13.4732 17.6256L14.5169 29.3277H24.0197V25.0813H18.4005L18.0124 20.7328ZM18.9695 31.451H14.7067L15.3016 38.1186L24.0002 40.5333L24.0197 40.528V36.1098L24.0011 36.1147L19.2719 34.8378L18.9695 31.451Z" fill="#EBEBEB"/>
<path d="M10.2153 0H12.3733V2.13208H14.3475V0H16.5056V6.45647H14.3476V4.29447H12.3735V6.45647H10.2155V0H10.2153ZM19.3433 2.14112H17.4438V0H23.4024V2.14112H21.5017V6.45647H19.3437V2.14112H19.3436H19.3433ZM24.3481 0H26.5982L27.9824 2.26863L29.3652 0H31.6163V6.45647H29.4671V3.25629L27.9824 5.55191H27.9451L26.4595 3.25629V6.45647H24.3481V0ZM32.6902 0H34.8489V4.32239H37.8837V6.45647H32.6901V0H32.6902Z" fill="black"/>
<path d="M24.0045 29.3277H29.2336L28.7406 34.8351L24.0044 36.1134V40.5313L32.7099 38.1186L32.7738 37.4012L33.7718 26.2216L33.8754 25.0813H24.0045V29.3277ZM24.0045 20.7224V20.7328H34.2618L34.3469 19.7784L34.5405 17.6256L34.6419 16.4863H24.0045V20.7226V20.7224Z" fill="white"/>
</svg>
