<svg width="48" height="48" viewBox="0 0 48 48" fill="none" xmlns="http://www.w3.org/2000/svg">
<g clip-path="url(#clip0)">
<path d="M14.2378 22.2615C14.2378 22.2615 13.6834 22.147 13.5206 22.1959C13.3576 22.2449 12.4275 22.0825 12.0196 21.7884C11.6114 21.4955 11.204 21.7075 10.8288 21.4791C10.4542 21.2505 9.88268 21.2829 9.45917 21.267C9.03514 21.251 8.49665 21.2829 8.30086 21.544C8.10508 21.8045 7.33886 22.604 7.06158 22.9295C6.78448 23.2555 5.65897 24.429 5.21854 24.608C5.21854 24.608 5.33232 24.7881 5.2674 24.9181C5.20197 25.0489 5.251 25.4231 5.251 25.5539C5.251 25.685 5.28346 25.896 5.17003 26.027C5.05522 26.1575 4.9903 26.369 4.9903 26.4505C4.9903 26.532 4.85943 26.8255 4.9903 27.2171C5.12065 27.6085 5.23443 28.048 4.69662 27.869C4.15813 27.69 4.27242 27.201 3.83234 27.1841C3.39242 27.168 2.82147 27.1841 2.65814 26.5816C2.4943 25.978 2.18508 24.951 2.11965 24.7881C2.05473 24.6254 1.82649 23.8754 2.25052 23.2235C2.67455 22.5714 2.75604 22.0985 2.82147 21.9514C2.88639 21.805 3.19664 20.8755 3.42436 20.7444C3.65261 20.6139 3.57077 20.2065 3.70164 20.0274C3.83199 19.848 3.78296 19.5545 3.86445 19.3915C3.94577 19.2284 3.97874 18.756 4.09269 18.3974C4.20699 18.039 4.58215 17.4839 4.8104 17.1909C5.03864 16.898 5.16951 16.4579 5.16951 16.311C5.16951 16.1639 5.08819 15.8548 5.46284 15.5939C5.83749 15.3329 6.50617 14.4854 6.5716 14.3548C6.5716 14.3224 6.5716 13.7193 6.53862 13.5073C6.50617 13.2953 6.45731 13.0998 6.66898 13.0183C6.88185 12.9363 7.17501 12.757 7.17501 12.757C7.17501 12.757 6.97146 12.4964 6.53086 12.2761C6.09043 12.0563 4.76931 10.5646 4.64707 9.68447C4.52449 8.80413 4.47563 7.41033 5.67451 6.92121C6.87357 6.43175 8.19417 6.1631 8.39047 6.13876C8.58625 6.11459 9.27116 5.96749 9.54066 6.1631C9.54066 6.1631 9.24681 6.11459 9.12475 6.1631C9.00217 6.21196 9.71124 6.18779 9.88268 6.38323C9.88268 6.38323 9.54066 6.28586 9.34471 6.31003C9.14944 6.3342 9.68742 6.5545 9.78531 6.72577C9.88268 6.89704 10.2501 7.01927 10.2012 7.28844C10.1527 7.55725 10.128 7.97299 10.1765 8.09523C10.2259 8.21747 10.348 8.43777 10.3727 8.77979C10.3974 9.12232 10.4954 9.5871 10.5928 9.80688C10.6907 10.027 10.9353 10.7116 10.8374 11.2005C10.8374 11.2005 10.9353 11.4452 11.4244 10.8828C11.9139 10.32 12.4034 10.2226 12.6477 10.2226C12.8923 10.2226 13.2597 9.97763 13.504 10.0755C13.7492 10.1736 14.0187 10.0514 14.312 10.1246C14.6052 10.1978 15.8284 10.1246 16.0979 10.0265C16.3664 9.9286 17.2964 9.80636 17.4917 9.80636C17.6875 9.80636 17.2474 9.48851 17.6143 9.24404C17.9817 8.99957 17.2227 8.87733 17.7859 8.1686C18.3481 7.45936 17.8096 7.26375 17.7122 7.11734C17.6148 6.97024 17.5901 6.50547 17.5901 6.23682C17.5901 5.96749 17.5169 5.28293 17.5169 5.28293L17.6148 5.1607C17.6148 5.1607 17.5357 5.03069 17.4582 4.98459C17.3812 4.9385 17.3042 4.66105 17.2431 4.47631C17.1806 4.29141 16.5026 3.28969 16.3023 3.13586C16.1017 2.98099 16.0711 2.75068 16.1017 2.53469C16.1328 2.31836 16.2864 2.13397 16.2559 1.90262C16.2248 1.67179 16.2403 1.36361 16.2248 1.25605C16.2098 1.14779 16.2559 0.501047 16.3949 0.439411C16.3949 0.439411 16.5026 0.392968 16.549 0.546627C16.549 0.546627 16.4715 0.00778598 16.6411 0.00778598C16.6411 0.00778598 16.8419 -0.0538501 16.9189 0.223598C16.9953 0.501047 17.073 0.654878 17.0884 0.732053C17.1039 0.809227 17.1656 0.931981 17.1656 0.931981C17.1656 0.931981 17.3346 0.85567 17.4738 0.916788C17.6124 0.978424 17.7055 1.04006 17.7055 1.11723C17.7055 1.19441 17.7055 1.0556 17.875 1.0556C18.0442 1.0556 18.1987 1.00898 18.2453 1.17887C18.2909 1.34807 18.3223 1.47186 18.3374 1.64123C18.3534 1.81042 18.384 1.94924 18.4454 2.07251C18.5076 2.19561 18.5991 2.41107 18.5991 2.70406C18.5991 2.99705 18.7077 3.53606 18.7538 3.78295C18.7997 4.02949 19.3242 4.98459 19.3242 4.98459C19.3242 4.98459 20.1257 5.13894 20.4955 5.06177C20.8658 4.98459 21.5127 5.12341 21.4362 5.46249C21.3592 5.80106 21.3131 6.80294 21.2821 7.58885C21.2512 8.37475 21.1275 9.89994 21.0044 10.4395C20.8808 10.9783 20.1257 12.3809 19.8175 12.6118C19.5098 12.8433 19.17 12.9969 18.3223 13.3977C17.4743 13.7984 16.4876 14.2452 16.4876 14.2452C16.4876 14.2452 17.0119 14.9845 17.135 15.0311C17.2581 15.0772 17.2431 14.9234 17.3968 14.9845C17.4732 15.0152 17.7393 15.1195 17.5703 15.0501C17.5699 15.0565 18.499 15.2942 18.499 15.2942C18.5879 15.2925 18.6431 15.2764 18.6319 15.2238C18.5855 15.0087 18.8016 14.7314 18.8938 14.6692C18.9863 14.6078 18.7552 14.9465 18.8938 15.1002C19.033 15.2549 21.0257 14.6649 20.9884 14.7706C20.9514 14.8762 21.0965 14.8845 21.2235 14.7851C21.3496 14.6861 21.8775 14.3426 22.2537 14.344C22.631 14.3458 23.4844 14.4211 23.7132 14.3377C23.9421 14.2547 24.9827 13.613 25.3302 13.4432C25.6769 13.2727 26.8749 13.2891 27.3808 12.9488C27.8865 12.608 29 11.8105 29.4703 11.5203C29.9403 11.2302 33.4268 9.09919 34.1706 8.98334C34.9143 8.86749 36.6971 8.16463 37.0025 7.94692C37.3081 7.72973 38.2691 7.2009 38.4616 7.03516C38.6545 6.86924 39.6184 7.29051 40.1208 8.00459C40.1208 8.00459 41.1006 7.52514 41.3121 7.50684C41.5229 7.48837 41.9137 7.21644 42.2133 6.98716C42.5135 6.75736 43.4172 6.14895 43.8124 5.95644C43.8124 5.95644 44.0121 5.86873 44.0505 5.72854C44.0888 5.58852 44.2483 5.32092 44.3918 5.37616C44.3918 5.37616 44.7065 4.97475 44.834 5.09561C44.834 5.09561 45.1104 4.83422 45.2689 4.97631C45.2689 4.97631 45.4254 4.99858 45.4783 5.08283C45.4783 5.08283 45.6772 4.92244 45.7692 5.04416C45.7692 5.04416 45.9128 4.88221 46.1547 5.0723C46.1547 5.0723 46.3158 5.2705 46.0195 5.63514C46.0195 5.63514 45.8338 5.73113 45.7038 5.99857C45.5748 6.26618 45.2136 6.7748 44.8181 6.97404C44.4213 7.17328 43.9636 7.52324 43.9807 8.2387C43.9981 8.95485 43.6931 9.7872 42.9412 9.60005C42.1891 9.41289 41.5298 9.66548 40.8713 10.0237C40.8713 10.0237 40.8136 10.4018 40.7501 10.492C40.686 10.5817 40.3917 10.5526 39.987 10.8062C39.5825 11.0591 39.3357 11.1542 39.0167 11.3927C38.6971 11.6313 38.6287 11.7922 38.3603 11.9167C38.0916 12.0424 37.79 12.3826 37.612 12.5712C37.4331 12.7592 36.7752 13.2222 35.9975 13.6003C35.2192 13.979 32.0207 15.1197 31.2813 15.7193C30.5409 16.3189 29.1799 17.3931 27.1145 18.4035C27.0287 18.4451 26.9491 18.4858 26.8682 18.5261C26.7432 18.64 24.9671 20.2639 24.359 20.6887C23.7287 21.1288 23.4766 21.1918 23.2876 22.1987C23.1634 22.8623 22.6567 23.9336 22.3067 24.7869C22.2418 25.4951 22.1951 26.2048 22.1666 26.9155C22.1422 27.551 21.3282 33.871 21.1324 34.5545C20.9359 35.2391 20.8876 35.7524 20.9855 36.29C21.0833 36.8266 20.8385 37.4621 20.5452 37.9998C20.2508 38.5374 19.7617 39.8079 19.8349 40.541C19.9081 41.2739 19.9818 41.5429 19.7617 41.6404C19.5411 41.7378 18.8313 41.7142 18.7338 41.9585C18.6359 42.2028 18.2688 42.2028 18.2688 42.2028C18.2688 42.2028 18.1587 43.293 18.3506 43.485C18.5432 43.676 19.222 44.4791 18.3962 45.0774C17.5696 45.6766 16.6984 46.2079 16.4952 46.6262C16.2911 47.0437 15.8382 47.2816 15.6685 47.417C15.4988 47.5521 15.1934 47.7446 15.1706 47.8232C15.1483 47.9026 14.8995 48.0495 14.6615 47.9822C14.6615 47.9822 14.4579 48.0718 14.2426 47.8343C14.2426 47.8343 13.8925 47.8683 13.8241 47.6428C13.8241 47.6428 13.5297 47.6647 13.4959 47.4392C13.4959 47.4392 13.3485 47.1115 13.7901 46.9764C14.2309 46.8401 14.933 45.8569 14.9558 45.6989C14.9781 45.5409 15.3068 44.5572 15.5556 44.1511C15.8042 43.7438 16.1324 42.6817 16.178 41.7102C16.178 41.7102 16.0767 41.6429 16.0767 41.5415C16.0767 41.4393 16.0825 40.9725 16.1316 40.7936C16.181 40.6137 16.2785 40.093 16.2136 39.3271C16.148 38.5621 16.3115 37.3076 16.2136 36.4442C16.1155 35.5808 16.3018 29.587 16.5625 28.8051C16.8239 28.0232 16.9214 27.8443 16.9054 27.5346C16.8888 27.2248 16.9054 26.2799 17.0033 26.2314C17.1008 26.1826 17.1172 24.9933 17.0848 24.8625C17.0518 24.7326 16.3502 24.2439 16.2528 23.9017C16.2528 23.9017 16.2688 24.2599 16.2528 24.3903C16.2362 24.5208 16.2203 24.3578 15.9589 24.0805C15.6972 23.8033 15.2079 23.2171 15.1754 22.7934C15.1171 22.762 14.394 22.3366 14.394 22.3366C14.3042 22.3406 14.2595 22.2983 14.2378 22.2615Z" fill="black"/>
<path d="M17.5735 15.0381C17.4994 16.3613 14.3933 22.3876 14.3933 22.3876C14.2847 22.9209 14.3073 23.4187 14.362 23.7146C14.4936 24.4244 13.8354 25.4889 13.8354 25.4889L14.5523 25.8646C15.5203 25.3056 15.1051 23.6292 15.1051 23.6292C15.0302 23.3488 15.0144 23.056 15.0587 22.7692L15.0663 22.7769C15.0663 22.7769 18.589 15.8217 18.4184 15.2739C18.4179 15.2748 17.998 15.2145 17.5735 15.0381Z" fill="#991B21"/>
</g>
<defs>
<clipPath id="clip0">
<rect x="2" width="44.1984" height="48" fill="white"/>
</clipPath>
</defs>
</svg>
