<svg width="70" height="48" viewBox="0 0 70 48" fill="none" xmlns="http://www.w3.org/2000/svg">
<g clip-path="url(#clip0)">
<g clip-path="url(#clip1)">
<path d="M21.4269 39.1879H19.5319C19.4648 35.9891 19.2803 32.9818 18.9785 30.1639H18.9617L16.0764 39.1879H14.6335L11.7654 30.1639H11.749C11.5362 32.8694 11.4022 35.8774 11.3465 39.1879H9.61914C9.73047 35.1622 10.0102 31.3881 10.4574 27.8652H12.8062L15.5399 36.185H15.5567L18.3073 27.8652H20.5547C21.0468 31.9916 21.3376 35.7661 21.4269 39.1879ZM29.6456 30.834C28.874 35.0212 27.856 38.0636 26.5926 39.9627C25.6082 41.4246 24.5298 42.1563 23.3554 42.1563C23.0423 42.1563 22.6559 42.0618 22.1982 41.8743V40.8647C22.4219 40.8969 22.6845 40.9152 22.9862 40.9152C23.5348 40.9152 23.9757 40.7644 24.3119 40.4619C24.714 40.0935 24.915 39.6793 24.915 39.2212C24.915 38.907 24.7583 38.2647 24.4455 37.292L22.3659 30.8337H24.2277L25.7203 35.6639C26.0557 36.7607 26.1956 37.5264 26.1396 37.9625C26.9559 35.7825 27.526 33.4055 27.8508 30.8333H29.6456V30.834Z" fill="#5D87A1"/>
<path d="M54.872 39.1874H49.4888V27.8647H51.2997V37.7936H54.872V39.1874ZM48.0797 39.4609L45.9982 38.4337C46.1828 38.2821 46.3593 38.1181 46.5182 37.928C47.4029 36.8887 47.8442 35.3518 47.8442 33.316C47.8442 29.5702 46.3743 27.6963 43.4333 27.6963C41.9912 27.6963 40.8662 28.1716 40.0617 29.1227C39.1777 30.1627 38.7364 31.6941 38.7364 33.7189C38.7364 35.7092 39.1275 37.1692 39.9101 38.0954C40.626 38.9343 41.7052 39.3544 43.1484 39.3544C43.6867 39.3544 44.1807 39.2885 44.6308 39.1555L47.3407 40.7331L48.0797 39.4609ZM41.3368 36.9217C40.8783 36.1842 40.6491 34.9999 40.6491 33.367C40.6491 30.5161 41.5151 29.089 43.2491 29.089C44.1555 29.089 44.8198 29.4303 45.2445 30.1114C45.7023 30.85 45.9326 32.0237 45.9326 33.6339C45.9326 36.5082 45.0658 37.9456 43.333 37.9456C42.4263 37.946 41.762 37.6058 41.3368 36.9217ZM37.9472 36.049C37.9472 37.0092 37.5949 37.7969 36.8911 38.414C36.1865 39.0285 35.2417 39.3364 34.0578 39.3364C32.9504 39.3364 31.8767 38.9827 30.8374 38.2788L31.3241 37.3066C32.2184 37.7544 33.028 37.9771 33.7549 37.9771C34.4372 37.9771 34.9704 37.8258 35.3571 37.5259C35.7434 37.2249 35.9738 36.8027 35.9738 36.2687C35.9738 35.596 35.5047 35.0211 34.6441 34.5395C33.8505 34.1038 32.2634 33.1926 32.2634 33.1926C31.4032 32.5657 30.9725 31.8926 30.9725 30.7838C30.9725 29.866 31.2937 29.1252 31.9364 28.5616C32.5798 27.9958 33.41 27.7139 34.4277 27.7139C35.4787 27.7139 36.4341 27.9955 37.2947 28.5528L36.8581 29.5255C36.1221 29.2127 35.3955 29.0564 34.6789 29.0564C34.0984 29.0564 33.6502 29.1959 33.3386 29.476C33.0244 29.7551 32.8306 30.1121 32.8306 30.5501C32.8306 31.2195 33.3096 31.8018 34.1936 32.2929C34.9978 32.7294 36.6245 33.6562 36.6245 33.6562C37.5067 34.2821 37.9472 34.9489 37.9472 36.049Z" fill="#F8981D"/>
<path d="M57.1448 24.0722C56.0499 24.0443 55.2021 24.1546 54.4906 24.4556C54.2851 24.5376 53.9585 24.5376 53.9299 24.7973C54.0409 24.9071 54.0537 25.0844 54.15 25.236C54.3141 25.5095 54.6001 25.8776 54.8612 26.0694C55.1479 26.2892 55.4358 26.5067 55.7375 26.6982C56.2696 27.0274 56.8727 27.219 57.3913 27.5471C57.6934 27.7379 57.9937 27.9847 58.2962 28.1901C58.4448 28.2996 58.5401 28.4772 58.7331 28.5457V28.504C58.6364 28.3809 58.6089 28.2029 58.5141 28.066L58.1032 27.6697C57.7062 27.1366 57.2129 26.6711 56.6808 26.2888C56.2429 25.987 55.2849 25.5769 55.1073 25.0723L55.0794 25.0444C55.3805 25.0162 55.7375 24.9071 56.0235 24.8233C56.489 24.7006 56.9134 24.7284 57.3909 24.6057C57.6106 24.5508 57.8285 24.482 58.049 24.4142V24.2908C57.8014 24.0443 57.6249 23.717 57.3646 23.4841C56.668 22.8824 55.9005 22.2939 55.1073 21.8014C54.6825 21.5271 54.1361 21.3506 53.6838 21.1173C53.5209 21.0349 53.2462 20.9942 53.1503 20.8573C52.9049 20.5563 52.7669 20.16 52.5889 19.8037C52.1934 19.0519 51.8092 18.2177 51.4679 17.4227C51.2211 16.8895 51.071 16.357 50.77 15.8637C49.3601 13.5384 47.829 12.1299 45.4757 10.7475C44.97 10.4597 44.3683 10.337 43.7257 10.1861L42.6992 10.1319C42.4802 10.036 42.2608 9.77562 42.0697 9.65258C41.2889 9.1604 39.2788 8.09365 38.7046 9.50207C38.3348 10.3923 39.2517 11.2675 39.5667 11.7191C39.7992 12.0325 40.1006 12.3892 40.2632 12.7452C40.3595 12.9777 40.3866 13.2245 40.4829 13.4702C40.7019 14.0723 40.9066 14.7421 41.1945 15.3038C41.3446 15.5902 41.5083 15.8912 41.7002 16.1505C41.81 16.3021 42.0012 16.3691 42.043 16.6163C41.8522 16.8887 41.8371 17.3 41.7276 17.642C41.2355 19.1878 41.4277 21.1026 42.1253 22.2386C42.3436 22.5806 42.8643 23.3335 43.5609 23.045C44.1776 22.7989 44.041 22.0192 44.2182 21.3355C44.2589 21.1704 44.2321 21.062 44.3141 20.9536V20.9803C44.5049 21.363 44.6976 21.7318 44.8744 22.1156C45.2989 22.7853 46.0379 23.4833 46.6535 23.9473C46.9812 24.1949 47.2408 24.6182 47.6514 24.7694V24.7284H47.6243C47.5411 24.6057 47.4196 24.5508 47.3104 24.4556C47.0636 24.2091 46.7904 23.9081 46.5989 23.6349C46.0254 22.8685 45.5179 22.02 45.0674 21.1444C44.847 20.7196 44.6569 20.2552 44.4793 19.8312C44.3965 19.6675 44.3965 19.4207 44.2592 19.3383C44.0534 19.6389 43.7535 19.8993 43.6033 20.2677C43.343 20.8569 43.3159 21.5816 43.2192 22.3353L43.1654 22.3616C42.7296 22.2521 42.578 21.8013 42.4125 21.4187C42.0027 20.4468 41.9338 18.8867 42.2894 17.7654C42.3846 17.4787 42.7966 16.5756 42.6322 16.3025C42.5498 16.0406 42.2759 15.8916 42.1257 15.6854C41.9492 15.4261 41.7558 15.098 41.6328 14.8102C41.3047 14.0444 41.1395 13.196 40.7861 12.4306C40.621 12.0739 40.3342 11.7048 40.1021 11.3763C39.8413 11.0072 39.5546 10.7472 39.3484 10.3095C39.2803 10.159 39.1847 9.91295 39.2942 9.74926C39.321 9.63939 39.3766 9.59838 39.4857 9.57091C39.663 9.42114 40.1695 9.61156 40.3471 9.69396C40.8543 9.89903 41.2783 10.0906 41.7016 10.3777C41.8932 10.515 42.0986 10.775 42.3443 10.8435H42.6322C43.0691 10.9387 43.5616 10.8698 43.9728 10.9936C44.6976 11.2265 45.3542 11.5682 45.943 11.9369C47.7349 13.0733 49.2125 14.6879 50.21 16.6163C50.3737 16.9305 50.4433 17.2183 50.5927 17.5461C50.8809 18.217 51.2372 18.901 51.5232 19.5576C51.8107 20.2003 52.0846 20.8565 52.4951 21.3905C52.6998 21.6776 53.5223 21.8281 53.8911 21.9786C54.1639 22.1013 54.5887 22.2104 54.8348 22.3609C55.3003 22.6476 55.7639 22.9769 56.2015 23.2922C56.4194 23.4562 57.1042 23.7983 57.1448 24.0722ZM43.1903 12.1838C43.0014 12.1818 42.8131 12.205 42.6303 12.2526V12.2801H42.6567C42.7669 12.4987 42.9585 12.6503 43.0951 12.8411C43.2053 13.0605 43.3009 13.278 43.4089 13.497L43.4353 13.4699C43.6282 13.3333 43.7242 13.1143 43.7242 12.7858C43.6411 12.6891 43.6282 12.5946 43.559 12.4987C43.4785 12.3617 43.3009 12.2936 43.1903 12.1838Z" fill="#5D87A1"/>
<path d="M58.4482 39.1864H58.7316V37.7992H58.3065L57.9597 38.7458L57.5829 37.7992H57.1734V39.1864H57.4411V38.131H57.4562L57.8509 39.1864H58.0549L58.4482 38.131V39.1864ZM56.1649 39.1864H56.4648V38.0343H56.8574V37.7988H55.7559V38.0343H56.1642L56.1649 39.1864Z" fill="#F8981D"/>
</g>
</g>
<defs>
<clipPath id="clip0">
<rect width="70" height="48" fill="white"/>
</clipPath>
<clipPath id="clip1">
<rect width="70" height="48.524" fill="white"/>
</clipPath>
</defs>
</svg>
