<svg width="70" height="48" viewBox="0 0 70 48" fill="none" xmlns="http://www.w3.org/2000/svg">
<g clip-path="url(#clip0)">
<path d="M60.9291 32.4122V35.6125H66.7108C67.8954 35.6125 69.9287 34.7461 69.9995 32.3238V31.0861C69.9995 29.0174 68.3021 27.7974 66.7108 27.7974H63.8288V26.3122H69.5398V23.0943H64.0586C62.6441 23.0943 60.7523 24.2612 60.7523 26.436V27.5499C60.7523 29.7247 62.6265 30.8386 64.0586 30.8386C68.0369 30.8563 63.1039 30.8386 66.7815 30.8386V32.3945L60.9291 32.4122ZM29.9518 31.6342C29.9518 31.6342 33.046 31.369 33.046 27.3731C33.046 23.3772 29.2976 23.0059 29.2976 23.0059H22.5435V35.6125H25.9382V32.5713L28.8733 35.6125H33.8947L29.9518 31.6342ZM28.6434 29.0528H25.9382V26.1708H28.6611C28.6611 26.1708 29.4214 26.4537 29.4214 27.6029C29.4214 28.7522 28.6434 29.0528 28.6434 29.0528ZM41.4268 23.0943H37.979C35.5214 23.0943 34.6904 25.3221 34.6904 26.3829V35.6125H38.1382V33.4023H41.3738V35.6125H44.7155V26.3829C44.7155 23.6954 42.2755 23.0943 41.4268 23.0943ZM41.3738 29.8308H38.1205V26.7719C38.1205 26.7719 38.1205 26.0824 39.199 26.0824H40.3837C41.3384 26.0824 41.3561 26.7719 41.3561 26.7719V29.8308H41.3738ZM46.2891 23.0943H49.8784V35.6125H46.2891V23.0943ZM54.9175 32.3768V23.0943H51.3459V35.6125H59.7444V32.3768H54.9175Z" fill="#CC0000"/>
<path d="M1.23779 35.6118H15.2058C15.2058 35.6118 12.5359 23.4296 21.3764 18.4966C23.3037 17.5595 29.439 14.0586 39.4818 21.4847C39.8 21.2195 40.1006 21.0073 40.1006 21.0073C40.1006 21.0073 30.9065 11.8308 20.6692 12.8563C15.524 13.316 9.19423 18.0015 5.48123 24.1899C1.76822 30.3782 1.23779 35.6118 1.23779 35.6118Z" fill="#CC0000"/>
<path d="M1.23779 35.6118H15.2058C15.2058 35.6118 12.5359 23.4296 21.3764 18.4966C23.3037 17.5595 29.439 14.0586 39.4818 21.4847C39.8 21.2195 40.1006 21.0073 40.1006 21.0073C40.1006 21.0073 30.9065 11.8308 20.6692 12.8563C15.524 13.316 9.19423 18.0015 5.48123 24.1899C1.76822 30.3782 1.23779 35.6118 1.23779 35.6118Z" fill="#CC0000"/>
<path d="M1.23779 35.6118H15.2058C15.2058 35.6118 12.5359 23.4296 21.3764 18.4965C23.3037 17.5595 29.439 14.0586 39.4818 21.4846C39.8 21.2194 40.1006 21.0073 40.1006 21.0073C40.1006 21.0073 30.9065 11.8308 20.6692 12.8563C15.5063 13.316 9.17655 18.0015 5.46355 24.1898C1.75054 30.3782 1.23779 35.6118 1.23779 35.6118ZM30.3407 13.8464L30.4114 12.6618C30.2523 12.5734 29.8103 12.3612 28.6964 12.043L28.6256 13.2099C29.2091 13.4044 29.7749 13.6166 30.3407 13.8464Z" fill="#CC0000"/>
<path d="M28.6614 17.595L28.5907 18.7089C29.1742 18.7266 29.7577 18.7973 30.3411 18.9211L30.4119 17.8249C29.8107 17.7011 29.2272 17.6304 28.6614 17.595ZM22.1195 12.0785H22.2963L21.9427 11C21.3945 11 20.8287 11.0354 20.2453 11.1061L20.5812 12.1493C21.094 12.0962 21.6067 12.0785 22.1195 12.0785ZM22.9682 18.5852L23.3748 19.8052C23.8876 19.5576 24.4003 19.3454 24.9131 19.1863L24.5241 18.0194C23.9229 18.1962 23.4102 18.3907 22.9682 18.5852ZM14.941 13.9351L14.1453 12.7151C13.7033 12.9449 13.2436 13.1924 12.7662 13.4753L13.5795 14.713C14.0392 14.4301 14.4813 14.1649 14.941 13.9351ZM18.5656 21.8915L19.4143 23.1646C19.7148 22.7225 20.0685 22.3159 20.4574 21.9092L19.6618 20.7069C19.2551 21.0782 18.8838 21.4849 18.5656 21.8915ZM16.0018 27.5848L17.434 28.7164C17.5047 28.0268 17.6285 27.3373 17.8053 26.6477L16.5323 25.6399C16.3024 26.2941 16.1433 26.9483 16.0018 27.5848ZM8.25753 19.1863L7.00218 18.0901C6.54247 18.5321 6.10045 18.9741 5.69378 19.4162L7.05522 20.5831C7.42652 20.1057 7.83319 19.6283 8.25753 19.1863ZM2.91786 27.0897L0.88454 26.3471C0.5486 27.1074 0.177299 27.9915 0.000488281 28.4689L2.03381 29.2115C2.26366 28.6103 2.63496 27.7439 2.91786 27.0897ZM15.7366 32.0758C15.772 33.0129 15.8604 33.7732 15.9488 34.3036L18.0705 35.0639C17.9114 34.3743 17.7522 33.5964 17.6462 32.7654L15.7366 32.0758Z" fill="#CC0000"/>
</g>
<defs>
<clipPath id="clip0">
<rect y="11" width="70" height="24.612" fill="white"/>
</clipPath>
</defs>
</svg>
