<svg width="70" height="48" viewBox="0 0 70 48" fill="none" xmlns="http://www.w3.org/2000/svg">
<path d="M69.9792 17.3247V34.4716L67.6831 36.788V20.0083L69.9792 17.3247Z" fill="#E79225"/>
<path d="M54.9311 17.3388L52.5529 20.0083L52.6759 20.1778L67.5874 20.1213L67.7241 20.0083L69.9793 17.3247L54.9311 17.3388Z" fill="#FFF16D"/>
<path d="M52.5529 20.0085H67.7241V36.8023H52.5529V20.0085Z" fill="url(#paint0_linear)"/>
<path d="M65.4141 26.0539C65.1134 25.277 64.6624 24.5708 64.0746 23.9635C63.5143 23.3702 62.8855 22.9183 62.1748 22.6217C61.4778 22.325 60.726 22.1697 59.906 22.1697C59.0859 22.1697 58.3205 22.325 57.6234 22.6217C56.9127 22.9183 56.284 23.3702 55.7236 23.9635C55.1359 24.5708 54.6985 25.277 54.3978 26.0539C54.0971 26.8307 53.9604 27.6782 53.9604 28.6104C53.9604 29.5143 54.1108 30.3618 54.4115 31.1527C54.7122 31.9437 55.1496 32.6499 55.7373 33.2714C56.284 33.8505 56.9127 34.2883 57.6098 34.5849C58.3068 34.8815 59.0859 35.0369 59.9196 35.0369C60.726 35.0369 61.4778 34.8815 62.1748 34.5849C62.8719 34.2883 63.5143 33.8505 64.0746 33.2714C64.6624 32.6499 65.1134 31.9437 65.4141 31.1669C65.7148 30.39 65.8651 29.5284 65.8651 28.6245C65.8651 27.6782 65.7148 26.8307 65.4141 26.0539ZM62.2842 31.5906C61.6964 32.3109 60.9174 32.6781 59.906 32.6781C58.8945 32.6781 58.1018 32.3109 57.5141 31.5906C56.9264 30.8702 56.6393 29.8674 56.6393 28.5962C56.6393 27.2968 56.94 26.294 57.5141 25.5595C58.1018 24.825 58.8809 24.4719 59.906 24.4719C60.9174 24.4719 61.6964 24.8392 62.2842 25.5595C62.8582 26.294 63.1589 27.2968 63.1589 28.5962C63.1589 29.8674 62.8719 30.8702 62.2842 31.5906Z" fill="white"/>
<path d="M51.0629 15.9265V16.0113L53.0038 31.4209L51.8693 34.6695L51.719 34.5565L49.7235 19.7824L49.7645 19.5847L51.0083 16.0113L51.0629 15.9265Z" fill="#009ADA"/>
<path d="M36.1238 18.0734L51.0626 15.9265L49.8052 19.6271L49.6275 19.8248L35.6591 21.9435L35.7274 19.3022L36.1238 18.0734Z" fill="#91C9ED"/>
<path d="M49.8055 19.627L51.8693 34.6693L37.1491 36.8021L35.1672 22.2682L36.0283 21.5761L49.8055 19.627Z" fill="url(#paint1_linear)"/>
<path d="M47.304 22.5086C47.2357 22.0425 47.0853 21.6893 46.8393 21.4492C46.6343 21.2656 46.3883 21.1667 46.1012 21.1667C46.0329 21.1667 45.9509 21.1667 45.8689 21.1809C45.4862 21.2374 45.1992 21.421 45.0215 21.7176C44.8848 21.9295 44.8301 22.1978 44.8301 22.5086C44.8301 22.6216 44.8438 22.7487 44.8575 22.8758L45.3905 26.7882L41.1535 27.4379L40.6205 23.5255C40.5521 23.0735 40.4018 22.7204 40.1558 22.4803C39.9507 22.2826 39.7047 22.1837 39.4314 22.1837C39.363 22.1837 39.2947 22.1837 39.2264 22.1978C38.83 22.2543 38.5293 22.4379 38.338 22.7345C38.2013 22.9464 38.1466 23.2148 38.1466 23.5255C38.1466 23.6385 38.1603 23.7656 38.1739 23.9069L39.6227 34.0905C39.6911 34.5566 39.8414 34.9097 40.1148 35.1498C40.3198 35.3334 40.5658 35.4182 40.8665 35.4182C40.9485 35.4182 41.0305 35.4182 41.1125 35.404C41.4815 35.3475 41.7549 35.1639 41.9326 34.8673C42.0556 34.6554 42.1103 34.4012 42.1103 34.1046C42.1103 33.9916 42.0966 33.8645 42.0829 33.7374L41.4952 29.7119L45.7322 29.0622L46.3199 33.0877C46.3883 33.5538 46.5386 33.9069 46.7983 34.1328C47.0033 34.3165 47.2493 34.4153 47.5363 34.4153C47.6047 34.4153 47.6867 34.4153 47.7687 34.4012C48.1514 34.3447 48.4384 34.1611 48.6161 33.8645C48.7391 33.6526 48.8074 33.3984 48.8074 33.0877C48.8074 32.9747 48.7938 32.8475 48.7801 32.7204L47.304 22.5086Z" fill="white"/>
<path d="M22.142 12L16.8252 25.0508L17.5496 30.7853L17.5906 30.7712L23.5634 16.887L23.5361 16.5904L22.2513 12.1836L22.142 12Z" fill="#66BF6B"/>
<path d="M22.142 12L23.5224 16.7881L23.5498 16.887L36.6982 22.9746L36.7392 22.9463L35.6185 18.3701L22.142 12Z" fill="#98D0A0"/>
<path d="M23.5225 16.7881L36.7393 22.9463L30.7665 36.9435L17.5497 30.7853L23.5225 16.7881Z" fill="url(#paint2_linear)"/>
<path d="M32.7346 24.0764C32.4475 23.2854 32.0512 22.6075 31.5318 22.0425C31.0124 21.4775 30.3837 21.0255 29.6456 20.7007C28.9076 20.3758 28.1695 20.2205 27.4178 20.2205H27.3768C26.6114 20.2205 25.8597 20.4041 25.1216 20.7431C24.3425 21.0962 23.6728 21.5764 23.0988 22.212C22.5247 22.8335 22.06 23.5962 21.7047 24.4719C21.3493 25.3335 21.1579 26.2092 21.1169 27.0707V27.3674C21.1169 28.1301 21.24 28.8787 21.4996 29.6131C21.773 30.39 22.1694 31.0538 22.6887 31.6188C23.2081 32.1838 23.8505 32.6357 24.6159 32.9606C25.3403 33.2854 26.0783 33.4408 26.8301 33.4408H26.8437C27.5955 33.4408 28.3472 33.2713 29.0853 32.9465C29.8643 32.5934 30.5477 32.099 31.1218 31.4634C31.6958 30.8419 32.1742 30.0934 32.5295 29.2176C32.8849 28.3419 33.0762 27.4804 33.1173 26.6188V26.3645C33.1309 25.5877 33.0079 24.825 32.7346 24.0764ZM30.0967 28.1442C29.6046 29.3589 28.9349 30.1922 28.1285 30.6442C27.6911 30.8843 27.2401 31.0114 26.7891 31.0114C26.3927 31.0114 25.969 30.9126 25.5453 30.7289C24.6159 30.3193 24.0418 29.6696 23.7958 28.7374C23.7138 28.4267 23.6728 28.1018 23.6728 27.7628C23.6728 27.0849 23.8368 26.3363 24.1649 25.5312C24.6706 24.2883 25.3403 23.4408 26.1467 22.9747C26.5841 22.7205 27.0351 22.6075 27.4861 22.6075C27.8962 22.6075 28.3062 22.7063 28.7436 22.89C29.6593 23.2996 30.2334 23.9493 30.4794 24.8815C30.5614 25.1781 30.6024 25.503 30.6024 25.8419C30.6024 26.5482 30.4384 27.3109 30.0967 28.1442Z" fill="white"/>
<path d="M15.7724 14.2175L17.9319 29.161L16.9478 34.4153L16.8112 34.2317L14.7063 19.7966V19.5141L15.6357 14.4718L15.7724 14.2175Z" fill="#760D16"/>
<path d="M0 21.9435L1.02508 16.661L15.7726 14.2175L14.7749 19.5989V19.952L0.177681 22.0848L0 21.9435Z" fill="#EF463E"/>
<path d="M14.7749 19.5989L16.9481 34.4153L2.35086 36.774L0 21.9435L14.7749 19.5989Z" fill="url(#paint3_linear)"/>
<path d="M13.2032 32.0565C13.0938 31.9153 12.9298 31.8164 12.7385 31.7458C12.5471 31.6752 12.3148 31.6469 12.0277 31.6469C11.7681 31.6469 11.4674 31.6752 11.1393 31.7317L7.28502 32.4096C7.32602 32.0989 7.47637 31.7034 7.73606 31.2091C8.02308 30.6582 8.46045 29.9944 9.02083 29.2317C9.21218 28.9633 9.36252 28.7656 9.47187 28.6243C9.54021 28.5255 9.64955 28.3983 9.78623 28.2147C10.6746 27.0142 11.2077 26.0396 11.4264 25.2769C11.5494 24.839 11.6177 24.4012 11.645 23.9633C11.6587 23.8362 11.6587 23.7232 11.6587 23.6102C11.6587 23.2995 11.6314 22.9887 11.5767 22.678C11.5357 22.3955 11.4674 22.1695 11.3717 21.9859C11.276 21.8023 11.1667 21.661 11.03 21.5763C10.8796 21.4774 10.6473 21.4351 10.3603 21.4351C10.1279 21.4351 9.8409 21.4633 9.4992 21.5198L5.0435 22.3108C4.51046 22.4096 4.10042 22.565 3.8544 22.8192C3.64939 23.017 3.55371 23.2712 3.55371 23.5537C3.55371 23.6243 3.55371 23.7091 3.56738 23.7938C3.63572 24.1893 3.82707 24.4718 4.14143 24.613C4.33278 24.6978 4.55146 24.7401 4.82482 24.7401C5.0025 24.7401 5.20751 24.726 5.4262 24.6837L9.14384 24.0057C9.14384 24.0763 9.15751 24.1469 9.15751 24.2034C9.15751 24.4435 9.1165 24.6837 9.0345 24.9096C8.92515 25.2345 8.6518 25.6865 8.20076 26.2656C8.07775 26.4209 7.8864 26.6752 7.62671 27C6.6153 28.2571 5.90457 29.3305 5.4672 30.2204C5.15284 30.8418 4.94783 31.4351 4.82482 32.0424C4.75648 32.3955 4.71547 32.7204 4.71547 33.0452C4.71547 33.2712 4.72914 33.4972 4.77015 33.7091C4.82482 34.0198 4.89315 34.2741 4.98883 34.4718C5.0845 34.6695 5.22118 34.8249 5.37153 34.9097C5.52187 34.9944 5.72689 35.0226 6.02758 35.0226C6.39661 35.0226 6.90232 34.9661 7.54471 34.8532L11.5904 34.1328C12.3011 34.0057 12.8068 33.8221 13.0938 33.582C13.3262 33.3842 13.4492 33.1159 13.4492 32.8051C13.4492 32.7204 13.4355 32.6356 13.4219 32.5509C13.3945 32.3673 13.3262 32.1978 13.2032 32.0565Z" fill="white"/>
<defs>
<linearGradient id="paint0_linear" x1="60.1379" y1="20.2489" x2="60.1379" y2="36.2953" gradientUnits="userSpaceOnUse">
<stop offset="0.00562" stop-color="#FFE513"/>
<stop offset="1" stop-color="#FDB924"/>
</linearGradient>
<linearGradient id="paint1_linear" x1="35.9208" y1="21.9446" x2="51.4798" y2="34.1555" gradientUnits="userSpaceOnUse">
<stop offset="0.00562" stop-color="#008CD2"/>
<stop offset="1" stop-color="#00649D"/>
</linearGradient>
<linearGradient id="paint2_linear" x1="27.1449" y1="22.387" x2="27.1449" y2="36.4454" gradientUnits="userSpaceOnUse">
<stop stop-color="#26A146"/>
<stop offset="1" stop-color="#008A52"/>
</linearGradient>
<linearGradient id="paint3_linear" x1="7.41207" y1="21.0086" x2="9.81406" y2="35.5956" gradientUnits="userSpaceOnUse">
<stop stop-color="#D92231"/>
<stop offset="1" stop-color="#BA2234"/>
</linearGradient>
</defs>
</svg>
