<svg width="48" height="48" viewBox="0 0 48 48" fill="none" xmlns="http://www.w3.org/2000/svg">
<g clip-path="url(#clip0)">
<path d="M26.9038 1.34013C14.3649 -0.274065 2.89259 8.58961 1.29281 21.1285C-0.306978 33.6673 8.54228 45.1396 21.0811 46.7394C33.62 48.3536 45.0923 39.49 46.6921 26.9511C46.6921 26.9367 46.6921 26.9223 46.6921 26.9223C48.2919 14.3834 39.4282 2.93992 26.9038 1.34013Z" fill="white"/>
<path d="M37.7289 12.0625C37.5992 12.1201 37.5271 12.2787 37.5848 12.4084C37.5848 12.4228 37.5992 12.4228 37.5992 12.4372C37.7433 12.7255 37.7145 13.0858 37.4983 13.3308C37.3974 13.4317 37.383 13.6046 37.4839 13.7055C37.4839 13.7055 37.4839 13.7055 37.4983 13.7199C37.5559 13.7343 37.628 13.7343 37.6857 13.7199C37.7577 13.7199 37.8442 13.6767 37.8874 13.619C38.2477 13.2011 38.3198 12.6102 38.0604 12.1201C37.9883 12.0193 37.8442 11.9904 37.7289 12.0625Z" fill="#FF6C37"/>
<path d="M27.0482 0.200697C13.9041 -1.49998 1.88406 7.79607 0.197795 20.9403C-1.48846 34.0844 7.79317 46.1189 20.9373 47.8051C34.0815 49.4914 46.1015 40.2097 47.8022 27.0656C49.4885 13.9214 40.2068 1.88696 27.0482 0.200697C27.0627 0.200697 27.0627 0.200697 27.0482 0.200697ZM31.9917 15.1608C31.5449 15.1753 31.127 15.3482 30.8099 15.6653L21.903 24.5722L20.0005 22.6698C28.7633 13.9214 30.3631 13.8349 31.9917 15.1608ZM22.2633 24.8893L31.1414 16.0688C31.6314 15.5932 32.4097 15.5932 32.8997 16.0688C33.1447 16.3138 33.2744 16.6453 33.26 16.9768C33.2456 17.3227 33.1015 17.6398 32.8421 17.8704L23.4595 26.1432L22.2633 24.8893ZM22.9263 26.2296L20.7212 26.7917C20.6779 26.8205 20.6347 26.8205 20.5914 26.7917C20.5626 26.7485 20.5626 26.6908 20.5914 26.6476L21.9318 25.3072L22.9263 26.2296ZM17.3054 25.3072L19.6546 22.958L21.4274 24.774L17.4063 25.6387C17.3198 25.6531 17.2333 25.5955 17.2189 25.509C17.2045 25.4514 17.2189 25.4081 17.2622 25.3649L17.3054 25.3072ZM10.0271 37.5146C9.96945 37.5002 9.91181 37.457 9.89739 37.4137C9.88298 37.3561 9.88298 37.2984 9.89739 37.2552L11.7854 35.3527L14.2355 37.7884L10.0271 37.5146ZM14.8697 34.9924C14.6823 35.0933 14.5814 35.2951 14.6247 35.4969L15.0282 37.2263C15.0571 37.3417 14.9994 37.457 14.9129 37.5146C14.8265 37.5867 14.6967 37.5867 14.6247 37.5146L12.1746 34.9924L19.6979 27.4547L23.3442 26.6764L25.0881 28.4203C21.975 31.0146 18.5449 33.2197 14.8841 34.9636V34.9924H14.8697ZM25.4485 28.1321L23.7766 26.4602L33.1591 18.2019C33.2456 18.1298 33.3321 18.0433 33.4041 17.9425C33.1015 20.6232 29.3254 24.4281 25.4485 28.1321ZM32.77 15.2041C31.372 13.7484 31.4296 11.4424 32.8853 10.0444C34.2112 8.77612 36.2578 8.68965 37.6846 9.84264L34.4563 13.0566C34.3698 13.1575 34.3698 13.3016 34.4563 13.4025L36.964 15.8959C35.5516 16.5877 33.8509 16.2994 32.7556 15.1753L32.77 15.2041ZM37.9152 15.2041C37.7423 15.3626 37.5693 15.5212 37.3676 15.6509L34.9607 13.244L38.0305 10.1741C39.3565 11.601 39.3133 13.8205 37.9152 15.2041Z" fill="#FF6C37"/>
</g>
<defs>
<clipPath id="clip0">
<rect width="48" height="48" fill="white"/>
</clipPath>
</defs>
</svg>
