<svg width="48" height="48" viewBox="0 0 48 48" fill="none" xmlns="http://www.w3.org/2000/svg">
<g clip-path="url(#clip0)">
<path d="M12.37 47.7947V43.6212C12.37 43.327 12.1542 43.2 11.8999 43.2C11.3902 43.2 10.7534 43.327 10.1755 43.5817V47.7947H9V40.0456H10.1754V42.602C10.7341 42.3966 11.4001 42.2204 12.0664 42.2204C13.1341 42.2204 13.5359 42.8767 13.5359 43.7776V47.7947H12.37ZM15.7298 45.2671C15.769 46.668 16.0434 46.9424 16.9051 46.9424C17.5812 46.9424 18.3454 46.717 18.9334 46.4916L19.1292 47.3731C18.5021 47.6575 17.738 47.9317 16.8272 47.9317C14.8676 47.9317 14.5638 46.8544 14.5638 45.1396C14.5638 44.1994 14.6326 43.3469 14.8578 42.5632C15.4456 42.3378 16.2294 42.2203 17.2186 42.2203C18.8257 42.2203 19.3153 43.1119 19.3153 44.6695V45.2671H15.7298ZM17.2186 43.2C16.8664 43.2 16.3078 43.2098 15.8473 43.2976C15.7986 43.5328 15.7394 43.8562 15.7199 44.4539H18.1691C18.1691 43.6405 18.0221 43.2 17.2186 43.2ZM21.519 43.5817V47.7947H20.3434V43.0529C21.3329 42.5142 22.3811 42.3476 23.0671 42.2987V43.2784C22.5871 43.3175 21.9794 43.3763 21.5191 43.5817H21.519ZM26.1724 47.9317C24.4184 47.9317 23.625 47.0698 23.625 45.1004C23.625 43.0138 24.6732 42.2204 26.1724 42.2204C27.9258 42.2204 28.7195 43.0823 28.7195 45.0515C28.7195 47.1383 27.671 47.9317 26.1724 47.9317ZM26.1724 43.2001C25.2709 43.2001 24.7714 43.7191 24.7714 45.1004C24.7714 46.6093 25.1926 46.9424 26.1724 46.9424C27.0736 46.9424 27.5732 46.4328 27.5732 45.0515C27.5732 43.5426 27.152 43.2 26.1724 43.2V43.2001ZM34.3912 47.7947H33.0096C32.6866 46.9326 32.2356 46.0508 31.5401 45.2867H30.9228V47.7947H29.7473V40.0456H30.9228V44.493H31.4716C32.0692 43.8757 32.5295 43.1119 32.8529 42.3574H34.1753C33.7248 43.2685 33.1469 44.0718 32.5002 44.7282C33.2742 45.7079 33.8815 46.7464 34.391 47.7947H34.3912ZM36.5947 47.9317C35.5271 47.9317 35.1254 47.2756 35.1254 46.3741V42.3574H36.2911V46.521C36.2911 46.8152 36.5064 46.9424 36.7612 46.9424C37.2707 46.9424 37.9662 46.8152 38.5444 46.5604V42.3574H39.72V47.0794C38.3288 47.8436 37.2608 47.9317 36.5947 47.9317ZM36.0754 38.0704H12.631C10.6254 38.0704 9 36.445 9 34.4398V3.63072C9 1.62552 10.6255 0 12.6308 0H36.0752C38.0804 0 39.7064 1.62552 39.7064 3.63072V34.4398C39.7064 36.445 38.0804 38.0704 36.0752 38.0704H36.0754Z" fill="#6762A6"/>
<path d="M28.2431 32.8321V17.7133C28.2431 17.7133 29.2265 14.0953 16.13 19.1934C16.106 19.2581 16.106 5.21292 16.106 5.21292L20.3851 5.18652V14.1854C20.3851 14.1854 32.3666 9.46644 32.3666 17.7643V32.8321H28.2432H28.2431ZM30.6815 10.6328H26.1426C27.7764 8.63532 29.2554 5.2128 29.2554 5.2128H33.9486C33.9486 5.2128 33.1451 7.44324 30.6816 10.6328H30.6815ZM16.1837 32.806V24.1962L20.4891 28.5014L16.1837 32.806Z" fill="white"/>
</g>
<defs>
<clipPath id="clip0">
<rect x="9" width="30.72" height="48" fill="white"/>
</clipPath>
</defs>
</svg>
