<svg width="48" height="48" viewBox="0 0 48 48" fill="none" xmlns="http://www.w3.org/2000/svg">
<g clip-path="url(#clip0)">
<path d="M38.5137 3.738C36.2993 1.21396 32.2963 0.131836 27.1752 0.131836H12.3126C11.8059 0.131855 11.3158 0.312619 10.9305 0.641631C10.5452 0.970642 10.2899 1.42632 10.2105 1.92673L4.02192 41.176C3.89891 41.9499 4.49822 42.6508 5.28267 42.6508H14.4584L16.7628 28.0343L16.6913 28.492C16.8554 27.4588 17.7391 26.6968 18.7854 26.6968H23.1457C31.7114 26.6968 38.4185 23.2176 40.3778 13.153C40.4359 12.8554 40.4863 12.5657 40.5299 12.2826C40.2826 12.1517 40.2826 12.1517 40.5299 12.2826C41.1133 8.56265 40.5259 6.0305 38.5137 3.738Z" fill="#27346A"/>
<path d="M20.2738 10.9425C20.5246 10.8231 20.799 10.7612 21.0768 10.7614H32.7289C34.1086 10.7614 35.3956 10.8512 36.5717 11.0404C36.9008 11.0929 37.2281 11.1556 37.5533 11.2283C38.0143 11.33 38.4699 11.4545 38.9185 11.6013C39.4967 11.7944 40.0351 12.0193 40.53 12.2826C41.1133 8.56122 40.5259 6.0305 38.5137 3.738C36.298 1.21396 32.2963 0.131836 27.1752 0.131836H12.3113C11.2648 0.131836 10.3745 0.893722 10.2105 1.92673L4.02192 41.1745C3.89891 41.9498 4.49822 42.6497 5.2814 42.6497H14.4584L19.2393 12.3316C19.2863 12.0336 19.405 11.7514 19.5852 11.5095C19.7654 11.2675 20.0017 11.073 20.2738 10.9425Z" fill="#27346A"/>
<path d="M40.3777 13.1536C38.4184 23.2167 31.7115 26.6973 23.1456 26.6973H18.7841C17.7377 26.6973 16.8539 27.4594 16.6913 28.4925L13.8245 46.6664C13.7174 47.3437 14.2412 47.9575 14.9265 47.9575H22.6614C23.1044 47.9573 23.5329 47.7991 23.8698 47.5113C24.2066 47.2235 24.4298 46.8249 24.499 46.3873L24.5743 45.9931L26.0322 36.7539L26.1261 36.2433C26.1953 35.8057 26.4184 35.4071 26.7552 35.1193C27.0921 34.8315 27.5205 34.6733 27.9636 34.6731H29.1212C36.614 34.6731 42.481 31.6291 44.1955 22.8253C44.9112 19.1462 44.5409 16.0745 42.6478 13.9169C42.0736 13.2634 41.3605 12.7237 40.5298 12.2832C40.4848 12.5677 40.436 12.856 40.3777 13.1536Z" fill="#2790C3"/>
<path d="M38.4788 11.4656C38.1733 11.3764 37.8649 11.2974 37.5541 11.2288C37.2288 11.1573 36.9014 11.095 36.5725 11.0422C35.3951 10.8517 34.1091 10.7617 32.7281 10.7617H21.0774C20.7994 10.7611 20.5248 10.8235 20.2744 10.9443C20.002 11.0743 19.7655 11.2688 19.5852 11.5108C19.4049 11.7528 19.2864 12.0352 19.2398 12.3333L16.7634 28.0347L16.6919 28.4924C16.8548 27.4592 17.7384 26.6972 18.7849 26.6972H23.1465C31.7122 26.6972 38.4192 23.218 40.3784 13.1535C40.4367 12.8559 40.4857 12.5674 40.5306 12.2831C40.0345 12.0212 39.4975 11.7949 38.9191 11.6031C38.7732 11.5547 38.6264 11.5089 38.4789 11.4656" fill="#1F264F"/>
</g>
<defs>
<clipPath id="clip0">
<rect x="4" width="40.6848" height="48" fill="white"/>
</clipPath>
</defs>
</svg>
