<svg width="48" height="48" viewBox="0 0 48 48" fill="none" xmlns="http://www.w3.org/2000/svg">
<g clip-path="url(#clip0)">
<path d="M43.2687 21.7699C43.2687 32.8907 34.2549 41.9043 23.1343 41.9043C12.0137 41.9043 3 32.8907 3 21.7699C3 10.6495 12.0137 1.63575 23.1343 1.63575C34.2549 1.62598 43.2685 10.6493 43.2685 21.7699" fill="#008CC1"/>
<path d="M11.9257 15.1656C11.9257 16.0535 11.2039 16.7753 10.3162 16.7753C9.42836 16.7753 8.70654 16.0536 8.70654 15.1656C8.70654 14.278 9.4282 13.5561 10.3162 13.5561C10.5277 13.5555 10.7373 13.5967 10.9328 13.6774C11.1284 13.7581 11.3061 13.8766 11.4556 14.0262C11.6052 14.1758 11.7238 14.3534 11.8044 14.549C11.8851 14.7445 11.9263 14.9541 11.9257 15.1656ZM12.1988 19.5848C12.1988 20.4724 11.477 21.1944 10.5893 21.1944C9.70163 21.1944 8.97965 20.4724 8.97965 19.5848C8.97965 18.6969 9.70163 17.9753 10.5893 17.9753C10.8008 17.9747 11.0104 18.0159 11.2059 18.0965C11.4015 18.1772 11.5792 18.2957 11.7287 18.4453C11.8783 18.5949 11.9969 18.7726 12.0775 18.9681C12.1582 19.1637 12.1994 19.3732 12.1988 19.5848ZM13.1841 24.2672C13.1841 25.1549 12.4621 25.8767 11.5745 25.8767C10.6868 25.8767 9.96481 25.1549 9.96481 24.2672C9.96481 23.3792 10.6868 22.6576 11.5745 22.6576C12.4621 22.6478 13.1839 23.3696 13.1839 24.2672H13.1841ZM15.3888 28.4617C15.3888 29.3494 14.6667 30.0714 13.779 30.0714C12.8913 30.0714 12.1695 29.3494 12.1695 28.4617C12.1695 27.5739 12.8913 26.8523 13.779 26.8523C14.6667 26.8423 15.3886 27.5643 15.3886 28.4617H15.3888ZM32.6258 34.3245C32.6258 35.2122 31.904 35.934 31.0161 35.934C30.1284 35.934 29.4066 35.2122 29.4066 34.3245C29.4066 33.4368 30.1283 32.7149 31.0161 32.7149C31.904 32.7149 32.6258 33.4368 32.6258 34.3245ZM35.5521 30.8614C35.5521 31.7491 34.8305 32.4709 33.9425 32.4709C33.0548 32.4709 32.333 31.7492 32.333 30.8614C32.333 29.9737 33.0548 29.2518 33.9425 29.2518C34.8305 29.2518 35.5523 29.9737 35.5523 30.8614H35.5521ZM27.0654 6.37653C27.0654 7.26419 26.3434 7.98601 25.4557 7.98601C24.5681 7.98601 23.8462 7.26436 23.8462 6.37653C23.8462 5.48886 24.5681 4.76704 25.4557 4.76704C26.3434 4.76704 27.0654 5.4887 27.0654 6.37653ZM22.8318 4.89383C22.8318 5.78149 22.1098 6.50331 21.2221 6.50331C20.3345 6.50331 19.6126 5.78166 19.6126 4.89383C19.6126 4.00616 20.3343 3.28418 21.2221 3.28418C22.1098 3.28418 22.8318 4.00616 22.8318 4.89383Z" fill="white"/>
<path d="M34.2452 6.24023C40.1714 6.24023 44.9757 11.0445 44.9757 16.9707C44.9757 22.8968 40.1714 27.7011 34.2452 27.7011C28.3188 27.7011 23.5146 22.8968 23.5146 16.9707C23.5146 11.0445 28.3188 6.24023 34.2452 6.24023Z" fill="#66B245"/>
<path d="M34.245 27.9886C28.1697 27.9886 23.2271 23.046 23.2271 16.9709C23.2271 10.8956 28.1697 5.95312 34.245 5.95312C40.3202 5.95312 45.2629 10.8954 45.2629 16.9709C45.2629 23.046 40.3202 27.9886 34.245 27.9886ZM34.245 6.5278C28.4867 6.5278 23.8019 11.2127 23.8019 16.9709C23.8019 22.7292 28.4867 27.4138 34.245 27.4138C40.0034 27.4138 44.688 22.7292 44.688 16.9709C44.688 11.2126 40.0034 6.52796 34.245 6.52796V6.5278Z" fill="white"/>
<path d="M19.5447 30.0713C24.3933 30.0713 28.3242 34.0018 28.3242 38.8505C28.3242 43.6991 24.3933 47.6299 19.5447 47.6299C14.6958 47.6299 10.7651 43.6991 10.7651 38.8505C10.7651 34.0018 14.6958 30.0713 19.5447 30.0713Z" fill="#66B245"/>
<path d="M19.5444 47.918C14.5448 47.918 10.4775 43.8506 10.4775 38.8511C10.4775 33.8515 14.5448 29.7842 19.5446 29.7842C24.544 29.7842 28.6112 33.8515 28.6112 38.8513C28.6112 43.8506 24.544 47.918 19.5444 47.918ZM19.5444 30.359C14.8619 30.359 11.0524 34.1684 11.0524 38.8511C11.0524 43.5336 14.8619 47.3432 19.5444 47.3432C24.2269 47.3432 28.0364 43.5336 28.0364 38.8511C28.0364 34.1686 24.2269 30.359 19.5444 30.359Z" fill="white"/>
<path d="M12.3162 0.328125C15.5488 0.328125 18.1693 2.94876 18.1693 6.18115C18.1693 9.4137 15.5488 12.0342 12.3162 12.0342C9.08369 12.0342 6.46338 9.4137 6.46338 6.18115C6.46338 2.94859 9.08385 0.328125 12.3162 0.328125Z" fill="#66B245"/>
<path d="M12.3161 12.3217C8.93032 12.3217 6.17578 9.56719 6.17578 6.18137C6.17578 2.79555 8.93032 0.0410156 12.3161 0.0410156C15.702 0.0410156 18.4565 2.79555 18.4565 6.18137C18.4565 9.56719 15.702 12.3217 12.3161 12.3217ZM12.3161 0.615857C9.24745 0.615857 6.75062 3.11252 6.75062 6.18137C6.75062 9.25023 9.24728 11.7471 12.3161 11.7471C15.385 11.7471 17.8818 9.25023 17.8818 6.18137C17.8818 3.11268 15.385 0.615857 12.3161 0.615857Z" fill="white"/>
</g>
<defs>
<clipPath id="clip0">
<rect x="3" width="42.3744" height="48" fill="white"/>
</clipPath>
</defs>
</svg>
