<svg width="48" height="48" viewBox="0 0 48 48" fill="none" xmlns="http://www.w3.org/2000/svg">
<g clip-path="url(#clip0)">
<path fill-rule="evenodd" clip-rule="evenodd" d="M17.5977 0C14.9444 0.00195719 12.797 2.15095 12.7989 4.79902C12.797 7.44709 14.9463 9.59609 17.5997 9.59804H22.4005V4.80098C22.4025 2.15291 20.2531 0.00391437 17.5977 0C17.5997 0 17.5997 0 17.5977 0V0ZM17.5977 12.8H4.79957C2.14619 12.802 -0.00317645 14.9509 -0.00121534 17.599C-0.00513755 20.2471 2.14423 22.3961 4.79761 22.4H17.5977C20.2511 22.398 22.4005 20.2491 22.3985 17.601C22.4005 14.9509 20.2511 12.802 17.5977 12.8Z" fill="#36C5F0"/>
<path fill-rule="evenodd" clip-rule="evenodd" d="M48.0001 17.599C48.0021 14.9509 45.8527 12.802 43.1992 12.8C40.5457 12.802 38.3963 14.9509 38.3983 17.599V22.4H43.1992C45.8527 22.398 48.0021 20.2491 48.0001 17.599ZM35.1996 17.599V4.79902C35.2016 2.15291 33.0541 0.00391437 30.4006 0C27.7472 0.00195719 25.5977 2.15095 25.5997 4.79902V17.599C25.5958 20.2471 27.7452 22.3961 30.3987 22.4C33.0521 22.398 35.2016 20.2491 35.1996 17.599Z" fill="#2EB67D"/>
<path fill-rule="evenodd" clip-rule="evenodd" d="M30.399 48.0011C33.0525 47.9991 35.2019 45.8501 35.2 43.2019C35.2019 40.5537 33.0525 38.4047 30.399 38.4027H25.5981V43.2019C25.5961 45.8481 27.7456 47.9972 30.399 48.0011ZM30.399 35.1987H43.1996C45.853 35.1967 48.0025 33.0477 48.0005 30.3995C48.0044 27.7514 45.855 25.6023 43.2015 25.5984H30.401C27.7475 25.6003 25.5981 27.7494 25.6 30.3976C25.5981 33.0477 27.7456 35.1967 30.399 35.1987Z" fill="#ECB22E"/>
<path fill-rule="evenodd" clip-rule="evenodd" d="M1.34093e-06 30.3973C-0.00195976 33.0455 2.14741 35.1945 4.80079 35.1965C7.45416 35.1945 9.60353 33.0455 9.60157 30.3973V25.5981H4.80079C2.14741 25.6001 -0.00195976 27.7492 1.34093e-06 30.3973ZM12.8001 30.3973V43.1977C12.7962 45.8459 14.9456 47.995 17.599 47.9989C20.2523 47.9969 22.4017 45.8479 22.3997 43.1997V30.4012C22.4037 27.7531 20.2543 25.604 17.6009 25.6001C14.9456 25.6001 12.7982 27.7492 12.8001 30.3973C12.8001 30.3993 12.8001 30.3973 12.8001 30.3973Z" fill="#E01E5A"/>
</g>
<defs>
<clipPath id="clip0">
<rect width="48" height="48" fill="white"/>
</clipPath>
</defs>
</svg>
