<svg width="48" height="48" viewBox="0 0 48 48" fill="none" xmlns="http://www.w3.org/2000/svg">
<g clip-path="url(#clip0)">
<path d="M47.0947 21.8613L26.1375 0.905203C24.9313 -0.301734 22.9738 -0.301734 21.7661 0.905203L17.4142 5.25708L22.9348 10.7776C24.2177 10.3441 25.6888 10.635 26.7114 11.6576C27.7389 12.6868 28.0277 14.1705 27.5837 15.4575L32.904 20.778C34.1912 20.3345 35.6764 20.6214 36.7044 21.6511C38.1412 23.0874 38.1412 25.4152 36.7044 26.8524C35.2672 28.2898 32.9394 28.2898 31.5015 26.8524C30.4207 25.7705 30.1537 24.1833 30.7009 22.8519L25.7392 17.8903L25.7387 30.9472C26.0984 31.125 26.4269 31.36 26.7114 31.6428C28.1482 33.0791 28.1482 35.4071 26.7114 36.8454C25.2742 38.282 22.9453 38.282 21.5102 36.8454C20.0734 35.4071 20.0734 33.0793 21.5102 31.643C21.8545 31.2985 22.2637 31.0257 22.7141 30.8403V17.6617C22.2631 17.4776 21.8536 17.2046 21.5102 16.859C20.4216 15.7719 20.1598 14.1746 20.7176 12.8379L15.2756 7.39533L0.905625 21.7644C-0.301875 22.9725 -0.301875 24.9301 0.905625 26.1373L21.8632 47.0938C23.0698 48.3009 25.0269 48.3009 26.235 47.0938L47.0946 26.2346C48.3017 25.0271 48.3017 23.0683 47.0946 21.8613" fill="#DE4C36"/>
</g>
<defs>
<clipPath id="clip0">
<rect width="48" height="48" fill="white"/>
</clipPath>
</defs>
</svg>
