<svg width="48" height="48" viewBox="0 0 48 48" fill="none" xmlns="http://www.w3.org/2000/svg">
<path d="M24.0008 4C11.0803 4 0.957741 20.4386 0 34.3228C4.05459 41.3596 13.8321 44.0047 24.0011 44.0047C34.1694 44.0047 43.9475 41.3596 48 34.3226C47.0421 20.4386 36.9208 4 24.0009 4" fill="#B6DEFF"/>
<path d="M44.624 31.0163C44.624 31.0163 41.7703 24.8467 38.8698 21.2472C35.9672 17.6463 32.4226 13.7253 30.3268 13.7253C28.2321 13.7253 22.3765 24.093 19.6902 24.093C17.0033 24.093 15.607 19.3931 12.3036 19.3931C8.99897 19.3931 3.74871 30.7266 3.74871 30.7266L3.39294 32.6479C3.39294 32.6479 5.21694 40.7347 24.2991 40.7347C43.382 40.7347 44.9071 32.7806 44.9071 32.7806L44.6242 31.0161" fill="#66CC66"/>
<path d="M19.9885 28.5173C17.0249 28.5173 15.5057 25.5933 14.682 23.7883C13.9413 22.1623 13.8131 19.5952 11.7114 19.5233C11.9179 19.4414 12.1167 19.393 12.303 19.393C15.6064 19.393 17.0027 24.0929 19.6896 24.0929C22.3759 24.0929 28.2315 13.7251 30.3262 13.7251C30.7209 13.7251 31.1655 13.8644 31.648 14.1121C31.2911 14.065 30.8335 14.0978 30.4809 14.4515C29.8039 15.1288 23.6574 28.5173 19.9885 28.5173Z" fill="#17AD49"/>
</svg>
