<svg width="48" height="48" viewBox="0 0 48 48" fill="none" xmlns="http://www.w3.org/2000/svg">
<g clip-path="url(#clip0)">
<path d="M14.4421 22.1386L12.4658 9.0213L4.45947 4.08105L6.84446 16.4147L14.4422 22.1386H14.4421ZM16.3158 36.2439L15.0551 26.9425L7.93439 21.0484L9.77418 30.2475L16.3158 36.2439ZM10.6601 34.1656L11.9207 41.1499L17.9853 47.4532L17.1335 40.3323L10.6601 34.1656ZM28.7515 32.0189L25.6342 29.7023C25.6342 29.7023 25.5898 30.5319 25.5065 30.5882L23.2322 32.1895L25.7193 34.2337L25.8642 36.5591L28.8197 38.9695L28.7517 32.0191L28.7515 32.0189ZM38.1722 25.222L37.61 31.7721L35.5147 30.3922C35.5147 30.3922 35.7456 27.0806 35.7445 27.0788C35.7325 27.0566 31.7072 24.3532 31.7072 24.3532L31.835 21.3379L38.1722 25.222Z" fill="#004711"/>
<path d="M24.9016 16.7217L24.3225 4.52441L12.4658 9.02172L14.4418 22.139L24.9016 16.7217ZM25.4468 30.5545L24.9698 21.2531L15.0552 26.9428L16.5202 36.4827L25.4468 30.5545ZM25.6171 34.3363L17.1334 40.3327L18.1897 47.6578L25.9237 41.4911L25.6171 34.3363ZM28.888 31.9854L29.024 39.0722L35.1569 34.0979L35.4634 27.3518L28.888 31.9854ZM43.4958 21.7215L42.6952 27.9395L37.8997 31.7895L38.4704 25.2565L43.4958 21.7214V21.7215Z" fill="#00B159"/>
<path d="M25.9357 34.2175C25.9354 34.2116 25.9332 34.2061 25.9326 34.2003C25.9302 34.1757 25.9245 34.1515 25.9158 34.1284C25.9105 34.1143 25.9039 34.1007 25.8963 34.0878C25.8919 34.0799 25.8877 34.0721 25.8825 34.0649C25.8731 34.0518 25.8625 34.0396 25.8509 34.0283C25.8455 34.0229 25.8406 34.0168 25.8347 34.0116L25.8303 34.0069L23.5615 32.1553L25.6477 30.7497C25.731 30.6934 25.7789 30.5986 25.7743 30.499L25.7532 30.0042L28.5194 32.1155L28.5732 38.5272L26.0284 36.3849L25.9357 34.2175ZM14.7988 27.0327L16.0816 35.7997L10.0017 30.072L8.2412 21.5693L14.7986 27.0327H14.7988ZM25.1927 30.3624L16.7044 36.0809L15.3805 27.0344L24.8217 21.6606L25.1927 30.3624ZM24.1011 4.80651L24.6059 16.6101L14.6169 21.808L12.7645 9.16263L24.1011 4.80651ZM12.1808 9.14996L14.0021 21.5824L7.13407 16.2297L4.70656 4.50256L12.181 9.15012L12.1808 9.14996ZM12.2868 41.1044L10.9891 34.8339L16.7738 40.523L17.7003 46.8503L12.2868 41.1044ZM25.6639 41.3325L18.3295 47.1753L17.3542 40.5176L25.3835 34.7729L25.6639 41.3325ZM34.8712 33.9918L29.1487 38.556L29.0952 32.1196L35.2529 27.7152L34.8712 33.9918ZM35.67 30.3366L35.8639 27.1478C35.8639 27.1442 35.8629 27.1409 35.8629 27.1373C35.8629 27.1331 35.8643 27.1292 35.8642 27.1248C35.864 27.1123 35.8607 27.1001 35.8589 27.0877C35.8573 27.0788 35.8573 27.0699 35.8551 27.0612C35.8495 27.0389 35.8413 27.0174 35.8307 26.9971C35.8298 26.9955 35.8295 26.9935 35.8285 26.9917C35.8161 26.9696 35.8008 26.9492 35.783 26.9311C35.7794 26.9273 35.7751 26.9245 35.7713 26.9211C35.7597 26.9101 35.7485 26.899 35.735 26.8898L31.8802 24.3441L31.9363 21.5504L38.0028 25.3307L37.4618 31.5836L35.67 30.3366ZM38.0497 31.4617L38.5797 25.3366L43.3677 21.91L42.5629 27.8642L38.0498 31.4617H38.0497ZM44.029 21.2713C44.0287 21.2658 44.0267 21.2608 44.0259 21.2553C44.0246 21.2451 44.0227 21.235 44.0203 21.225C44.0146 21.1998 44.0057 21.1755 43.9937 21.1526C43.9856 21.1377 43.9761 21.1236 43.9654 21.1104C43.9598 21.1034 43.9545 21.0962 43.9482 21.0896C43.9347 21.076 43.9199 21.0638 43.904 21.0532C43.8989 21.0497 43.8954 21.0449 43.8899 21.0418C43.8889 21.041 43.8874 21.0408 43.8861 21.04C43.8844 21.0391 43.883 21.0375 43.8813 21.0366L37.3286 17.4057C37.2841 17.3811 37.2339 17.3687 37.183 17.3699C37.1322 17.3711 37.0826 17.3857 37.0393 17.4124L31.5085 20.7935C31.4996 20.7988 31.4926 20.8065 31.4845 20.8127C31.4746 20.8202 31.4644 20.8271 31.4557 20.8359C31.4463 20.8451 31.4391 20.8557 31.4313 20.8662C31.4244 20.8753 31.4166 20.8837 31.411 20.8935C31.4038 20.9056 31.3992 20.9189 31.3938 20.9319C31.39 20.9417 31.3849 20.9506 31.382 20.9611C31.3781 20.9752 31.377 20.9899 31.3753 21.0046C31.3742 21.0139 31.3713 21.023 31.3709 21.0327L31.3122 23.9688L29.0623 22.483C29.0167 22.4527 28.9634 22.4361 28.9086 22.435C28.8539 22.434 28.8 22.4487 28.7533 22.4772L25.5165 24.456L25.3763 21.1653C25.376 21.1584 25.3734 21.1522 25.3728 21.1453C25.3713 21.1309 25.3688 21.1166 25.3653 21.1026C25.3625 21.0923 25.3583 21.0826 25.3544 21.0726C25.3498 21.0603 25.3444 21.0484 25.3381 21.0369C25.3323 21.0268 25.3254 21.0177 25.3186 21.0083C25.3115 20.9983 25.3038 20.9887 25.2954 20.9797C25.2868 20.9708 25.2773 20.9631 25.2673 20.9551C25.261 20.9501 25.256 20.9439 25.2493 20.9392L21.8807 18.6766L25.0339 17.0359C25.0823 17.0105 25.1225 16.9718 25.1498 16.9244C25.1771 16.877 25.1904 16.8229 25.1882 16.7682L24.6586 4.3817C24.658 4.36654 24.6544 4.352 24.6514 4.3373C24.6502 4.33105 24.6499 4.32479 24.6483 4.31885C24.6418 4.29415 24.6319 4.27047 24.6189 4.24849C24.6166 4.24443 24.6133 4.24114 24.6108 4.23739C24.5994 4.21976 24.5862 4.20345 24.5712 4.18876C24.5657 4.18345 24.5598 4.17891 24.5539 4.17407C24.5456 4.16719 24.5382 4.15937 24.5293 4.15343C24.5223 4.14874 24.5143 4.14624 24.5069 4.14217C24.5032 4.14014 24.5004 4.13701 24.4965 4.13514L16.0008 0.0355921C15.9352 0.0036999 15.8598 -0.00189363 15.7902 0.0199569L4.20295 3.62918L4.2006 3.63043C4.19591 3.63184 4.19185 3.63512 4.18716 3.63669C4.16561 3.64439 4.14508 3.65468 4.12602 3.66733L4.1243 3.66811C4.11789 3.67265 4.11336 3.67906 4.10757 3.68406C4.09288 3.6961 4.07818 3.70814 4.06614 3.72299C4.05754 3.73362 4.05176 3.74582 4.04472 3.75739C4.03768 3.76912 4.02987 3.7799 4.02439 3.79241C4.01814 3.80742 4.01501 3.82337 4.01157 3.83932C4.00923 3.84901 4.00501 3.85777 4.0036 3.86746C4.00344 3.86903 4.00391 3.87043 4.0036 3.87184C4.00204 3.88638 4.0036 3.90092 4.00438 3.91562C4.00485 3.92922 4.00422 3.94267 4.00657 3.9558C4.00704 3.95799 4.00657 3.96002 4.00704 3.96205L6.59247 16.4497C6.60654 16.5165 6.64297 16.576 6.69723 16.6181L10.2064 19.3532L7.66942 20.5611C7.66473 20.5633 7.66129 20.5668 7.65691 20.569C7.65301 20.5713 7.64878 20.5718 7.64503 20.574C7.6394 20.5774 7.63565 20.5824 7.63049 20.5862C7.61605 20.5962 7.60254 20.6075 7.59015 20.6199C7.58312 20.627 7.57608 20.6338 7.56983 20.6415C7.5578 20.6568 7.54732 20.6733 7.53856 20.6908C7.53543 20.697 7.53121 20.703 7.52839 20.7095C7.51804 20.7336 7.51104 20.7589 7.5076 20.7849V20.788C7.50713 20.7921 7.50791 20.7961 7.5076 20.8002C7.50588 20.8237 7.50697 20.8471 7.51104 20.8701C7.51151 20.8732 7.51088 20.8762 7.51151 20.8792L9.45652 30.2773C9.46856 30.3355 9.49796 30.388 9.54095 30.4285L11.9835 32.7291L10.3649 33.7191C10.3443 33.7319 10.3254 33.7473 10.3086 33.7649C10.304 33.7694 10.3008 33.7746 10.2968 33.7794C10.2827 33.796 10.2708 33.8137 10.2608 33.8329C10.2444 33.8635 10.2336 33.8967 10.2289 33.9311C10.2258 33.9588 10.2281 33.9861 10.2328 34.013C10.2334 34.016 10.2327 34.019 10.2333 34.0221L11.7402 41.3009C11.751 41.3525 11.7758 41.4005 11.8126 41.4394L17.9075 47.91C17.9167 47.9197 17.9274 47.9272 17.9375 47.9357C17.9413 47.9387 17.9444 47.9419 17.9483 47.9449C17.9674 47.9587 17.9874 47.9699 18.009 47.9787C18.0099 47.9791 18.0105 47.9799 18.0118 47.9802C18.0133 47.981 18.0155 47.9807 18.0174 47.9813C18.0495 47.9932 18.0831 48.0004 18.1173 48.0004C18.1527 47.9999 18.1876 47.9928 18.2204 47.9795C18.2275 47.9766 18.2352 47.9752 18.2422 47.9716C18.2541 47.966 18.2629 47.9569 18.2734 47.9498C18.2809 47.9451 18.2895 47.9427 18.2965 47.9371L26.1368 41.6908C26.2087 41.6333 26.2487 41.5453 26.245 41.4538L26.0617 37.1651L28.6811 39.3696C28.6856 39.3735 28.6915 39.375 28.6964 39.3786C28.7112 39.3895 28.7255 39.4011 28.7424 39.4092C28.748 39.4117 28.7538 39.4128 28.7594 39.4151C28.7666 39.4179 28.7735 39.4201 28.7807 39.4223C28.8088 39.4312 28.8373 39.4373 28.8662 39.4373C28.8943 39.4373 28.9222 39.4316 28.9498 39.4231C28.9561 39.4211 28.9623 39.419 28.9689 39.4165C28.9755 39.414 28.9822 39.4128 28.9886 39.4098C29.0032 39.4029 29.0149 39.3929 29.0277 39.384C29.0333 39.3801 29.0399 39.3785 29.0452 39.3743L35.3301 34.3623C35.394 34.3107 35.4328 34.2357 35.4378 34.1541L35.629 31.009L37.5412 32.3401C37.5453 32.3427 37.5498 32.3437 37.5537 32.3462C37.5594 32.3496 37.5636 32.3546 37.5694 32.3577C37.5806 32.3637 37.5927 32.3666 37.6042 32.371C37.612 32.374 37.6197 32.3776 37.628 32.3799C37.6533 32.387 37.6793 32.3915 37.7052 32.3915C37.7334 32.3915 37.7615 32.3859 37.7892 32.3774C37.7954 32.3756 37.8017 32.3735 37.808 32.3712C37.8142 32.3687 37.8211 32.3674 37.8275 32.3646C37.8431 32.3571 37.8566 32.3466 37.8703 32.3368C37.8749 32.3336 37.8803 32.3324 37.8847 32.329L43.0115 28.2429C43.0695 28.1965 43.1075 28.1296 43.1175 28.056L44.027 21.3265C44.0279 21.3193 44.0262 21.3124 44.0267 21.3052C44.0273 21.2938 44.0297 21.2829 44.029 21.2713Z" fill="black"/>
</g>
<defs>
<clipPath id="clip0">
<rect x="4" width="40.032" height="48" fill="white"/>
</clipPath>
</defs>
</svg>
