<svg width="48" height="48" viewBox="0 0 48 48" fill="none" xmlns="http://www.w3.org/2000/svg">
<path d="M37.5613 25.4882C31.7952 25.4882 27.1217 30.1617 27.1217 35.9268C27.1217 41.6925 31.7952 46.367 37.5613 46.367C43.3265 46.367 48 41.6925 48 35.9268C48 30.1617 43.3265 25.4882 37.5613 25.4882ZM10.4392 25.4887C4.674 25.4892 0 30.1617 0 35.9273C0 41.6925 4.674 46.3665 10.4392 46.3665C16.2048 46.3665 20.8789 41.6925 20.8789 35.9273C20.8789 30.1617 16.2053 25.4887 10.4392 25.4887ZM34.4392 12.4392C34.4392 18.2043 29.7657 22.8794 24.0005 22.8794C18.2344 22.8794 13.5609 18.2043 13.5609 12.4392C13.5609 6.674 18.2344 2 24.0005 2C29.7657 2 34.4392 6.674 34.4392 12.4392Z" fill="url(#paint0_radial)"/>
<defs>
<radialGradient id="paint0_radial" cx="0" cy="0" r="1" gradientUnits="userSpaceOnUse" gradientTransform="translate(24.0065 26.2752) scale(31.824 29.4154)">
<stop stop-color="#FFB900"/>
<stop offset="0.6" stop-color="#F95D8F"/>
<stop offset="0.999" stop-color="#F95353"/>
</radialGradient>
</defs>
</svg>
