<svg width="48" height="48" viewBox="0 0 48 48" fill="none" xmlns="http://www.w3.org/2000/svg">
<path d="M24 47.8787L10.1476 44.0331L7.06055 9.40918H40.981L37.8908 44.0278L24 47.8787Z" fill="#264DE4"/>
<path d="M35.2455 41.8234L37.8861 12.2402H24.021V44.9352L35.2455 41.8234Z" fill="#2965F1"/>
<path d="M14.1379 25.0822L14.5184 29.3287H24.0212V25.0822H14.1379ZM13.373 16.4873L13.759 20.7338H24.0212V16.4873H13.373ZM24.0212 36.1108L24.0026 36.1157L19.2733 34.8387L18.971 31.452H14.7081L15.303 38.1196L24.0017 40.5342L24.0212 40.5289V36.1108Z" fill="#EBEBEB"/>
<path d="M15.0439 0H20.187V2.15083H17.1948V4.30165H20.1872V6.45234H15.0439V0ZM21.2157 0H26.3589V1.87027H23.3665V2.2443H26.3589V6.54595H21.2158V4.58194H24.2082V4.20791H21.2156V0H21.2157ZM27.3876 0H32.5308V1.87027H29.5384V2.2443H32.5308V6.54595H27.3876V4.58194H30.38V4.20791H27.3877V0H27.3876Z" fill="black"/>
<path d="M33.8768 25.0822L34.6434 16.4873H24.006V20.7338H29.9896L29.6032 25.0822H24.006V29.3287H29.2351L28.742 34.8361L24.0059 36.1144V40.5322L32.7114 38.1196L32.7752 37.4021L33.7733 26.2225L33.8768 25.0822Z" fill="white"/>
</svg>
