<svg width="70" height="48" viewBox="0 0 70 48" fill="none" xmlns="http://www.w3.org/2000/svg">
<g clip-path="url(#clip0)">
<path fill-rule="evenodd" clip-rule="evenodd" d="M35.841 47.9998L34.5632 47.5631C34.5632 47.5631 34.7193 41.0491 32.3813 40.5816C30.8232 38.7736 32.6313 -36.0941 38.2415 40.332C38.2415 40.332 36.3088 41.298 35.966 42.9503C35.5917 44.5712 35.841 47.9998 35.841 47.9998Z" fill="white"/>
<path fill-rule="evenodd" clip-rule="evenodd" d="M35.841 47.9998L34.5632 47.5631C34.5632 47.5631 34.7193 41.0491 32.3813 40.5816C30.8232 38.7736 32.6313 -36.0941 38.2415 40.332C38.2415 40.332 36.3088 41.298 35.966 42.9503C35.5917 44.5712 35.841 47.9998 35.841 47.9998Z" fill="#A6A385"/>
<path fill-rule="evenodd" clip-rule="evenodd" d="M36.5257 41.7042C36.5257 41.7042 47.7157 34.3481 45.097 19.0439C42.5726 7.91711 36.6193 4.27032 35.9647 2.86761C35.248 1.8702 34.562 0.125 34.562 0.125L35.0298 31.0752C35.0298 31.1066 34.0635 40.5507 36.5261 41.7045" fill="white"/>
<path fill-rule="evenodd" clip-rule="evenodd" d="M36.5257 41.7042C36.5257 41.7042 47.7157 34.3481 45.097 19.0439C42.5726 7.91711 36.6193 4.27032 35.9647 2.86761C35.248 1.8702 34.562 0.125 34.562 0.125L35.0298 31.0752C35.0298 31.1066 34.0635 40.5507 36.5261 41.7045" fill="#499D4A"/>
<path fill-rule="evenodd" clip-rule="evenodd" d="M33.9075 42.1091C33.9075 42.1091 23.4032 34.9402 24.0267 22.3171C24.6188 9.69369 32.037 3.49108 33.4708 2.36904C34.406 1.37164 34.4371 0.997403 34.4996 0C35.1542 1.40271 35.0295 20.9769 35.1228 23.2831C35.4031 32.1662 34.6242 40.4264 33.9075 42.1091Z" fill="white"/>
<path fill-rule="evenodd" clip-rule="evenodd" d="M33.9075 42.1091C33.9075 42.1091 23.4032 34.9402 24.0267 22.3171C24.6188 9.69369 32.037 3.49108 33.4708 2.36904C34.406 1.37164 34.4371 0.997403 34.4996 0C35.1542 1.40271 35.0295 20.9769 35.1228 23.2831C35.4031 32.1662 34.6242 40.4264 33.9075 42.1091Z" fill="#58AA50"/>
</g>
<defs>
<clipPath id="clip0">
<rect x="11" width="48" height="48" fill="white"/>
</clipPath>
</defs>
</svg>
