<svg width="48" height="48" viewBox="0 0 48 48" fill="none" xmlns="http://www.w3.org/2000/svg">
<g clip-path="url(#clip0)">
<path d="M18.0253 30.8821C17.8138 30.8441 17.7309 30.8296 17.6481 30.8143C14.9691 30.3161 13.2756 28.6949 12.4731 26.1464C11.9728 24.5579 12.8818 23.3881 14.5479 23.3111C15.9122 23.2479 16.8459 24.032 17.6717 24.9444C18.7361 26.1208 19.7119 27.3768 20.7574 28.5708C22.2626 30.2896 24.0362 31.3964 26.4628 31.0548C28.6387 30.7484 30.5349 29.8753 32.1849 28.4381C32.433 28.2221 32.7051 28.0338 32.9663 27.8326L32.8016 27.6386C31.4166 28.0687 30.0039 28.2133 28.5606 28.1407C26.3766 28.0308 24.2955 27.5748 22.4334 26.3758C20.7343 25.2815 19.4813 23.8153 18.8856 21.8568C18.4044 20.2747 19.3892 19.1679 21.0287 19.3966C21.6769 19.487 22.2225 19.7789 22.7122 20.1929C23.1111 20.5297 23.4936 20.8867 23.9002 21.2133C25.8139 22.751 28.4878 22.8365 30.9169 21.167C26.9235 21.1488 24.2066 18.9523 21.8203 16.1684C20.8864 15.0789 19.9746 13.9698 19.0213 12.8975C17.1769 10.8224 15.1307 8.99432 12.3289 8.3707C8.74988 7.57401 5.29462 8.0947 1.97813 9.61363C1.31681 9.91645 0.68175 10.2686 0 10.8359C0.3375 10.8359 0.521625 10.8401 0.705375 10.8354C2.3775 10.7923 3.63056 11.5353 4.53431 12.9031C5.19206 13.8986 5.502 15.0243 5.73825 16.1825C6.08887 17.9013 5.90737 19.6537 6.10987 21.3804C6.63037 25.8194 8.89912 28.9171 13.1235 30.5034C14.6726 31.0852 16.2615 31.2789 18.0253 30.8821ZM7.34925 10.6327C6.68175 10.8011 6.14831 10.5316 5.59856 9.97532C6.54 9.74076 7.37025 9.64982 8.26237 9.61476C8.18944 10.1939 7.84781 10.5071 7.34925 10.6327ZM29.2226 36.5548C29.1645 36.1274 28.7994 35.9392 28.5124 35.7157C27.2426 34.7274 25.7576 34.3775 24.1832 34.3484C23.2436 34.3312 22.3138 34.2611 21.4277 33.9316C21.0216 33.7807 20.5673 33.5868 20.5776 33.062C20.5879 32.5295 21.0512 32.3789 21.4729 32.2529C21.8181 32.1498 22.1743 32.084 22.5673 31.9921C21.5691 31.3524 20.5939 31.2637 19.2945 31.7863C17.2491 32.6086 15.2325 32.5111 13.1934 31.7748C12.0422 31.3593 11.0205 30.707 9.95681 30.1293L9.92775 30.1494L9.95531 30.1303C9.92906 30.05 9.88144 30.0479 9.82031 30.0928L9.90375 30.1659C10.7859 31.6117 11.9777 32.7749 13.3239 33.7691C15.9167 35.6834 18.7487 36.8251 22.0624 36.3185C23.1335 36.1543 24.2102 36.0284 25.2904 35.9409C26.6438 35.8316 27.9332 36.2124 29.2226 36.5548ZM22.9753 15.8137C22.9037 15.7618 22.8349 15.6314 22.6886 15.7663C23.8807 17.3788 25.4123 18.5675 27.2563 19.3158C30.2325 20.5235 33.2531 20.7301 36.3426 19.6644C38.7411 18.8371 40.4659 19.6454 41.3616 21.9742C41.4911 19.2712 39.9009 17.3017 37.368 16.9156C35.943 16.6985 34.6273 17.1712 33.2925 17.5584C29.5779 18.6354 26.1261 18.1036 22.9753 15.8137ZM41.4885 26.3564C41.9726 26.3971 42.4564 26.441 42.9403 26.4834C41.8468 25.5228 40.5141 25.4467 39.1657 25.5234C37.1126 25.64 35.6334 26.8241 34.2849 28.2388C33.0967 29.4856 32.0231 30.8844 30.2499 31.3854C30.2796 31.4386 30.2873 31.4653 30.2955 31.4653C30.534 31.4688 30.7731 31.4801 31.011 31.4692C33.5863 31.3526 36.0124 30.8094 37.9423 28.9404C38.55 28.3518 39.0939 27.698 39.6806 27.0871C40.17 26.5777 40.7634 26.2953 41.4885 26.3564ZM35.5059 23.1648C33.5841 23.3328 31.9146 24.1278 30.3465 25.1761C29.1396 25.9829 27.8488 26.3647 26.3983 26.1123C26.1431 26.0679 25.8861 26.0347 25.6299 25.9963L25.6211 26.1035C25.7134 26.1509 25.8024 26.2064 25.8984 26.2445C26.1401 26.3401 26.3783 26.4553 26.6291 26.5149C29.4202 27.1784 32.0921 26.8385 34.5011 25.2824C36.0195 24.3016 37.5913 24.1158 39.2949 24.3691C39.4671 24.3948 39.6384 24.4261 39.8113 24.4423C39.9714 24.4574 40.1387 24.6166 40.3549 24.4443C38.8656 23.3684 37.2613 23.0114 35.5059 23.1648ZM28.6371 16.6411C29.6453 16.676 30.6489 16.544 31.7034 15.9176C31.3946 15.9449 31.2636 15.9444 31.1379 15.9695C29.6852 16.259 28.3811 15.9421 27.2196 15.0238C26.7934 14.6866 26.3601 14.3585 25.9284 14.0283C24.2173 12.7196 22.2551 12.2818 20.1088 12.3189C20.1435 12.4244 20.1456 12.4968 20.1829 12.5343C22.5182 14.8964 25.221 16.5234 28.6371 16.6411ZM45.5387 28.7608C44.0934 27.3273 42.1539 27.1426 40.3592 28.3936C41.5472 28.4471 42.4389 28.826 43.1621 29.5749C43.4181 29.8398 43.6834 30.0999 43.9697 30.3309C45.0632 31.2129 46.917 31.2553 48 30.437C46.7278 29.9405 46.7278 29.9405 45.5387 28.7608ZM31.1449 39.7379C29.8748 37.3738 27.7401 36.8403 25.2741 36.9989C26.0031 37.2011 26.6839 37.5121 27.3086 37.9483C27.8826 38.3489 28.3656 38.8451 28.8416 39.3532C29.7849 40.3599 31.2572 40.9777 32.2327 40.7688C31.7848 40.4864 31.3869 40.1883 31.1449 39.7379ZM42.9632 26.5321C42.9636 26.5171 42.9639 26.5019 42.9649 26.4862L42.9611 26.4901L42.9652 26.4856L42.9403 26.4834C42.9452 26.4879 42.9504 26.4914 42.9553 26.4959L42.9632 26.5321ZM29.2931 36.6104C29.2765 36.6009 29.2598 36.5915 29.2431 36.5821C29.2447 36.5926 29.2483 36.6027 29.2536 36.6119C29.2569 36.6176 29.2794 36.6112 29.2931 36.6104ZM29.2431 36.5821C29.2416 36.5744 29.2402 36.5666 29.2382 36.5589L29.2324 36.566L29.2382 36.5591L29.2226 36.5548C29.2236 36.5611 29.2258 36.5664 29.2266 36.5729L29.2431 36.5821Z" fill="#FD4F00"/>
</g>
<defs>
<clipPath id="clip0">
<rect y="8" width="48" height="32.8128" fill="white"/>
</clipPath>
</defs>
</svg>
