<svg width="48" height="48" viewBox="0 0 48 48" fill="none" xmlns="http://www.w3.org/2000/svg">
<path d="M0 0H48V48H0V0Z" fill="#F7DF1E"/>
<path d="M12.6208 40.1119L16.2939 37.8889C17.0027 39.1453 17.6473 40.2084 19.1936 40.2084C20.6758 40.2084 21.6105 39.6287 21.6105 37.3734V22.0363H26.1212V37.4372C26.1212 42.1091 23.3825 44.2358 19.3869 44.2358C15.7785 44.2358 13.6839 42.3669 12.6206 40.1115L12.6208 40.1119ZM28.5712 39.6285L32.244 37.5021C33.2109 39.081 34.4675 40.2409 36.6905 40.2409C38.5597 40.2409 39.7515 39.3064 39.7515 38.0175C39.7515 36.471 38.5271 35.9231 36.465 35.0213L35.3375 34.5375C32.0831 33.1524 29.9244 31.4124 29.9244 27.7393C29.9244 24.3561 32.502 21.7783 36.5297 21.7783C39.3973 21.7783 41.4594 22.7773 42.9414 25.3871L39.4292 27.6428C38.6557 26.2573 37.8184 25.7096 36.5295 25.7096C35.2084 25.7096 34.3706 26.5474 34.3706 27.6428C34.3706 28.9959 35.2084 29.544 37.1415 30.3818L38.2691 30.8649C42.1035 32.5084 44.2622 34.1837 44.2622 37.9532C44.2622 42.0133 41.0724 44.2363 36.7871 44.2363C32.5985 44.2363 29.892 42.2387 28.571 39.6287" fill="black"/>
</svg>
