<svg width="48" height="48" viewBox="0 0 48 48" fill="none" xmlns="http://www.w3.org/2000/svg">
<g clip-path="url(#clip0)">
<path d="M1.72626 2.28821C1.50348 2.28533 1.28276 2.33126 1.07962 2.42277C0.876476 2.51428 0.695829 2.64916 0.550366 2.81792C0.404904 2.98669 0.298152 3.18526 0.237609 3.39968C0.177065 3.6141 0.164198 3.83917 0.199911 4.05909L6.67955 43.3946C6.76026 43.8759 7.00801 44.3135 7.37928 44.6303C7.75055 44.9472 8.22159 45.1231 8.70966 45.1271H39.795C40.1608 45.1318 40.5161 45.0049 40.7962 44.7695C41.0764 44.5342 41.2626 44.2061 41.3211 43.8449L47.801 4.06672C47.8366 3.84681 47.8237 3.62176 47.7631 3.40737C47.7025 3.19299 47.5958 2.99446 47.4503 2.82573C47.3048 2.65701 47.1242 2.52217 46.921 2.43069C46.7179 2.33922 46.4972 2.29332 46.2744 2.29622L1.72626 2.28821ZM29.0108 30.7176H19.0891L16.4026 16.6823H31.4149L29.0108 30.7176Z" fill="#2684FF"/>
<path d="M45.7011 16.6621H31.3874L28.9851 30.6863H19.0715L7.36572 44.5808C7.73675 44.9015 8.20976 45.0799 8.70021 45.084H39.7684C40.134 45.0887 40.4891 44.9619 40.769 44.7268C41.049 44.4916 41.2351 44.1638 41.2936 43.8029L45.7011 16.6621Z" fill="url(#paint0_linear)"/>
</g>
<defs>
<linearGradient id="paint0_linear" x1="49.0106" y1="20.5895" x2="32.4759" y2="44.0667" gradientUnits="userSpaceOnUse">
<stop offset="0.18" stop-color="#0052CC"/>
<stop offset="1" stop-color="#2684FF"/>
</linearGradient>
<clipPath id="clip0">
<rect y="2" width="48" height="43.3152" fill="white"/>
</clipPath>
</defs>
</svg>
