<svg width="80" height="80" viewBox="0 0 80 80" fill="none" xmlns="http://www.w3.org/2000/svg">
<g clip-path="url(#clip0)">
<path d="M51.4459 55.0156L63.3567 25.5335H55.4606L47.3134 44.5856L41.5191 25.5335H35.4495L29.2292 44.5856L24.842 35.9038L20.8721 48.1114L24.9027 55.0159H32.6738L38.2952 37.9305L43.6549 55.0159L51.4459 55.0156Z" fill="#FB8C00"/>
<path d="M8.24195 44.8948H13.0932C14.5629 44.8948 15.8714 44.7308 17.019 44.4026L18.2739 40.535L21.7804 29.726C21.511 29.2995 21.2047 28.8975 20.8652 28.5245C19.0653 26.5306 16.4308 25.5335 12.9626 25.5335H0.765137V55.0156H8.24195V44.8948ZM14.6634 32.3161C15.3669 33.0241 15.7185 33.9719 15.7185 35.1593C15.7185 36.3556 15.4089 37.3043 14.7906 38.0056C14.1126 38.7848 12.8642 39.1743 11.0453 39.1743H8.24195V31.254H11.0662C12.7612 31.254 13.9603 31.608 14.6637 32.3161H14.6634ZM58.5196 49.7353L60.7863 44.0148H67.3297L64.2244 35.3374L68.1086 25.5335L79.2329 55.0156H71.0288L69.1281 49.7353H58.5196Z" fill="#616161"/>
</g>
<defs>
<clipPath id="clip0">
<rect y="25" width="80" height="30.016" fill="white"/>
</clipPath>
</defs>
</svg>
