<svg width="70" height="48" viewBox="0 0 70 48" fill="none" xmlns="http://www.w3.org/2000/svg">
<g clip-path="url(#clip0)">
<path d="M19.9542 17.8977C19.9542 18.7419 20.0454 19.4263 20.2051 19.9282C20.3876 20.4301 20.6158 20.9777 20.9352 21.5708C21.0493 21.7534 21.0949 21.9359 21.0949 22.0956C21.0949 22.3237 20.958 22.5519 20.6614 22.78L19.2241 23.7382C19.0188 23.8751 18.8135 23.9435 18.6309 23.9435C18.4028 23.9435 18.1747 23.8295 17.9465 23.6241C17.6271 23.2819 17.3533 22.9169 17.1252 22.5519C16.8971 22.164 16.6689 21.7305 16.418 21.2058C14.6385 23.3047 12.4027 24.3542 9.71057 24.3542C7.79418 24.3542 6.26562 23.8066 5.14773 22.7116C4.02983 21.6165 3.45947 20.1564 3.45947 18.3312C3.45947 16.392 4.1439 14.8178 5.53557 13.6315C6.92724 12.4451 8.77519 11.852 11.1251 11.852C11.9007 11.852 12.6992 11.9204 13.5434 12.0345C14.3875 12.1485 15.2544 12.3311 16.167 12.5364V10.8709C16.167 9.13705 15.802 7.92789 15.0947 7.22065C14.3647 6.5134 13.1327 6.17119 11.376 6.17119C10.5775 6.17119 9.7562 6.26245 8.91208 6.46777C8.06795 6.6731 7.24664 6.92406 6.44814 7.24346C6.08311 7.40316 5.80934 7.49442 5.64964 7.54005C5.48994 7.58567 5.37587 7.60849 5.28461 7.60849C4.96521 7.60849 4.80551 7.38035 4.80551 6.90125V5.78334C4.80551 5.41832 4.85114 5.14454 4.96521 4.98484C5.07928 4.82514 5.28461 4.66544 5.60401 4.50574C6.40251 4.09509 7.36071 3.75287 8.4786 3.4791C9.5965 3.18251 10.7828 3.04563 12.0376 3.04563C14.7525 3.04563 16.7374 3.66161 18.015 4.89359C19.2697 6.12556 19.9085 7.99633 19.9085 10.5059V17.8977H19.9542ZM10.6916 21.3655C11.4445 21.3655 12.2201 21.2286 13.0415 20.9549C13.8628 20.6811 14.5928 20.1792 15.2088 19.4947C15.5738 19.0613 15.8476 18.5822 15.9845 18.0346C16.1214 17.4871 16.2126 16.8255 16.2126 16.0498V15.0916C15.551 14.9319 14.8438 14.795 14.1137 14.7037C13.3837 14.6125 12.6764 14.5669 11.9692 14.5669C10.4406 14.5669 9.32273 14.8634 8.56986 15.4794C7.81699 16.0954 7.45196 16.9624 7.45196 18.1031C7.45196 19.1753 7.72574 19.9738 8.29609 20.5214C8.84363 21.0917 9.64213 21.3655 10.6916 21.3655ZM29.0114 23.8295C28.6008 23.8295 28.327 23.761 28.1445 23.6013C27.962 23.4644 27.8023 23.145 27.6654 22.7116L22.304 5.0761C22.1671 4.61982 22.0987 4.32323 22.0987 4.16353C22.0987 3.7985 22.2812 3.59317 22.6462 3.59317H24.882C25.3155 3.59317 25.6121 3.66161 25.7718 3.82131C25.9543 3.9582 26.0912 4.2776 26.2281 4.71107L30.0609 19.8141L33.6199 4.71107C33.734 4.25479 33.8709 3.9582 34.0534 3.82131C34.2359 3.68443 34.5553 3.59317 34.9659 3.59317H36.7911C37.2245 3.59317 37.5211 3.66161 37.7036 3.82131C37.8862 3.9582 38.0459 4.2776 38.1371 4.71107L41.7418 19.9967L45.6886 4.71107C45.8255 4.25479 45.9852 3.9582 46.1449 3.82131C46.3274 3.68443 46.624 3.59317 47.0347 3.59317H49.1564C49.5214 3.59317 49.7267 3.77569 49.7267 4.16353C49.7267 4.2776 49.7039 4.39167 49.6811 4.52856C49.6583 4.66544 49.6127 4.84796 49.5214 5.09892L44.0232 22.7344C43.8863 23.1907 43.7266 23.4872 43.5441 23.6241C43.3616 23.761 43.065 23.8523 42.6772 23.8523H40.7151C40.2817 23.8523 39.9851 23.7838 39.8026 23.6241C39.62 23.4644 39.4603 23.1678 39.3691 22.7116L35.8329 7.99633L32.3195 22.6887C32.2054 23.145 32.0685 23.4416 31.886 23.6013C31.7035 23.761 31.3841 23.8295 30.9734 23.8295H29.0114ZM58.3277 24.4454C57.1414 24.4454 55.955 24.3086 54.8143 24.0348C53.6736 23.761 52.7839 23.4644 52.1907 23.1222C51.8257 22.9169 51.5747 22.6887 51.4834 22.4834C51.3922 22.2781 51.3466 22.0499 51.3466 21.8446V20.6811C51.3466 20.202 51.5291 19.9738 51.8713 19.9738C52.0082 19.9738 52.1451 19.9967 52.2819 20.0423C52.4188 20.0879 52.6242 20.1792 52.8523 20.2704C53.628 20.6126 54.4721 20.8864 55.3619 21.0689C56.2744 21.2514 57.1642 21.3427 58.0768 21.3427C59.5141 21.3427 60.632 21.0917 61.4076 20.5898C62.1833 20.0879 62.594 19.3579 62.594 18.4225C62.594 17.7837 62.3887 17.2589 61.978 16.8255C61.5673 16.392 60.7917 16.0042 59.6738 15.6391L56.3657 14.6125C54.7003 14.0878 53.4683 13.3121 52.7154 12.2854C51.9625 11.2816 51.5747 10.1637 51.5747 8.97735C51.5747 8.01915 51.78 7.17502 52.1907 6.44496C52.6013 5.7149 53.1489 5.0761 53.8333 4.57419C54.5177 4.04946 55.2934 3.66161 56.206 3.38784C57.1186 3.11407 58.0768 3 59.0806 3C59.5825 3 60.1072 3.02281 60.6091 3.09126C61.1339 3.1597 61.613 3.25096 62.0921 3.34221C62.5484 3.45629 62.9818 3.57036 63.3925 3.70724C63.8031 3.84413 64.1225 3.98102 64.3507 4.1179C64.6701 4.30042 64.8982 4.48293 65.0351 4.68826C65.172 4.87077 65.2404 5.12173 65.2404 5.44113V6.5134C65.2404 6.9925 65.0579 7.24346 64.7157 7.24346C64.5332 7.24346 64.2366 7.1522 63.8488 6.96969C62.5483 6.37652 61.0882 6.07993 59.4684 6.07993C58.168 6.07993 57.1414 6.28526 56.4341 6.71873C55.7269 7.1522 55.3619 7.81382 55.3619 8.7492C55.3619 9.388 55.59 9.93555 56.0463 10.369C56.5026 10.8025 57.3467 11.236 58.5559 11.6238L61.7955 12.6505C63.4381 13.1752 64.6244 13.9052 65.3317 14.8406C66.0389 15.776 66.3811 16.8483 66.3811 18.0346C66.3811 19.0156 66.1758 19.9054 65.788 20.6811C65.3773 21.4568 64.8298 22.1412 64.1225 22.6887C63.4153 23.2591 62.5712 23.6698 61.5902 23.9663C60.5635 24.2857 59.4912 24.4454 58.3277 24.4454Z" fill="#252F3E"/>
<path fill-rule="evenodd" clip-rule="evenodd" d="M62.639 35.5332C55.1331 41.0771 44.2279 44.0201 34.8512 44.0201C21.7102 44.0201 9.86963 39.1607 0.926448 31.0844C0.219207 30.4456 0.858005 29.5787 1.70213 30.0806C11.3754 35.6929 23.3072 39.0922 35.6497 39.0922C43.9769 39.0922 53.1254 37.3583 61.5439 33.7993C62.7987 33.2289 63.8709 34.6206 62.639 35.5332Z" fill="#FF9900"/>
<path fill-rule="evenodd" clip-rule="evenodd" d="M65.7643 31.9743C64.8061 30.7424 59.422 31.3811 56.9809 31.6777C56.2508 31.769 56.1367 31.1302 56.7983 30.6511C61.0874 27.6396 68.137 28.5066 68.9583 29.5104C69.7796 30.537 68.7302 37.5866 64.7149 40.9631C64.0989 41.4878 63.5057 41.214 63.7795 40.5296C64.6921 38.271 66.7225 33.1835 65.7643 31.9743Z" fill="#FF9900"/>
</g>
<defs>
<clipPath id="clip0">
<rect y="3" width="70" height="41.02" fill="white"/>
</clipPath>
</defs>
</svg>
