<svg width="48" height="48" viewBox="0 0 48 48" fill="none" xmlns="http://www.w3.org/2000/svg">
<path d="M46.8696 22.6564L26.2146 2.00143L24.2131 0L8.66452 15.5486L1.5545 22.6564C1.19936 23.0134 1 23.4965 1 24C1 24.5035 1.19936 24.9866 1.5545 25.3436L15.7595 39.5486L24.2131 48L39.7596 32.4514L40.0017 32.2114L46.8696 25.3543C47.0476 25.1776 47.1889 24.9675 47.2852 24.7359C47.3816 24.5044 47.4313 24.2561 47.4313 24.0054C47.4313 23.7546 47.3816 23.5063 47.2852 23.2748C47.1889 23.0433 47.0476 22.8331 46.8696 22.6564ZM24.2131 31.0971L17.116 24L24.2131 16.9029L31.3082 24L24.2131 31.0971Z" fill="#2684FF"/>
<path d="M24.2131 16.9029C21.9811 14.6713 20.7228 11.6472 20.7132 8.49097C20.7035 5.33476 21.9433 2.30298 24.1617 0.0578613L8.63239 15.5807L17.0838 24.0322L24.2131 16.9029Z" fill="url(#paint0_linear)"/>
<path d="M31.3271 23.9805L24.2129 31.0969C26.4534 33.338 27.712 36.3772 27.712 39.5462C27.712 42.7152 26.4534 45.7544 24.2129 47.9955L39.785 32.4319L31.3271 23.9805Z" fill="url(#paint1_linear)"/>
<defs>
<linearGradient id="paint0_linear" x1="22.9424" y1="9.72215" x2="13.0317" y2="19.6307" gradientUnits="userSpaceOnUse">
<stop offset="0.18" stop-color="#0052CC"/>
<stop offset="1" stop-color="#2684FF"/>
</linearGradient>
<linearGradient id="paint1_linear" x1="1809.55" y1="2083.75" x2="2821.54" y2="2739.81" gradientUnits="userSpaceOnUse">
<stop offset="0.18" stop-color="#0052CC"/>
<stop offset="1" stop-color="#2684FF"/>
</linearGradient>
</defs>
</svg>
