<svg width="40" height="40" viewBox="0 0 40 40" fill="none" xmlns="http://www.w3.org/2000/svg">
<rect width="40" height="40" fill="#0057FF"/>
<path d="M27.6969 17.9625C27.8187 17.8656 28 17.9562 28 18.1094V24.5C28 25.3281 27.3281 26 26.5 26H13.5C12.6719 26 12 25.3281 12 24.5V18.1125C12 17.9563 12.1781 17.8687 12.3031 17.9656C13.0031 18.5094 13.9313 19.2 17.1188 21.5156C17.7781 21.9969 18.8906 23.0094 20 23.0031C21.1156 23.0125 22.25 21.9781 22.8844 21.5156C26.0719 19.2 26.9969 18.5062 27.6969 17.9625ZM20 22C20.725 22.0125 21.7688 21.0875 22.2937 20.7063C26.4406 17.6969 26.7562 17.4344 27.7125 16.6844C27.8937 16.5437 28 16.325 28 16.0938V15.5C28 14.6719 27.3281 14 26.5 14H13.5C12.6719 14 12 14.6719 12 15.5V16.0938C12 16.325 12.1062 16.5406 12.2875 16.6844C13.2437 17.4312 13.5594 17.6969 17.7063 20.7063C18.2313 21.0875 19.275 22.0125 20 22Z" fill="white"/>
</svg>
