<svg width="70" height="48" viewBox="0 0 70 48" fill="none" xmlns="http://www.w3.org/2000/svg">
<g clip-path="url(#clip0)">
<path d="M34.6064 45.8C34.3695 45.8 34.1484 45.7368 33.9429 45.6262L31.8417 44.3781C31.5256 44.2042 31.6837 44.1411 31.7785 44.1095C32.205 43.9673 32.2841 43.9356 32.7264 43.683C32.7738 43.6513 32.8371 43.6672 32.8844 43.6987L34.496 44.6625C34.5591 44.694 34.6382 44.694 34.6855 44.6625L40.9894 41.0128C41.0525 40.9813 41.0842 40.918 41.0842 40.8391V33.5557C41.0842 33.4765 41.0525 33.4135 40.9894 33.3818L34.6855 29.748C34.6223 29.7163 34.5433 29.7163 34.496 29.748L28.1921 33.3818C28.1289 33.4134 28.0972 33.4924 28.0972 33.5555V40.839C28.0972 40.9022 28.1289 40.9811 28.1921 41.0128L29.9142 42.0082C30.8464 42.4821 31.4309 41.9291 31.4309 41.3762V34.1875C31.4309 34.0928 31.5099 33.9979 31.6205 33.9979H32.4262C32.5211 33.9979 32.6158 34.0769 32.6158 34.1875V41.3762C32.6158 42.6243 31.9364 43.3511 30.7515 43.3511C30.3882 43.3511 30.1038 43.3511 29.298 42.956L27.6391 42.0082C27.2283 41.7712 26.9756 41.3288 26.9756 40.8548V33.5714C26.9756 33.0975 27.2283 32.655 27.6391 32.4181L33.9429 28.7684C34.338 28.5472 34.8752 28.5472 35.2701 28.7684L41.5739 32.4181C41.9847 32.655 42.2376 33.0975 42.2376 33.5714V40.8548C42.2376 41.3288 41.9847 41.7712 41.5739 42.0082L35.2701 45.6578C35.0647 45.7527 34.8278 45.8 34.6066 45.8H34.6064ZM36.5498 40.7917C33.785 40.7917 33.2162 39.5277 33.2162 38.4534C33.2162 38.3585 33.2952 38.2638 33.4058 38.2638H34.2274C34.3221 38.2638 34.4011 38.3269 34.4011 38.4218C34.5276 39.2591 34.8909 39.6699 36.5656 39.6699C37.8927 39.6699 38.4617 39.3697 38.4617 38.6587C38.4617 38.2479 38.3035 37.9479 36.2339 37.7424C34.5117 37.5685 33.4374 37.1895 33.4374 35.8149C33.4374 34.5351 34.5118 33.7767 36.3129 33.7767C38.3351 33.7767 39.3305 34.472 39.457 35.9885C39.457 36.0361 39.4411 36.0834 39.4095 36.1308C39.3778 36.1624 39.3305 36.194 39.2831 36.194H38.4615C38.3825 36.194 38.3035 36.1308 38.2878 36.0518C38.0982 35.183 37.6084 34.8985 36.3129 34.8985C34.8593 34.8985 34.6855 35.4041 34.6855 35.7832C34.6855 36.2414 34.8909 36.3836 36.85 36.6364C38.7933 36.8893 39.7097 37.2526 39.7097 38.6113C39.6939 40.0017 38.5564 40.7917 36.5498 40.7917Z" fill="#539E43"/>
<path d="M15.0464 17.3142C15.0464 17.0299 14.8884 16.7611 14.6356 16.619L7.93677 12.764C7.82604 12.7007 7.69973 12.6691 7.57342 12.6533H7.51012C7.38381 12.6533 7.25736 12.7007 7.14677 12.764L0.447895 16.619C0.194999 16.7611 0.0371094 17.0298 0.0371094 17.3142L0.0529666 27.6785C0.0529666 27.8206 0.13198 27.9628 0.258291 28.0261C0.384739 28.1051 0.542628 28.1051 0.653356 28.0261L4.63476 25.751C4.88752 25.6088 5.04555 25.3402 5.04555 25.0559V20.2054C5.04555 19.9211 5.20344 19.6525 5.45633 19.5103L7.14677 18.5307C7.27322 18.4517 7.41539 18.42 7.55756 18.42C7.69973 18.42 7.8419 18.4517 7.95262 18.5307L9.64306 19.5103C9.89596 19.6525 10.0538 19.921 10.0538 20.2054V25.0559C10.0538 25.3402 10.2119 25.6088 10.4646 25.751L14.446 28.0261C14.5725 28.1051 14.7304 28.1051 14.8568 28.0261C14.9833 27.9628 15.0623 27.8206 15.0623 27.6785L15.0464 17.3142ZM47.2453 3.04747C47.119 2.98418 46.961 2.98418 46.8502 3.04747C46.7239 3.12648 46.6449 3.25279 46.6449 3.39496V13.6646C46.6449 13.7593 46.5976 13.8541 46.5028 13.9174C46.408 13.9647 46.3131 13.9647 46.2184 13.9174L44.5437 12.9536C44.4209 12.8837 44.2821 12.8469 44.1408 12.8469C43.9995 12.8469 43.8606 12.8837 43.7378 12.9536L37.039 16.8244C36.7862 16.9666 36.6282 17.2352 36.6282 17.5196V25.2453C36.6282 25.5297 36.7862 25.7984 37.039 25.9406L43.7378 29.8114C43.8606 29.8813 43.9995 29.9181 44.1408 29.9181C44.2821 29.9181 44.4209 29.8813 44.5437 29.8114L51.2426 25.9406C51.4953 25.7984 51.6534 25.5298 51.6534 25.2453V5.98612C51.6534 5.68593 51.4953 5.41745 51.2426 5.27514L47.2454 3.04747H47.2453ZM46.6292 22.7017C46.6292 22.7808 46.5976 22.8439 46.5343 22.8755L44.2435 24.2026C44.2115 24.2182 44.1764 24.2263 44.1408 24.2263C44.1052 24.2263 44.07 24.2182 44.038 24.2026L41.7472 22.8755C41.6839 22.8439 41.6523 22.7649 41.6523 22.7017V20.0474C41.6523 19.9684 41.6839 19.9053 41.7472 19.8737L44.038 18.5464C44.07 18.5308 44.1052 18.5227 44.1408 18.5227C44.1764 18.5227 44.2115 18.5308 44.2435 18.5464L46.5343 19.8737C46.5976 19.9051 46.6292 19.9843 46.6292 20.0474V22.7017ZM69.538 19.9843C69.7909 19.8421 69.9331 19.5735 69.9331 19.289V17.409C69.9331 17.1246 69.7751 16.856 69.538 16.7138L62.8866 12.8589C62.7638 12.789 62.625 12.7523 62.4837 12.7523C62.3425 12.7523 62.2036 12.789 62.0809 12.8589L55.382 16.7296C55.1291 16.8717 54.9712 17.1403 54.9712 17.4248V25.1506C54.9712 25.4349 55.1291 25.7035 55.382 25.8457L62.0334 29.6375C62.2863 29.7797 62.5864 29.7797 62.8234 29.6375L66.8521 27.3943C66.9786 27.331 67.0576 27.1888 67.0576 27.0466C67.0576 26.9045 66.9786 26.7623 66.8521 26.699L60.1217 22.8282C59.9954 22.7493 59.9164 22.6229 59.9164 22.4807V20.0634C59.9164 19.9212 59.9954 19.7791 60.1217 19.7158L62.223 18.515C62.2846 18.4763 62.3558 18.4558 62.4284 18.4558C62.5011 18.4558 62.5723 18.4763 62.6338 18.515L64.7351 19.7158C64.8615 19.7948 64.9405 19.9211 64.9405 20.0634V21.9593C64.9405 22.1015 65.0195 22.2437 65.1458 22.3068C65.2723 22.3858 65.4302 22.3858 65.5566 22.3068L69.538 19.9843Z" fill="#333333"/>
<path d="M62.3818 19.6203C62.4052 19.6049 62.4327 19.5967 62.4608 19.5967C62.4888 19.5967 62.5163 19.6049 62.5397 19.6203L63.8195 20.3629C63.867 20.3943 63.8986 20.4418 63.8986 20.5051V21.9902C63.8986 22.0533 63.867 22.1008 63.8195 22.1324L62.5397 22.8749C62.5163 22.8904 62.4888 22.8986 62.4608 22.8986C62.4327 22.8986 62.4052 22.8904 62.3818 22.8749L61.102 22.1324C61.0545 22.1008 61.0229 22.0533 61.0229 21.9902V20.5051C61.0229 20.4418 61.0545 20.3943 61.102 20.3629L62.3818 19.6203Z" fill="#539E43"/>
<mask id="mask0" mask-type="alpha" maskUnits="userSpaceOnUse" x="18" y="12" width="16" height="18">
<path d="M26.2482 12.8908C26.1255 12.8209 25.9866 12.7842 25.8454 12.7842C25.7041 12.7842 25.5653 12.8209 25.4425 12.8908L18.7911 16.7298C18.5382 16.8719 18.396 17.1406 18.396 17.4249V25.1192C18.396 25.4036 18.554 25.6722 18.7911 25.8144L25.4425 29.6536C25.5653 29.7235 25.7041 29.7602 25.8454 29.7602C25.9866 29.7602 26.1255 29.7235 26.2482 29.6536L32.8998 25.8144C33.1526 25.6722 33.2949 25.4036 33.2949 25.1192V17.425C33.2949 17.1407 33.1367 16.8721 32.8998 16.7299L26.2482 12.8908Z" fill="white"/>
</mask>
<g mask="url(#mask0)">
<path d="M26.2482 12.8908C26.1255 12.8209 25.9866 12.7842 25.8454 12.7842C25.7041 12.7842 25.5653 12.8209 25.4425 12.8908L18.7911 16.7298C18.5382 16.8719 18.396 17.1406 18.396 17.4249V25.1192C18.396 25.4036 18.554 25.6722 18.7911 25.8144L25.4425 29.6536C25.5653 29.7235 25.7041 29.7602 25.8454 29.7602C25.9866 29.7602 26.1255 29.7235 26.2482 29.6536L32.8998 25.8144C33.1526 25.6722 33.2949 25.4036 33.2949 25.1192V17.425C33.2949 17.1407 33.1367 16.8721 32.8998 16.7299L26.2482 12.8908Z" fill="url(#paint0_linear)"/>
<path d="M32.916 16.7306L26.233 12.8915C26.1673 12.8584 26.0985 12.8319 26.0275 12.8125L18.5386 25.6416C18.6006 25.7173 18.6755 25.7815 18.7599 25.8312L25.443 29.6704C25.6326 29.781 25.8537 29.8126 26.0591 29.7493L33.0899 16.8888C33.0425 16.8256 32.9792 16.778 32.916 16.7308V16.7306Z" fill="url(#paint1_linear)"/>
<path fill-rule="evenodd" clip-rule="evenodd" d="M32.9316 25.8142C33.1212 25.7036 33.2633 25.514 33.3266 25.3087L25.9955 12.7956C25.8059 12.7641 25.6004 12.7798 25.4268 12.8904L18.791 16.7139L25.948 29.764C26.0521 29.747 26.1532 29.7151 26.2482 29.6693L32.9314 25.8143L32.9316 25.8142Z" fill="url(#paint2_linear)"/>
<path fill-rule="evenodd" clip-rule="evenodd" d="M32.9319 25.8144L26.2646 29.6536C26.1704 29.7016 26.069 29.7337 25.9644 29.7484L26.0908 29.9854L33.4848 25.7039V25.609L33.2952 25.293C33.2637 25.5142 33.1215 25.7038 32.9319 25.8144Z" fill="url(#paint3_linear)"/>
<path fill-rule="evenodd" clip-rule="evenodd" d="M32.9319 25.8144L26.2646 29.6536C26.1704 29.7016 26.069 29.7337 25.9644 29.7484L26.0908 29.9854L33.4848 25.7039V25.609L33.2952 25.293C33.2637 25.5142 33.1215 25.7038 32.9319 25.8144Z" fill="url(#paint4_linear)"/>
</g>
</g>
<defs>
<linearGradient id="paint0_linear" x1="28.5552" y1="15.7528" x2="21.2646" y2="27.2085" gradientUnits="userSpaceOnUse">
<stop stop-color="#41873F"/>
<stop offset="0.3288" stop-color="#418B3D"/>
<stop offset="0.6352" stop-color="#419637"/>
<stop offset="0.9319" stop-color="#3FA92D"/>
<stop offset="1" stop-color="#3FAE2A"/>
</linearGradient>
<linearGradient id="paint1_linear" x1="24.836" y1="22.1742" x2="43.095" y2="12.2539" gradientUnits="userSpaceOnUse">
<stop offset="0.1376" stop-color="#41873F"/>
<stop offset="0.4032" stop-color="#54A044"/>
<stop offset="0.7136" stop-color="#66B848"/>
<stop offset="0.9081" stop-color="#6CC04A"/>
</linearGradient>
<linearGradient id="paint2_linear" x1="18.153" y1="21.2721" x2="33.5445" y2="21.2721" gradientUnits="userSpaceOnUse">
<stop offset="0.09192" stop-color="#6CC04A"/>
<stop offset="0.2864" stop-color="#66B848"/>
<stop offset="0.5968" stop-color="#54A044"/>
<stop offset="0.8624" stop-color="#41873F"/>
</linearGradient>
<linearGradient id="paint3_linear" x1="18.1535" y1="27.6521" x2="33.5448" y2="27.6521" gradientUnits="userSpaceOnUse">
<stop offset="0.09192" stop-color="#6CC04A"/>
<stop offset="0.2864" stop-color="#66B848"/>
<stop offset="0.5968" stop-color="#54A044"/>
<stop offset="0.8624" stop-color="#41873F"/>
</linearGradient>
<linearGradient id="paint4_linear" x1="35.7871" y1="15.3887" x2="31.8878" y2="35.8206" gradientUnits="userSpaceOnUse">
<stop stop-color="#41873F"/>
<stop offset="0.3288" stop-color="#418B3D"/>
<stop offset="0.6352" stop-color="#419637"/>
<stop offset="0.9319" stop-color="#3FA92D"/>
<stop offset="1" stop-color="#3FAE2A"/>
</linearGradient>
<clipPath id="clip0">
<rect y="3" width="70" height="42.924" fill="white"/>
</clipPath>
</defs>
</svg>
