<svg width="40" height="40" viewBox="0 0 40 40" fill="none" xmlns="http://www.w3.org/2000/svg">
<rect width="40" height="40" fill="#0057FF"/>
<g clip-path="url(#clip0)">
<path d="M27.5434 23.3063L24.0434 21.8063C23.8939 21.7426 23.7277 21.7291 23.5699 21.768C23.4121 21.8069 23.2712 21.896 23.1684 22.0219L21.6184 23.9156C19.1859 22.7687 17.2282 20.811 16.0813 18.3785L17.975 16.8285C18.1011 16.7259 18.1904 16.585 18.2293 16.4271C18.2682 16.2692 18.2547 16.1029 18.1906 15.9535L16.6906 12.4535C16.6203 12.2923 16.4961 12.1608 16.3392 12.0815C16.1823 12.0022 16.0027 11.9801 15.8312 12.0191L12.5813 12.7691C12.416 12.8072 12.2685 12.9003 12.163 13.033C12.0574 13.1658 12 13.3304 12 13.5C12 21.5156 18.4969 28 26.5 28C26.6697 28.0001 26.8343 27.9427 26.9672 27.8371C27.1 27.7316 27.1931 27.5841 27.2312 27.4188L27.9812 24.1688C28.02 23.9965 27.9974 23.8162 27.9175 23.6588C27.8376 23.5013 27.7053 23.3767 27.5434 23.3063Z" fill="white"/>
</g>
<defs>
<clipPath id="clip0">
<path d="M12 12H28V28H12V12Z" fill="white"/>
</clipPath>
</defs>
</svg>
