<svg width="80" height="80" viewBox="0 0 80 80" fill="none" xmlns="http://www.w3.org/2000/svg">
<g clip-path="url(#clip0)">
<path d="M0.234863 39.6077C0.234863 45.6121 6.09806 51.2172 15.3414 54.3767C13.4956 63.6692 15.0108 71.1592 20.0712 74.0775C25.2726 77.0773 33.0216 75.0009 40.3766 68.5714C47.546 74.7412 54.7916 77.1692 59.8477 74.2425C65.0443 71.2341 66.6246 63.2364 64.7278 53.6536C74.3555 50.4706 79.7409 45.6911 79.7409 39.6077C79.7409 33.7426 73.8671 28.6687 64.7481 25.5295C66.7902 15.5508 65.06 8.24271 59.7899 5.20377C54.7091 2.27389 47.3791 4.82753 40.1044 11.1585C32.536 4.4388 25.2785 2.38732 20.014 5.4347C14.938 8.37301 13.4896 15.9993 15.3414 25.4636C6.40992 28.5775 0.234863 33.7663 0.234863 39.6077Z" fill="white"/>
<path d="M62.8172 28.6474C62.0656 28.3896 61.3077 28.1508 60.5441 27.9312C60.6708 27.4166 60.7879 26.8998 60.8954 26.3809C62.6159 18.0288 61.491 11.3003 57.6492 9.08539C53.966 6.96111 47.9418 9.17602 41.8577 14.4705C41.2582 14.9934 40.672 15.5313 40.0997 16.0839C39.7164 15.7165 39.3263 15.3562 38.9297 15.0033C32.5534 9.34163 26.1621 6.95611 22.3245 9.17758C18.6446 11.3078 17.5547 17.6335 19.1037 25.5488C19.2578 26.3326 19.4318 27.1124 19.6255 27.8874C18.7212 28.1443 17.8478 28.418 17.0122 28.7093C9.53687 31.3154 4.7627 35.4002 4.7627 39.6369C4.7627 44.013 9.88748 48.4022 17.674 51.0633C18.3054 51.2781 18.942 51.4771 19.5833 51.6602C19.375 52.4951 19.19 53.3357 19.0287 54.181C17.5519 61.9588 18.7052 68.1345 22.3754 70.2516C26.1662 72.4374 32.5284 70.1907 38.7238 64.7753C39.2134 64.3472 39.705 63.8931 40.1972 63.4172C40.8171 64.0153 41.4536 64.596 42.1058 65.1587C48.1068 70.3225 54.0335 72.4078 57.7005 70.285C61.4878 68.0926 62.7184 61.4582 61.1204 53.3864C60.9985 52.7698 60.8563 52.1402 60.6969 51.4989C61.1438 51.3671 61.5822 51.2308 62.01 51.089C70.1047 48.4072 75.371 44.0714 75.371 39.6369C75.371 35.3849 70.4431 31.2726 62.8172 28.6474Z" fill="#53C1DE"/>
<path d="M61.0617 48.2254C60.6758 48.3532 60.2796 48.4766 59.8758 48.5963C58.9821 45.7674 57.7759 42.7591 56.3004 39.6514C57.7088 36.6171 58.8681 33.6476 59.7368 30.8367C60.459 31.0461 61.1602 31.2664 61.8358 31.4992C68.3699 33.7482 72.3553 37.074 72.3553 39.6364C72.3553 42.3659 68.0508 45.9096 61.062 48.2254H61.0617ZM58.1619 53.9717C58.8684 57.5409 58.9693 60.768 58.5012 63.2907C58.0806 65.5575 57.235 67.0687 56.1894 67.674C53.9642 68.962 49.2054 67.2877 44.0737 62.8717C43.4853 62.3654 42.8925 61.8248 42.2982 61.253C44.2878 59.0768 46.2761 56.5469 48.2167 53.7377C51.6303 53.4349 54.8551 52.9396 57.7797 52.2637C57.9234 52.8449 58.0516 53.4146 58.1619 53.9717ZM28.835 67.4515C26.661 68.2192 24.9295 68.2411 23.883 67.6377C21.6556 66.3534 20.73 61.3942 21.9928 54.7429C22.1429 53.9569 22.3149 53.1752 22.5084 52.3987C25.4004 53.0383 28.6019 53.4986 32.0236 53.7761C33.9769 56.525 36.0228 59.0518 38.0846 61.2645C37.6464 61.6884 37.1978 62.1014 36.7393 62.5032C33.9998 64.8981 31.2546 66.5968 28.8353 67.4515H28.835ZM18.6501 48.2085C15.2071 47.0317 12.3638 45.5024 10.4148 43.8337C8.66363 42.3338 7.7793 40.8448 7.7793 39.6364C7.7793 37.0655 11.6126 33.786 18.0057 31.557C18.8082 31.2785 19.6186 31.0235 20.436 30.7924C21.3197 33.6663 22.4787 36.6712 23.8774 39.7098C22.4606 42.7937 21.285 45.8464 20.3931 48.7541C19.8077 48.5866 19.2265 48.4046 18.6501 48.2085ZM22.0643 24.9689C20.7372 18.187 21.6184 13.0712 23.8361 11.7875C26.1985 10.4201 31.4217 12.37 36.9271 17.2582C37.279 17.5707 37.6324 17.8979 37.9865 18.2363C35.9353 20.4391 33.9082 22.9468 31.9717 25.6798C28.6509 25.9876 25.472 26.4819 22.5496 27.1441C22.3696 26.4231 22.2078 25.6977 22.0643 24.9686V24.9689ZM52.5215 32.4895C51.8312 31.2972 51.1153 30.1199 50.3744 28.9584C52.6274 29.2427 54.7858 29.6209 56.8125 30.0837C56.2041 32.0339 55.4457 34.0732 54.5526 36.1637C53.9001 34.9256 53.2229 33.7006 52.5215 32.4895ZM40.1011 20.3919C41.4922 21.899 42.8856 23.582 44.2562 25.4079C41.476 25.2765 38.6912 25.2759 35.9109 25.406C37.2827 23.597 38.688 21.9165 40.1011 20.3919ZM27.601 32.5101C26.9083 33.7116 26.2438 34.929 25.6079 36.1615C24.7295 34.0782 23.978 32.0298 23.3643 30.0518C25.3789 29.6009 27.5272 29.2324 29.7656 28.9528C29.0163 30.1214 28.2945 31.3075 27.601 32.5101ZM29.8299 50.5353C27.5175 50.2772 25.3367 49.9275 23.3227 49.4891C23.9461 47.476 24.7142 45.3836 25.6114 43.2556C26.2499 44.489 26.9173 45.7072 27.6131 46.9092C28.3232 48.1353 29.0623 49.3444 29.8299 50.5353ZM40.1845 59.094C38.7549 57.5513 37.329 55.8451 35.9362 54.0098C37.2881 54.063 38.6664 54.0898 40.0673 54.0898C41.5066 54.0898 42.9294 54.0577 44.3296 53.9952C42.9547 55.8638 41.5663 57.5725 40.1845 59.094ZM54.5814 43.1472C55.5251 45.2983 56.3207 47.3795 56.9525 49.3585C54.9051 49.8256 52.6949 50.2019 50.3659 50.4812C51.1123 49.2981 51.835 48.1002 52.5337 46.8883C53.2439 45.6566 53.9267 44.4092 54.5814 43.1472ZM49.9206 45.3815C48.8511 47.2395 47.7213 49.0622 46.5333 50.8468C44.4384 50.9965 42.2735 51.0737 40.0673 51.0737C37.8702 51.0737 35.7328 51.0053 33.6745 50.8718C32.4556 49.0914 31.3045 47.2655 30.2237 45.398C29.1479 43.5404 28.143 41.6427 27.2113 39.7089C28.1407 37.7745 29.1425 35.8757 30.2146 34.0166V34.0172C31.2864 32.1577 32.4284 30.3396 33.6382 28.5668C35.7381 28.4081 37.8912 28.325 40.0676 28.325C42.2538 28.325 44.4096 28.4087 46.5089 28.5687C47.7065 30.3388 48.8412 32.1506 49.911 34.0007C50.9868 35.8556 52.0019 37.7451 52.9549 39.6661C52.0117 41.6066 50.9998 43.5129 49.921 45.3815H49.9206ZM56.1432 11.6979C58.5075 13.0615 59.4271 18.5604 57.9416 25.7716C57.8442 26.2414 57.7383 26.7094 57.6241 27.1753C54.6948 26.4994 51.5137 25.9963 48.1832 25.6838C46.243 22.9211 44.2328 20.4091 42.2147 18.2348C42.7435 17.725 43.2849 17.2284 43.8384 16.7455C49.0513 12.2088 53.9233 10.4176 56.1432 11.6979Z" fill="white"/>
<path d="M40.0687 33.3317C43.5511 33.3317 46.3738 36.1547 46.3738 39.6367C46.3738 43.119 43.5511 45.942 40.0687 45.942C36.5867 45.942 33.7637 43.119 33.7637 39.6367C33.7637 36.1547 36.5867 33.3317 40.0687 33.3317Z" fill="#53C1DE"/>
</g>
<defs>
<clipPath id="clip0">
<rect y="3.75" width="80" height="71.872" fill="white"/>
</clipPath>
</defs>
</svg>
