<svg width="40" height="40" viewBox="0 0 40 40" fill="none" xmlns="http://www.w3.org/2000/svg">
<rect width="40" height="40" fill="#0057FF"/>
<path d="M26.2719 21.3687C26.3625 20.9312 26.4187 20.4656 26.4187 20C26.4187 16.4531 23.5469 13.5844 20.0031 13.5844C19.5375 13.5844 19.075 13.6375 18.6344 13.7313C18.0406 13.2719 17.3031 13 16.5 13C14.5688 13 13 14.5688 13 16.5C13 17.3031 13.2719 18.0406 13.7281 18.6312C13.6375 19.0687 13.5813 19.5344 13.5813 20C13.5813 23.5469 16.4531 26.4156 19.9969 26.4156C20.4625 26.4156 20.925 26.3625 21.3656 26.2688C21.9594 26.725 22.6969 26.9969 23.4969 26.9969C25.4281 26.9969 26.9969 25.4281 26.9969 23.4969C27 22.6969 26.7281 21.9594 26.2719 21.3687ZM20.1906 24.2281C18.1406 24.2281 16.425 23.3156 16.425 22.1969C16.425 21.6969 16.7063 21.2406 17.3469 21.2406C18.3219 21.2406 18.4125 22.6438 20.1 22.6438C20.9031 22.6438 21.4219 22.2875 21.4219 21.8219C21.4219 21.2375 20.9219 21.1469 20.1094 20.9469C18.1562 20.4656 16.4281 20.2594 16.4281 18.2219C16.4281 16.3719 18.2594 15.6875 19.8375 15.6875C21.5594 15.6875 23.3 16.3719 23.3 17.4187C23.3 17.9469 22.9437 18.4125 22.3531 18.4125C21.4688 18.4125 21.4406 17.3656 20.0094 17.3656C19.2063 17.3656 18.6969 17.5844 18.6969 18.0687C18.6969 18.6875 19.3469 18.75 20.8562 19.1C22.15 19.3906 23.6906 19.9375 23.6906 21.525C23.6906 23.3719 21.9062 24.2281 20.1906 24.2281Z" fill="white"/>
</svg>
