<svg width="80" height="60" viewBox="0 0 80 60" fill="none" xmlns="http://www.w3.org/2000/svg">
<g clip-path="url(#clip0)">
<path d="M80 39.3386C80 61.0647 62.0914 59.9913 40 59.9913C17.9086 59.9913 0 61.0647 0 39.3386C0 17.6125 17.9086 -3.75162e-06 40 -3.75162e-06C62.0914 -3.75162e-06 80 17.6125 80 39.3386Z" fill="#218786" fill-opacity="0.1"/>
<path d="M55.7034 46.9074C53.7464 48.4957 51.5917 49.812 49.255 50.7394L53.5034 58.0979L57.7182 59.8978C58.4846 60.2252 59.3502 59.7252 59.4502 58.8978L59.9986 54.3471L55.7034 46.9074ZM59.0228 39.52C59.4025 38.9208 59.1705 38.1146 58.5502 37.7708L56.3573 36.5544C55.7729 36.2302 55.0596 36.4404 54.6963 37.0013C51.4847 41.9645 45.9566 44.9996 39.9997 44.9996C38.1302 44.9996 36.3099 44.6676 34.5771 44.0988L39.8395 34.9834C39.8942 34.9849 39.9442 34.9998 39.9989 34.9998C40.0536 34.9998 40.1044 34.9849 40.1583 34.9834L44.1496 41.8973C46.5894 41.1973 48.8027 39.8856 50.6034 38.0755L46.5574 31.067C47.1394 30.0022 47.4996 28.7991 47.4996 27.4999C47.4996 23.3578 44.1418 20 39.9997 20C35.8576 20 32.4998 23.3578 32.4998 27.4999C32.4998 28.7991 32.86 30.0022 33.4412 31.067L28.1053 40.3098C27.1249 39.4028 26.2335 38.3888 25.4741 37.263C25.0999 36.7083 24.3827 36.5115 23.8038 36.8466L21.6359 38.1021C21.0226 38.4567 20.8055 39.2661 21.1953 39.8575C22.4117 41.7044 23.9054 43.3114 25.5687 44.7027L20 54.3479L20.5484 58.8986C20.6484 59.7259 21.514 60.2259 22.2804 59.8986L26.4952 58.0986L32.0264 48.5183C34.5412 49.4745 37.2357 49.9995 39.9997 49.9995C47.7379 49.9995 54.912 46.0144 59.0228 39.52ZM39.9997 24.9999C41.3801 24.9999 42.4997 26.1194 42.4997 27.4999C42.4997 28.8803 41.3801 29.9998 39.9997 29.9998C38.6192 29.9998 37.4997 28.8803 37.4997 27.4999C37.4997 26.1194 38.6192 24.9999 39.9997 24.9999Z" fill="#218786" stroke="white" stroke-width="1.5"/>
</g>
<defs>
<clipPath id="clip0">
<rect width="80" height="60" fill="white"/>
</clipPath>
</defs>
</svg>
