<svg width="40" height="40" viewBox="0 0 40 40" fill="none" xmlns="http://www.w3.org/2000/svg">
<rect width="40" height="40" fill="#0057FF"/>
<path d="M25.6036 14.325C24.1071 12.825 22.1143 12 19.9964 12C15.625 12 12.0679 15.5571 12.0679 19.9286C12.0679 21.325 12.4321 22.6893 13.125 23.8929L12 28L16.2036 26.8964C17.3607 27.5286 18.6643 27.8607 19.9929 27.8607H19.9964C24.3643 27.8607 28 24.3036 28 19.9321C28 17.8143 27.1 15.825 25.6036 14.325ZM19.9964 26.525C18.8107 26.525 17.65 26.2071 16.6393 25.6071L16.4 25.4643L13.9071 26.1179L14.5714 23.6857L14.4143 23.4357C13.7536 22.3857 13.4071 21.175 13.4071 19.9286C13.4071 16.2964 16.3643 13.3393 20 13.3393C21.7607 13.3393 23.4143 14.025 24.6571 15.2714C25.9 16.5179 26.6643 18.1714 26.6607 19.9321C26.6607 23.5679 23.6286 26.525 19.9964 26.525ZM23.6107 21.5893C23.4143 21.4893 22.4393 21.0107 22.2571 20.9464C22.075 20.8786 21.9429 20.8464 21.8107 21.0464C21.6786 21.2464 21.3 21.6893 21.1821 21.825C21.0679 21.9571 20.95 21.975 20.7536 21.875C19.5893 21.2929 18.825 20.8357 18.0571 19.5179C17.8536 19.1679 18.2607 19.1929 18.6393 18.4357C18.7036 18.3036 18.6714 18.1893 18.6214 18.0893C18.5714 17.9893 18.175 17.0143 18.0107 16.6179C17.85 16.2321 17.6857 16.2857 17.5643 16.2786C17.45 16.2714 17.3179 16.2714 17.1857 16.2714C17.0536 16.2714 16.8393 16.3214 16.6571 16.5179C16.475 16.7179 15.9643 17.1964 15.9643 18.1714C15.9643 19.1464 16.675 20.0893 16.7714 20.2214C16.8714 20.3536 18.1679 22.3536 20.1571 23.2143C21.4143 23.7571 21.9071 23.8036 22.5357 23.7107C22.9179 23.6536 23.7071 23.2321 23.8714 22.7679C24.0357 22.3036 24.0357 21.9071 23.9857 21.825C23.9393 21.7357 23.8071 21.6857 23.6107 21.5893Z" fill="white"/>
</svg>
